<svg width="266" height="80" viewBox="0 0 266 80" fill="none" xmlns="http://www.w3.org/2000/svg">
<path d="M265.452 34.1865V38.6795H247.623V35.1618L257.801 23.0328H247.882V18.542H265.118V22.0597L254.939 34.1865H265.452ZM233.544 30.7819L230.757 33.5504V38.6795H224.963V10.906H230.757V26.6258L239.226 18.542H246.136L237.816 27.0758L246.879 38.6795H239.86L233.544 30.7819ZM154.347 38.9787C152.689 38.9787 151.065 38.7726 149.482 38.3603C147.895 37.9502 146.633 37.4316 145.691 36.8087L147.623 32.615C148.516 33.1891 149.592 33.6568 150.856 34.0181C152.119 34.3816 153.358 34.5611 154.57 34.5611C157.022 34.5611 158.248 33.9516 158.248 32.728C158.248 32.1539 157.913 31.7416 157.245 31.4934C156.576 31.2429 155.549 31.0301 154.16 30.8572C152.526 30.6068 151.178 30.3208 150.113 29.995C149.048 29.6714 148.124 29.0973 147.346 28.2727C146.565 27.4504 146.175 26.2778 146.175 24.7551C146.175 23.4827 146.54 22.3545 147.271 21.3681C148.001 20.3818 149.066 19.6149 150.465 19.0651C151.864 18.5177 153.518 18.2428 155.425 18.2428C156.835 18.2428 158.241 18.398 159.64 18.7105C161.039 19.023 162.198 19.453 163.114 20.0028L161.182 24.1566C159.425 23.1591 157.504 22.6582 155.425 22.6582C154.187 22.6582 153.259 22.8333 152.638 23.1835C152.02 23.5315 151.71 23.9815 151.71 24.5312C151.71 25.154 152.044 25.5907 152.713 25.8412C153.382 26.0894 154.446 26.3266 155.907 26.5527C157.542 26.8253 158.879 27.1201 159.92 27.4304C160.96 27.743 161.862 28.3104 162.632 29.135C163.4 29.9573 163.782 31.1055 163.782 32.5773C163.782 33.8252 163.411 34.9357 162.667 35.9088C161.926 36.8818 160.841 37.6377 159.418 38.1741C157.993 38.7105 156.303 38.9787 154.347 38.9787ZM132.803 34.1865C134.288 34.1865 135.508 33.6811 136.461 32.6726C137.413 31.6618 137.891 30.3075 137.891 28.6096C137.891 26.914 137.413 25.5597 136.461 24.5489C135.508 23.5382 134.288 23.0328 132.803 23.0328C131.316 23.0328 130.09 23.5382 129.125 24.5489C128.159 25.5597 127.675 26.914 127.675 28.6096C127.675 30.3075 128.159 31.6618 129.125 32.6726C130.09 33.6811 131.316 34.1865 132.803 34.1865ZM132.803 38.9787C130.698 38.9787 128.808 38.5354 127.138 37.6488C125.466 36.7644 124.16 35.5342 123.218 33.9626C122.277 32.3911 121.806 30.6068 121.806 28.6096C121.806 26.6147 122.277 24.8304 123.218 23.2589C124.16 21.6851 125.466 20.4571 127.138 19.5705C128.808 18.6861 130.698 18.2428 132.803 18.2428C134.908 18.2428 136.789 18.6861 138.447 19.5705C140.108 20.4571 141.408 21.6851 142.35 23.2589C143.289 24.8304 143.76 26.6147 143.76 28.6096C143.76 30.6068 143.289 32.3911 142.35 33.9626C141.408 35.5342 140.108 36.7644 138.447 37.6488C136.789 38.5354 134.908 38.9787 132.803 38.9787ZM217.422 38.9787C216.408 38.9787 215.552 38.6285 214.859 37.9303C214.166 37.2321 213.819 36.3587 213.819 35.3103C213.819 34.2375 214.166 33.3708 214.859 32.7081C215.552 32.0475 216.408 31.7173 217.422 31.7173C218.438 31.7173 219.292 32.0475 219.985 32.7081C220.678 33.3708 221.025 34.2375 221.025 35.3103C221.025 36.3587 220.678 37.2321 219.985 37.9303C219.292 38.6285 218.438 38.9787 217.422 38.9787ZM211.478 33.178H207.244V38.6795H201.375V33.178H187.371V29.0973L199.628 12.4775H205.943L194.577 28.2373H201.562V23.332H207.244V28.2373H211.478V33.178ZM185.771 33.7388V38.6795H166.121V34.7495L176.15 25.205C177.214 24.181 177.931 23.301 178.303 22.5651C178.675 21.8292 178.862 21.0999 178.862 20.3751C178.862 19.3267 178.508 18.5221 177.802 17.9613C177.098 17.4005 176.064 17.119 174.7 17.119C173.56 17.119 172.533 17.3384 171.618 17.7751C170.701 18.2118 169.933 18.8657 169.315 19.739L164.931 16.8951C165.947 15.3724 167.346 14.1821 169.128 13.3198C170.912 12.4598 172.955 12.0298 175.259 12.0298C177.19 12.0298 178.879 12.3468 180.329 12.9829C181.777 13.6191 182.903 14.519 183.708 15.6782C184.513 16.8397 184.916 18.2051 184.916 19.7767C184.916 21.1997 184.619 22.5341 184.025 23.782C183.431 25.0299 182.278 26.4529 180.569 28.0489L174.59 33.7388H185.771ZM118.35 24.4824V35.7979C116.938 36.8708 115.303 37.6931 113.447 38.2672C111.588 38.8413 109.718 39.1272 107.837 39.1272C105.138 39.1272 102.71 38.5487 100.556 37.3872C98.4002 36.228 96.7108 34.6187 95.4855 32.5596C94.2602 30.5004 93.6465 28.173 93.6465 25.5796C93.6465 22.984 94.2602 20.6566 95.4855 18.5974C96.7108 16.5383 98.4134 14.929 100.593 13.7698C102.771 12.6083 105.224 12.0298 107.947 12.0298C110.226 12.0298 112.294 12.4155 114.151 13.189C116.01 13.9626 117.569 15.0864 118.832 16.5582L114.969 20.1513C113.112 18.1807 110.871 17.1944 108.244 17.1944C106.586 17.1944 105.112 17.5446 103.825 18.2428C102.538 18.941 101.535 19.9274 100.816 21.1997C100.098 22.472 99.7377 23.9327 99.7377 25.5796C99.7377 27.1999 100.098 28.6473 100.816 29.9196C101.535 31.1942 102.531 32.185 103.805 32.8965C105.081 33.608 106.537 33.9626 108.172 33.9626C109.905 33.9626 111.465 33.588 112.851 32.8388V29.5938H107.694V24.4824H118.35Z" fill="white"/>
<path d="M111.851 49.0399L103.967 56.8489L112.349 68.6149H108.06L101.587 59.2397L98.7666 62.0446V68.6149H95.3369V49.0399H98.7666V57.9206L107.48 49.0399H111.851Z" fill="white"/>
<path d="M128.999 48.5721C131.784 48.5721 134.047 49.5212 135.791 51.4173C137.533 53.3154 138.405 55.7848 138.405 58.8274C138.405 61.8701 137.529 64.3395 135.777 66.2376C134.024 68.1337 131.748 69.0828 128.945 69.0828C126.123 69.0828 123.841 68.1376 122.097 66.251C120.355 64.3625 119.483 61.8893 119.483 58.8274C119.483 55.8576 120.336 53.4074 122.043 51.4729C123.748 49.5403 126.067 48.5721 128.999 48.5721ZM128.945 51.4595C127.138 51.4595 125.689 52.1229 124.601 53.4534C123.513 54.7821 122.969 56.5555 122.969 58.7718C122.969 61.0457 123.509 62.8498 124.587 64.188C125.666 65.5263 127.138 66.1954 128.999 66.1954C130.789 66.1954 132.222 65.5224 133.301 64.1746C134.379 62.8268 134.919 61.0361 134.919 58.8006C134.919 56.5632 134.379 54.7821 133.301 53.4534C132.222 52.1229 130.77 51.4595 128.945 51.4595Z" fill="white"/>
<path d="M164.101 49.0399V68.6149H160.645V59.8167H151.627V68.6149H148.17V49.0399H151.627V56.8201H160.645V49.0399H164.101Z" fill="white"/>
<path d="M190.767 49.0399V68.6149H187.311V59.8167H178.293V68.6149H174.834V49.0399H178.293V56.8201H187.311V49.0399H190.767Z" fill="white"/>
<path d="M215.719 49.0399V51.9273H204.957V57.123H214.943V59.8992H204.957V65.6739H215.885V68.6149H201.527V49.0399H215.719Z" fill="white"/>
<path d="M242.16 49.0399L234.279 56.8489L242.66 68.6149H238.372L231.898 59.2397L229.078 62.0446V68.6149H225.648V49.0399H229.078V57.9206L237.791 49.0399H242.16Z" fill="white"/>
<path d="M265.453 49.0399V52.0097H259.172V68.6149H255.715V52.0097H249.437V49.0399H265.453Z" fill="white"/>
<path fill-rule="evenodd" clip-rule="evenodd" d="M39.4205 0.735519C60.9397 0.735519 78.388 18.3143 78.388 40C78.388 61.6857 60.9397 79.2645 39.4205 79.2645C17.8989 79.2645 0.453125 61.6857 0.453125 40C0.453125 18.3143 17.8989 0.735519 39.4205 0.735519Z" fill="url(#paint0_linear_76_34)"/>
<path fill-rule="evenodd" clip-rule="evenodd" d="M39.4209 2.01633C60.2377 2.01633 77.1148 19.022 77.1148 40C77.1148 60.978 60.2377 77.9837 39.4209 77.9837C18.6017 77.9837 1.72461 60.978 1.72461 40C1.72461 19.022 18.6017 2.01633 39.4209 2.01633Z" fill="url(#paint1_linear_76_34)"/>
<path fill-rule="evenodd" clip-rule="evenodd" d="M39.4208 8.76817C56.5385 8.76817 70.4164 22.7494 70.4164 40C70.4164 57.2506 56.5385 71.2318 39.4208 71.2318C22.3007 71.2318 8.42285 57.2506 8.42285 40C8.42285 22.7494 22.3007 8.76817 39.4208 8.76817Z" fill="url(#paint2_linear_76_34)"/>
<path fill-rule="evenodd" clip-rule="evenodd" d="M39.4209 9.99266C55.8678 9.99266 69.1988 23.4278 69.1988 40C69.1988 56.5723 55.8678 70.0074 39.4209 70.0074C22.9741 70.0074 9.64062 56.5723 9.64062 40C9.64062 23.4278 22.9741 9.99266 39.4209 9.99266Z" fill="url(#paint3_linear_76_34)"/>
<path fill-rule="evenodd" clip-rule="evenodd" d="M39.1385 16.6857C38.4532 16.3012 38.249 15.3682 38.249 15.3682C37.7872 16.1886 38.1761 17.1682 38.1761 17.1682C38.7132 17.1363 39.1385 16.6857 39.1385 16.6857ZM37.0022 36.2604C36.2876 36.2604 35.6727 36.2604 35.5998 36.2531C34.8537 36.1992 34.1099 36.1282 33.393 35.8955C33.1135 35.8025 32.8364 35.6898 32.569 35.5551C33.8183 36.8604 35.7432 36.8359 37.8212 36.8751C37.549 36.711 37.2744 36.5053 37.0022 36.2604ZM27.6279 28.3037C27.4092 28.2351 27.188 28.1714 26.9717 28.1102C26.053 27.8531 25.0905 27.7404 24.1597 27.5274C23.224 27.3143 22.3393 26.9665 21.4886 26.5135C19.8311 25.6269 18.5235 24.0474 18.0981 22.1812C18.0301 21.8776 17.9693 21.5739 17.9207 21.2678C18.2124 22.2204 18.628 23.0653 19.2939 23.8074C19.8918 24.471 20.723 25.0294 21.5494 25.36C23.3576 26.0825 25.2655 26.3543 27.205 26.3886C28.1286 26.4057 29.0546 26.2808 29.9782 26.3347C30.8629 26.3861 31.8545 26.511 32.5302 27.1551C33.1888 27.7894 33.2301 28.8963 32.5302 29.5086C32.8631 30.1429 32.7683 30.9682 32.185 31.4555C32.0757 31.5461 31.9639 31.6318 31.8521 31.7127L31.8691 31.7739C32.5472 33.9976 33.9738 34.6392 35.7213 34.84C34.1002 32.6702 32.8656 29.5061 33.235 27.2384C33.5291 27.3804 41.6687 33.1649 44.4005 31.2816C44.9352 30.9118 43.8779 27.7698 44.8331 28.0759C45.3119 28.2278 46.148 28.6392 45.5549 27.1037C45.5549 27.1037 50.1922 31.3306 49.1569 36.2016C49.1569 36.2016 46.7143 36.1061 44.9765 34.1396C44.9765 34.1396 45.0616 34.5045 45.4115 34.9747C46.2282 35.9641 48.0559 37.2474 51.9227 36.7208C51.9227 36.7208 51.772 36.9437 51.4221 37.191C52.7661 37.3012 53.8063 37.2498 54.7177 36.9535C55.5951 36.5886 57.311 35.6629 57.8093 33.8555C57.8093 33.8555 57.9381 34.2278 57.9405 34.6637C58.1933 34.4286 59.0318 33.711 59.9529 33.7037C60.3904 33.6988 60.7671 33.8482 61.0418 34.0955L61.0685 34.12L61.1536 34.2082C61.3747 34.4457 62.0699 35.9004 62.0893 36.2506C62.116 36.7012 60.3953 35.6335 60.3418 36.1012C60.3078 36.4074 61.557 36.5935 61.9119 36.88C63.0104 37.769 60.913 38.0384 59.4328 37.8914C59.3089 38.2784 61.7588 38.0384 61.7223 38.4229C61.4598 41.1265 57.7582 38.44 54.3848 40.7567C55.0847 41.3861 54.3775 42.1576 54.3775 42.1576C53.889 41.031 52.0807 40.9282 52.0807 40.9282C52.8074 41.5233 52.088 42.0841 52.088 42.0841C52.088 42.0841 52.2168 40.7053 48.4958 40.8376C45.7883 40.9355 44.3008 40.0563 43.6908 39.5714C43.3797 41.5918 40.5336 42.4784 39.2552 42.7747C39.2382 42.8016 39.2212 42.8188 39.2017 42.8286C42.9811 43.4237 44.138 40.8425 44.138 40.8425C45.4917 41.6286 47.4191 41.4204 47.4191 41.4204C47.4191 41.4204 46.8091 42.5543 45.064 44.3494C43.3214 46.142 43.2873 48.6572 43.2873 48.6572C42.6408 46.8229 40.5239 46.1298 40.5239 46.1298C40.5239 46.1298 42.286 47.7118 43.5766 51.2408C44.8671 54.7723 41.3284 58.2718 38.1712 58.2792C35.0141 58.2865 35.7068 61.6245 35.7578 63.2653C35.7651 63.5053 35.8088 63.6963 35.8745 63.8457C35.9328 63.9045 35.9984 63.9363 36.0689 63.9314C36.6084 63.8996 37.0459 62.9127 38.6476 63.3192C40.2517 63.7233 39.666 65.2661 38.5893 66.1527C38.0424 66.6033 36.4699 67.3967 35.087 67.2008C33.0746 67.0465 32.71 64.9159 32.0611 61.7518L32.0368 61.6147C31.7014 62.3959 31.4267 63.2506 31.4267 63.2506C30.8313 59.2245 31.9906 56.7339 33.3808 55.8278C34.5085 55.0931 35.0335 55.7176 35.1915 55.9796C38.5868 55.48 26.0992 45.0327 21.5008 43.1886C19.3693 42.3314 17.6169 44.7731 22.7257 48.9143C24.3055 50.1927 20.2467 44.8 24.4732 46.0735C27.7276 47.058 27.2561 51.0572 24.8183 51.6572C19.1141 53.0555 14.1997 43.7518 17.143 41.1339C22.3441 36.5078 31.8132 47.7927 33.7867 46.649C37.1359 44.7143 37.5952 40.3404 37.6535 38.1853C36.6182 38.1853 35.3859 38.1878 35.2814 38.1804C34.5353 38.1241 33.7916 38.0531 33.0746 37.8204C32.2361 37.5486 31.4437 37.0931 30.858 36.4172C30.2407 35.7045 29.8445 34.8008 29.6671 33.8727C29.5723 33.3878 29.531 32.898 29.5286 32.4057C29.5286 32.1755 29.6039 31.9404 29.5796 31.7127C29.5553 31.4898 29.3876 31.3331 29.2272 31.1984C28.4932 30.5739 27.5575 30.2898 26.6509 30.0351C25.7322 29.778 24.7697 29.6653 23.8389 29.4523C22.9031 29.2392 22.0185 28.8914 21.1702 28.4384C19.5127 27.5518 18.2026 25.9723 17.7798 24.1061C17.7117 23.8025 17.6509 23.4988 17.6023 23.1927C17.8916 24.1453 18.3072 24.9902 18.9755 25.7323C19.5734 26.3959 20.4046 26.9543 21.2286 27.2849C23.0368 28.0074 24.9471 28.2792 26.8866 28.3159C27.1321 28.3184 27.38 28.3135 27.6279 28.3037ZM37.131 38.9029C37.1286 38.9665 37.0508 39.0204 37.0119 39.0718C36.9487 39.1502 36.8904 39.231 36.8345 39.3143C36.7178 39.4808 36.6352 39.6523 36.5769 39.8482C36.4796 40.1616 36.6789 40.6416 36.3994 40.8743C36.2755 40.9771 36.0981 41.0016 35.9401 40.9918C35.8793 40.9894 35.7602 40.982 35.7068 40.9478C35.646 40.911 35.5974 40.7886 35.5706 40.7249C35.4345 40.382 35.5998 40.0514 35.838 39.8016C36.1856 39.4367 36.6765 39.111 37.131 38.9029ZM35.7335 38.7143C35.7311 38.7902 35.6338 38.8588 35.5852 38.92C35.5075 39.018 35.437 39.1184 35.3665 39.2188C35.2231 39.4245 35.1234 39.6376 35.0481 39.8776C34.929 40.2645 35.1745 40.8547 34.8318 41.1437C34.6787 41.2686 34.4599 41.3004 34.2655 41.2882C34.1902 41.2833 34.0443 41.2735 33.9763 41.2343C33.9034 41.1878 33.8426 41.0384 33.811 40.9576C33.6409 40.5339 33.845 40.1274 34.1391 39.8188C34.5669 39.3706 35.1721 38.969 35.7335 38.7143ZM17.668 34.3306C17.6728 34.3184 18.0738 34.5829 18.1443 34.622C18.3558 34.7445 18.5721 34.8498 18.7957 34.9429C19.2502 35.1314 19.7241 35.2539 20.2053 35.3445C21.1095 35.5135 22.0671 35.5355 22.9785 35.4498C23.9142 35.3641 24.8572 35.1069 25.7978 35.2416C26.7578 35.3812 27.6741 35.7363 28.5005 36.2482C28.6341 36.3339 28.7702 36.4171 28.9039 36.5053C28.4713 36.4074 28.0338 36.3461 27.5915 36.3755C27.1005 36.4123 26.6412 36.5396 26.1721 36.6865C25.2826 36.9633 24.41 37.2155 23.4816 37.3135C21.5226 37.5143 19.7654 36.4857 18.4165 35.1339C18.1589 34.8743 17.9086 34.6049 17.668 34.3306ZM24.1451 30.0718C25.0614 30.1992 25.9922 30.3461 26.8623 30.6767C27.3363 30.858 27.7713 31.0735 28.2112 31.3282C28.4032 31.4384 28.5831 31.5755 28.7532 31.7151C28.8116 31.7641 28.972 31.8596 29.0011 31.9331C29.0376 32.0286 28.9866 32.2269 28.9817 32.3323C28.8991 34.1812 29.407 36.2114 30.9868 37.311C31.2031 37.4629 31.4413 37.5706 31.6844 37.6637C29.74 37.4188 28.5248 35.822 27.854 34.0808C27.521 33.2188 27.12 32.4057 26.5269 31.6955C25.9363 30.9927 25.1708 30.4563 24.3177 30.138C24.2593 30.1159 24.201 30.0939 24.1451 30.0718ZM33.7843 38.5796C33.7843 38.658 33.687 38.7265 33.6384 38.7853C33.5607 38.8833 33.4902 38.9837 33.4197 39.0865C33.2763 39.2923 33.1767 39.5029 33.1013 39.7429C32.9822 40.1298 33.2277 40.7225 32.885 41.009C32.7319 41.1363 32.5131 41.1657 32.3187 41.1535C32.2434 41.1486 32.0975 41.1412 32.0295 41.0996C31.9541 41.0531 31.8958 40.9037 31.8642 40.8253C31.6941 40.4016 31.8982 39.9951 32.1923 39.6865C32.6201 39.2359 33.2253 38.8367 33.7843 38.5796ZM33.0114 38.32C32.6736 38.6286 32.2993 38.898 31.9639 39.209C31.7889 39.3731 31.6139 39.5445 31.4802 39.7453C31.349 39.9412 31.3149 40.1469 31.2104 40.3502C30.999 40.7543 30.6757 41.031 30.2164 41.0408C29.7206 41.0531 29.5917 40.6098 29.7959 40.218C30.0948 39.6523 30.6393 39.2923 31.1983 39.0204C31.7889 38.7363 32.3795 38.4963 33.0114 38.32ZM31.9882 38.0163C31.5628 38.2539 31.1399 38.4963 30.7219 38.751C30.3282 38.991 29.9126 39.2408 29.5796 39.5641C29.2612 39.8727 28.9331 40.2057 28.4883 40.3184C28.0678 40.4261 27.5793 40.3576 27.4335 39.8825C27.312 39.4808 27.7713 39.1208 28.0581 38.9445C28.4421 38.7094 28.8966 38.5723 29.3268 38.4523C30.2018 38.2098 31.0865 38.0776 31.9882 38.0163ZM21.2893 37.8351C22.1084 38.1731 23.0368 38.0971 23.9045 37.9845C24.8597 37.862 25.7614 37.4947 26.7019 37.2988C27.8831 37.0514 29.0984 37.142 30.2237 37.578C29.322 37.7225 28.5029 38.0482 27.6498 38.3665C26.7676 38.6996 25.8659 39.1135 24.9156 39.1894C23.5423 39.2996 22.2931 38.7633 21.2893 37.8351ZM16.951 31.0735C17.2937 31.3184 17.6266 31.6049 18.0106 31.8106C18.4092 32.0237 18.8224 32.1902 19.2502 32.3298C20.1859 32.6335 21.1629 32.7731 22.14 32.8612C23.0781 32.9469 24.0187 32.8294 24.935 33.1061C25.8488 33.3829 26.6436 33.9755 27.3825 34.5657C27.5623 34.7102 27.7349 34.8596 27.9123 35.009C26.996 34.6661 26.0603 34.48 25.0857 34.4261C24.6433 34.3992 24.1767 34.4237 23.7368 34.4751C23.4889 34.5069 23.2361 34.529 22.9906 34.5755C22.7597 34.622 22.5386 34.6931 22.3028 34.7249C21.3963 34.84 20.4217 34.5853 19.6099 34.1812C18.7544 33.7527 18.0617 33.0253 17.5343 32.2294C17.2937 31.8669 17.1017 31.4849 16.951 31.0735ZM16.2559 26.2074C16.3628 26.2318 16.5329 26.5845 16.6083 26.6874C16.7492 26.8759 16.8951 27.0547 17.053 27.2335C17.3593 27.5788 17.7044 27.8947 18.0738 28.1739C18.8346 28.7543 19.7144 29.1486 20.6209 29.4302C21.0779 29.5747 21.5494 29.7118 22.0257 29.7706C22.4851 29.8294 22.9104 29.9445 23.3333 30.138C24.2107 30.542 24.9885 31.2204 25.6495 31.9184C26.0919 32.3861 26.4613 32.9102 26.838 33.4294C26.736 33.4686 26.454 33.2114 26.3592 33.1527C26.1624 33.0302 25.9558 32.9298 25.7492 32.8269C25.3506 32.6286 24.9156 32.4841 24.4878 32.369C23.6055 32.1265 22.6771 32.1412 21.7973 31.8963C20.8445 31.6318 19.9647 31.2596 19.1432 30.7012C18.3679 30.1771 17.7311 29.4474 17.2353 28.6563C16.7638 27.9094 16.4697 27.0596 16.2559 26.2074ZM53.889 55.1739C52.6276 56.2539 53.1623 57.1894 52.873 57.6523C52.8341 57.7135 52.7709 57.7478 52.6907 57.7625C52.5328 57.7282 52.3553 57.6523 52.1585 57.5176C50.812 56.6016 47.7302 55.2229 49.57 52.622C51.405 50.0237 50.6637 45.0718 47.0813 44.0727C46.8188 43.9992 46.566 43.9355 46.3181 43.8792C45.764 44.3788 43.6568 46.4972 43.839 49.5829C43.8901 50.4523 43.997 51.0351 44.1088 51.4514C45.7591 51.6376 46.3959 52.9257 45.9851 53.729C45.6813 53.7069 44.8768 53.7731 44.8064 55.1298C44.7213 56.8 46.041 59.2074 49.6187 61.0686C49.6187 61.0686 49.0912 60.3461 48.6611 59.6114L48.7874 59.6727C51.704 60.9878 53.624 61.9306 54.9219 60.3682C55.8868 59.3445 56.1687 57.5886 56.1274 56.8759C56.0423 55.4751 55.1504 54.0939 53.889 55.1739ZM49.8447 35.5992C50.219 35.2171 50.6006 34.7543 50.9797 34.1984C53.0918 31.0931 54.1077 32.0188 54.1077 32.0188C54.1077 32.0188 54.0931 31.1029 53.1866 31.338C53.1866 31.338 54.3483 29.9274 55.5319 30.2041C55.5319 30.2041 55.3399 29.1682 54.4261 29.3616C54.9292 28.1616 55.3035 25.4996 55.4736 25.2327C55.6316 24.9853 57.3718 24.9976 57.6853 24.7698C58.0013 24.542 55.933 23.7192 56.2902 23.8196C57.6707 24.209 58.6745 24.1331 57.0874 22.8425C56.8979 22.6906 55.9694 22.4653 56.0034 22.2474C56.0229 22.1078 57.2235 22.4335 57.2162 22.3012C57.2041 22.1053 57.1579 21.9167 57.0631 21.7453C56.5722 20.8343 54.3993 19.862 53.6556 20.6212C51.0453 23.2955 53.5438 27.3878 51.6068 26.8245C51.2981 27.7429 50.7196 28.6196 49.8301 29.6457C49.8447 29.2122 49.7572 28.9576 49.7572 28.9576C49.4582 29.5061 49.1544 29.9837 48.8482 30.4025C49.2517 31.1567 50.1023 33.0914 49.8447 35.5992ZM33.4391 26.7731C50.0075 36.7502 40.084 24.6939 45.0737 27.4686C45.0737 27.4686 45.2803 26.5429 43.1853 25.1788C41.0902 23.8123 40.7183 22.8914 42.4294 21.3265C43.4866 20.3616 44.4005 21.5984 45.3775 21.3118C45.9827 21.1355 46.8965 19.4408 47.0254 19.0955C47.3632 18.1918 43.2898 16.191 41.9238 17.0041C41.9238 17.0041 41.7853 16.191 40.8958 16.3967C40.0062 16.6025 38.7229 17.7755 37.7143 17.5306C37.7143 17.5306 38.5431 18.3339 38.1056 19.578C38.1056 19.578 38.0035 18.3363 36.9366 17.609C35.872 16.8816 35.4807 15.3216 35.4807 15.3216C35.4807 15.3216 33.9179 17.3959 35.5488 20.0678C35.5488 20.0678 32.8169 22.3355 33.4391 26.7731Z" fill="#094380"/>
<defs>
<linearGradient id="paint0_linear_76_34" x1="17.1362" y1="72.1419" x2="62.5366" y2="6.60465" gradientUnits="userSpaceOnUse">
<stop stop-color="#8E6C1A"/>
<stop offset="0.53" stop-color="#653F1C"/>
<stop offset="0.92" stop-color="#FECB07"/>
<stop offset="1" stop-color="#B78A11"/>
</linearGradient>
<linearGradient id="paint1_linear_76_34" x1="17.6881" y1="70.0262" x2="63.3207" y2="10.4486" gradientUnits="userSpaceOnUse">
<stop stop-color="#E7C160"/>
<stop offset="0.43" stop-color="#CD8C16"/>
<stop offset="0.69" stop-color="#F8B52B"/>
<stop offset="0.91" stop-color="#FBF8D8"/>
<stop offset="1" stop-color="#FEF8CB"/>
</linearGradient>
<linearGradient id="paint2_linear_76_34" x1="8.42361" y1="40" x2="70.4164" y2="40" gradientUnits="userSpaceOnUse">
<stop stop-color="#FBEB0C"/>
<stop offset="0.09" stop-color="#F9FCFD"/>
<stop offset="0.2" stop-color="#FCEE5E"/>
<stop offset="0.56" stop-color="#653E1C"/>
<stop offset="0.73" stop-color="#FBEF4A"/>
<stop offset="1" stop-color="#FAF49C"/>
</linearGradient>
<linearGradient id="paint3_linear_76_34" x1="42.1131" y1="67.2932" x2="42.1131" y2="13.5939" gradientUnits="userSpaceOnUse">
<stop stop-color="#A4C8E9"/>
<stop offset="1" stop-color="white"/>
</linearGradient>
</defs>
</svg>
