<svg width="22" height="22" viewBox="0 0 22 22" fill="none" xmlns="http://www.w3.org/2000/svg">
<path d="M15.3148 7.98142L12.2962 11L15.3148 14.0186L14.0186 15.3148L11 12.2962L7.98142 15.3148L6.68525 14.0186L9.70383 11L6.68525 7.98142L7.98142 6.68525L11 9.70383L14.0186 6.68525L15.3148 7.98142ZM22 11C22 17.0656 17.0656 22 11 22C4.93442 22 0 17.0656 0 11C0 4.93442 4.93442 0 11 0C17.0656 0 22 4.93442 22 11ZM20.1667 11C20.1667 5.9455 16.0545 1.83333 11 1.83333C5.9455 1.83333 1.83333 5.9455 1.83333 11C1.83333 16.0545 5.9455 20.1667 11 20.1667C16.0545 20.1667 20.1667 16.0545 20.1667 11Z" fill="black"/>
</svg>
