<svg width="687" height="209" viewBox="0 0 687 209" fill="none" xmlns="http://www.w3.org/2000/svg">
<g clip-path="url(#clip0_2767_150101)">
<path d="M684.027 80.4134V92.1513H637.999V82.9613L664.276 51.2743H638.669V39.5422H683.164V48.7321L656.887 80.4134H684.027ZM601.653 71.5188L594.458 78.7514V92.1513H579.499V19.593H594.458V60.6611L616.322 39.5422H634.16L612.682 61.8366L636.079 92.1513H617.957L601.653 71.5188ZM397.196 92.933C392.914 92.933 388.723 92.3945 384.634 91.3174C380.539 90.2461 377.28 88.8911 374.849 87.2639L379.835 76.3077C382.141 77.8075 384.918 79.0294 388.183 79.9733C391.443 80.923 394.64 81.392 397.77 81.392C404.102 81.392 407.265 79.7995 407.265 76.603C407.265 75.1032 406.402 74.0262 404.675 73.3776C402.949 72.7232 400.297 72.1673 396.713 71.7156C392.494 71.0613 389.012 70.3143 386.264 69.463C383.515 68.6176 381.13 67.1178 379.12 64.9636C377.104 62.8153 376.098 59.7519 376.098 55.7737C376.098 52.4498 377.041 49.5023 378.926 46.9254C380.812 44.3485 383.561 42.3449 387.172 40.9088C390.784 39.4785 395.055 38.7604 399.979 38.7604C403.619 38.7604 407.248 39.1658 410.86 39.9823C414.472 40.7988 417.464 41.9222 419.827 43.3583L414.841 54.2102C410.303 51.6043 405.345 50.2956 399.979 50.2956C396.781 50.2956 394.385 50.7531 392.783 51.668C391.188 52.5772 390.387 53.7527 390.387 55.1888C390.387 56.816 391.25 57.9568 392.976 58.6112C394.703 59.2597 397.452 59.8793 401.222 60.47C405.442 61.1823 408.895 61.9524 411.581 62.7631C414.267 63.5796 416.596 65.0621 418.583 67.2162C420.565 69.3646 421.553 72.3642 421.553 76.2093C421.553 79.4695 420.594 82.3707 418.674 84.9128C416.76 87.4549 413.961 89.4296 410.286 90.831C406.606 92.2323 402.245 92.933 397.196 92.933ZM341.575 80.4134C345.409 80.4134 348.561 79.0931 351.02 76.4583C353.479 73.8177 354.711 70.2795 354.711 65.8438C354.711 61.4139 353.479 57.8757 351.02 55.2352C348.561 52.5946 345.409 51.2743 341.575 51.2743C337.736 51.2743 334.573 52.5946 332.08 55.2352C329.587 57.8757 328.338 61.4139 328.338 65.8438C328.338 70.2795 329.587 73.8177 332.08 76.4583C334.573 79.0931 337.736 80.4134 341.575 80.4134ZM341.575 92.933C336.141 92.933 331.262 91.7748 326.952 89.4585C322.636 87.148 319.262 83.9342 316.832 79.8285C314.401 75.7229 313.186 71.0613 313.186 65.8438C313.186 60.6321 314.401 55.9706 316.832 51.8649C319.262 47.7535 322.636 44.5454 326.952 42.2291C331.262 39.9186 336.141 38.7604 341.575 38.7604C347.01 38.7604 351.866 39.9186 356.148 42.2291C360.436 44.5454 363.792 47.7535 366.222 51.8649C368.647 55.9706 369.863 60.6321 369.863 65.8438C369.863 71.0613 368.647 75.7229 366.222 79.8285C363.792 83.9342 360.436 87.148 356.148 89.4585C351.866 91.7748 347.01 92.933 341.575 92.933ZM560.031 92.933C557.413 92.933 555.204 92.0181 553.415 90.194C551.626 88.3699 550.729 86.0883 550.729 83.3493C550.729 80.5466 551.626 78.2824 553.415 76.5509C555.204 74.8253 557.413 73.9625 560.031 73.9625C562.655 73.9625 564.858 74.8253 566.647 76.5509C568.436 78.2824 569.333 80.5466 569.333 83.3493C569.333 86.0883 568.436 88.3699 566.647 90.194C564.858 92.0181 562.655 92.933 560.031 92.933ZM544.686 77.7786H533.754V92.1513H518.603V77.7786H482.45V67.1178L514.093 23.6987H530.398L501.054 64.871H519.085V52.056H533.754V64.871H544.686V77.7786ZM478.321 79.2436V92.1513H427.59V81.8842L453.481 56.9492C456.23 54.2739 458.081 51.975 459.041 50.0524C460.001 48.1299 460.483 46.2247 460.483 44.3311C460.483 41.5921 459.569 39.4901 457.746 38.025C455.929 36.5599 453.259 35.8245 449.738 35.8245C446.797 35.8245 444.145 36.3978 441.782 37.5386C439.414 38.6794 437.432 40.3876 435.836 42.6692L424.518 35.2397C427.142 31.2614 430.753 28.1518 435.353 25.8992C439.959 23.6523 445.235 22.5289 451.181 22.5289C456.167 22.5289 460.529 23.357 464.271 25.019C468.008 26.6809 470.916 29.032 472.994 32.0605C475.073 35.0949 476.112 38.662 476.112 42.7676C476.112 46.4853 475.345 49.9713 473.812 53.2315C472.279 56.4917 469.303 60.2094 464.89 64.3788L449.455 79.2436H478.321ZM304.264 55.0614V84.6233C300.618 87.426 296.399 89.5744 291.605 91.0742C286.807 92.574 281.979 93.321 277.124 93.321C270.156 93.321 263.886 91.8096 258.326 88.7752C252.761 85.7467 248.399 81.5426 245.236 76.163C242.073 70.7833 240.488 64.703 240.488 57.9279C240.488 51.1469 242.073 45.0666 245.236 39.687C248.399 34.3073 252.795 30.1032 258.423 27.0747C264.045 24.0403 270.377 22.5289 277.408 22.5289C283.291 22.5289 288.63 23.5365 293.423 25.5575C298.222 27.5785 302.248 30.5144 305.508 34.3595L295.535 43.7463C290.742 38.5983 284.955 36.0214 278.175 36.0214C273.893 36.0214 270.088 36.9363 266.765 38.7604C263.443 40.5845 260.853 43.1614 258.996 46.4853C257.145 49.8092 256.214 53.6253 256.214 57.9279C256.214 62.1609 257.145 65.9423 258.996 69.2662C260.853 72.5958 263.426 75.1843 266.714 77.0432C270.008 78.902 273.768 79.8285 277.987 79.8285C282.462 79.8285 286.489 78.8499 290.066 76.8926V68.4149H276.755V55.0614H304.264Z" fill="#1D65C0"/>
<path d="M271.678 131.562C268.999 131.562 266.601 132.047 264.483 133.016C262.391 133.986 260.618 135.389 259.164 137.226C257.709 139.037 256.6 141.244 255.834 143.846C255.069 146.423 254.686 149.331 254.686 152.572C254.686 156.909 255.299 160.646 256.523 163.784C257.748 166.897 259.61 169.295 262.11 170.979C264.611 172.637 267.774 173.466 271.601 173.466C273.974 173.466 276.283 173.237 278.528 172.778C280.773 172.318 283.095 171.693 285.493 170.902V178.709C283.222 179.602 280.926 180.253 278.604 180.661C276.283 181.069 273.604 181.273 270.568 181.273C264.853 181.273 260.108 180.087 256.332 177.714C252.581 175.342 249.775 171.999 247.913 167.688C246.076 163.376 245.157 158.325 245.157 152.533C245.157 148.298 245.744 144.42 246.918 140.899C248.091 137.379 249.801 134.343 252.046 131.791C254.291 129.215 257.059 127.237 260.35 125.86C263.667 124.457 267.455 123.755 271.716 123.755C274.522 123.755 277.278 124.074 279.982 124.712C282.712 125.324 285.238 126.204 287.559 127.352L284.345 134.93C282.406 134.011 280.377 133.22 278.26 132.557C276.142 131.894 273.948 131.562 271.678 131.562Z" fill="#1D65C0"/>
<path d="M359.722 152.457C359.722 156.768 359.174 160.697 358.077 164.244C357.005 167.764 355.385 170.8 353.217 173.352C351.048 175.877 348.331 177.829 345.065 179.207C341.8 180.584 337.973 181.273 333.585 181.273C329.12 181.273 325.242 180.584 321.951 179.207C318.685 177.829 315.968 175.865 313.8 173.313C311.657 170.762 310.049 167.713 308.978 164.167C307.906 160.621 307.37 156.692 307.37 152.38C307.37 146.614 308.314 141.588 310.202 137.302C312.116 132.991 315.011 129.648 318.889 127.276C322.793 124.878 327.717 123.678 333.661 123.678C339.478 123.678 344.313 124.865 348.165 127.237C352.018 129.61 354.901 132.952 356.814 137.264C358.753 141.55 359.722 146.614 359.722 152.457ZM317.014 152.457C317.014 156.768 317.601 160.506 318.775 163.67C319.948 166.808 321.747 169.231 324.171 170.941C326.62 172.625 329.758 173.466 333.585 173.466C337.437 173.466 340.575 172.625 342.999 170.941C345.423 169.231 347.208 166.808 348.357 163.67C349.505 160.506 350.079 156.768 350.079 152.457C350.079 145.9 348.765 140.772 346.137 137.073C343.535 133.348 339.376 131.485 333.661 131.485C329.834 131.485 326.684 132.327 324.209 134.011C321.76 135.695 319.948 138.106 318.775 141.244C317.601 144.356 317.014 148.094 317.014 152.457Z" fill="#1D65C0"/>
<path d="M430.967 180.508H419.678L392.277 135.848H391.933C392.035 137.353 392.124 138.948 392.201 140.632C392.303 142.315 392.379 144.05 392.43 145.836C392.507 147.622 392.571 149.433 392.622 151.27V180.508H384.279V124.559H395.492L422.854 168.912H423.122C423.071 167.611 423.007 166.119 422.931 164.435C422.854 162.751 422.778 161.016 422.701 159.23C422.65 157.419 422.612 155.671 422.586 153.987V124.559H430.967V180.508Z" fill="#1D65C0"/>
<path d="M504.891 180.508H493.601L466.201 135.848H465.856C465.958 137.353 466.048 138.948 466.124 140.632C466.226 142.315 466.303 144.05 466.354 145.836C466.43 147.622 466.494 149.433 466.545 151.27V180.508H458.202V124.559H469.415L496.778 168.912H497.046C496.995 167.611 496.931 166.119 496.854 164.435C496.778 162.751 496.701 161.016 496.625 159.23C496.574 157.419 496.535 155.671 496.51 153.987V124.559H504.891V180.508Z" fill="#1D65C0"/>
<path d="M563.813 180.508H532.126V124.559H563.813V132.289H541.311V147.482H562.397V155.174H541.311V172.739H563.813V180.508Z" fill="#1D65C0"/>
<path d="M612.287 131.562C609.609 131.562 607.21 132.047 605.093 133.016C603.001 133.986 601.228 135.389 599.773 137.226C598.319 139.037 597.209 141.244 596.444 143.846C595.679 146.423 595.296 149.331 595.296 152.572C595.296 156.909 595.908 160.646 597.133 163.784C598.357 166.897 600.22 169.295 602.72 170.979C605.22 172.637 608.384 173.466 612.211 173.466C614.584 173.466 616.892 173.237 619.138 172.778C621.383 172.318 623.704 171.693 626.102 170.902V178.709C623.832 179.602 621.536 180.253 619.214 180.661C616.892 181.069 614.214 181.273 611.178 181.273C605.463 181.273 600.717 180.087 596.942 177.714C593.191 175.342 590.385 171.999 588.522 167.688C586.685 163.376 585.767 158.325 585.767 152.533C585.767 148.298 586.354 144.42 587.527 140.899C588.701 137.379 590.41 134.343 592.655 131.791C594.9 129.215 597.669 127.237 600.96 125.86C604.276 124.457 608.065 123.755 612.326 123.755C615.132 123.755 617.887 124.074 620.592 124.712C623.322 125.324 625.847 126.204 628.169 127.352L624.954 134.93C623.015 134.011 620.987 133.22 618.87 132.557C616.752 131.894 614.558 131.562 612.287 131.562Z" fill="#1D65C0"/>
<path d="M670.061 180.508H660.839V132.365H644.459V124.559H686.402V132.365H670.061V180.508Z" fill="#1D65C0"/>
<path fill-rule="evenodd" clip-rule="evenodd" d="M101.766 3.26538C157.321 3.26538 202.365 49.1899 202.365 105.844C202.365 162.498 157.321 208.422 101.766 208.422C46.2049 208.422 1.16629 162.498 1.16629 105.844C1.16629 49.1899 46.2049 3.26538 101.766 3.26538Z" fill="url(#paint0_linear_2767_150101)"/>
<path fill-rule="evenodd" clip-rule="evenodd" d="M101.769 6.61401C155.51 6.61401 199.081 51.0414 199.081 105.846C199.081 160.651 155.51 205.079 101.769 205.079C48.0214 205.079 4.45105 160.651 4.45105 105.846C4.45105 51.0414 48.0214 6.61401 101.769 6.61401Z" fill="url(#paint1_linear_2767_150101)"/>
<path fill-rule="evenodd" clip-rule="evenodd" d="M101.758 24.2495C145.95 24.2495 181.777 60.7755 181.777 105.843C181.777 150.91 145.95 187.436 101.758 187.436C57.5603 187.436 21.7327 150.91 21.7327 105.843C21.7327 60.7755 57.5603 24.2495 101.758 24.2495Z" fill="url(#paint2_linear_2767_150101)"/>
<path fill-rule="evenodd" clip-rule="evenodd" d="M101.762 27.4514C144.222 27.4514 178.638 62.5506 178.638 105.846C178.638 149.141 144.222 184.24 101.762 184.24C59.3024 184.24 24.8803 149.141 24.8803 105.846C24.8803 62.5506 59.3024 27.4514 101.762 27.4514Z" fill="url(#paint3_linear_2767_150101)"/>
<path fill-rule="evenodd" clip-rule="evenodd" d="M101.042 44.9323C99.2727 43.9278 98.7457 41.4902 98.7457 41.4902C97.5535 43.6335 98.5574 46.1927 98.5574 46.1927C99.9441 46.1095 101.042 44.9323 101.042 44.9323ZM95.5268 96.0712C93.6821 96.0712 92.0947 96.0712 91.9064 96.052C89.9802 95.9112 88.0602 95.7257 86.2092 95.1179C85.4876 94.8748 84.7723 94.5805 84.0821 94.2286C87.3072 97.6387 92.2766 97.5747 97.6414 97.6771C96.9386 97.2484 96.2296 96.711 95.5268 96.0712ZM71.326 75.2842C70.7613 75.1051 70.1903 74.9387 69.6319 74.7788C67.2601 74.107 64.7754 73.8127 62.3722 73.2561C59.9565 72.6994 57.6726 71.7909 55.4765 70.6073C51.1973 68.2913 47.8216 64.1646 46.7236 59.2893C46.5479 58.496 46.391 57.7026 46.2655 56.9029C47.0185 59.3917 48.0914 61.599 49.8106 63.5376C51.3542 65.2714 53.5001 66.7302 55.6334 67.5939C60.3016 69.4813 65.2271 70.1914 70.2342 70.281C72.6185 70.3258 75.0091 69.9995 77.3935 70.1403C79.6774 70.2746 82.2374 70.6009 83.9817 72.2836C85.6821 73.9407 85.7888 76.8325 83.9817 78.432C84.8413 80.0891 84.5966 82.2452 83.0907 83.5184C82.8084 83.7551 82.5197 83.979 82.2311 84.1902L82.275 84.3501C84.0256 90.1595 87.7088 91.8357 92.2202 92.3604C88.0351 86.6918 84.8476 78.4256 85.8013 72.5011C86.5605 72.8722 107.574 87.9842 114.627 83.0641C116.007 82.0981 113.277 73.8895 115.743 74.6892C116.979 75.0859 119.138 76.1607 117.607 72.1492C117.607 72.1492 129.579 83.1921 126.906 95.9176C126.906 95.9176 120.6 95.6681 116.114 90.5306C116.114 90.5306 116.333 91.4839 117.237 92.7123C119.345 95.297 124.063 98.6496 134.046 97.274C134.046 97.274 133.657 97.8562 132.754 98.5024C136.223 98.7903 138.909 98.656 141.262 97.8818C143.527 96.9285 147.957 94.5101 149.243 89.7884C149.243 89.7884 149.576 90.7609 149.582 91.8997C150.234 91.2855 152.399 89.4109 154.777 89.3917C155.907 89.3789 156.879 89.7692 157.588 90.4154L157.657 90.4794L157.877 90.7097C158.448 91.3303 160.242 95.1307 160.293 96.0456C160.362 97.2228 155.919 94.4333 155.781 95.6553C155.693 96.4551 158.918 96.9413 159.834 97.6899C162.671 100.012 157.256 100.716 153.434 100.332C153.114 101.343 159.439 100.716 159.345 101.721C158.667 108.784 149.111 101.765 140.402 107.818C142.209 109.462 140.383 111.477 140.383 111.477C139.122 108.534 134.454 108.266 134.454 108.266C136.33 109.82 134.473 111.286 134.473 111.286C134.473 111.286 134.805 107.683 125.199 108.029C118.209 108.285 114.369 105.988 112.794 104.721C111.991 110 104.644 112.316 101.343 113.09C101.299 113.16 101.255 113.205 101.205 113.231C110.962 114.785 113.949 108.042 113.949 108.042C117.444 110.096 122.419 109.552 122.419 109.552C122.419 109.552 120.845 112.514 116.339 117.204C111.841 121.887 111.753 128.458 111.753 128.458C110.084 123.666 104.619 121.855 104.619 121.855C104.619 121.855 109.168 125.988 112.499 135.208C115.831 144.433 106.695 153.576 98.5449 153.595C90.3943 153.614 92.1825 162.335 92.3143 166.621C92.3331 167.248 92.446 167.748 92.6155 168.138C92.766 168.291 92.9355 168.375 93.1174 168.362C94.5104 168.279 95.6398 165.7 99.7747 166.762C103.916 167.818 102.404 171.849 99.6241 174.165C98.2123 175.342 94.1527 177.415 90.5825 176.903C85.3872 176.5 84.446 170.934 82.7707 162.668L82.708 162.309C81.8421 164.35 81.1331 166.583 81.1331 166.583C79.5958 156.065 82.5888 149.558 86.1778 147.191C89.0892 145.271 90.4445 146.903 90.8523 147.588C99.6178 146.282 67.3793 118.989 55.5079 114.171C50.0051 111.932 45.4812 118.31 58.6703 129.129C62.7487 132.469 52.2702 118.381 63.1816 121.708C71.5832 124.28 70.366 134.728 64.0726 136.295C49.3463 139.948 36.6592 115.643 44.2577 108.803C57.6852 96.7174 82.1307 126.199 87.2256 123.211C95.8719 118.157 97.0578 106.73 97.2084 101.1C94.5355 101.1 91.3543 101.106 91.0845 101.087C89.1582 100.94 87.2382 100.755 85.3872 100.147C83.2225 99.4365 81.177 98.2465 79.6648 96.4807C78.0711 94.6189 77.0484 92.258 76.5903 89.8332C76.3456 88.5664 76.2389 87.2868 76.2327 86.0008C76.2327 85.3994 76.4272 84.7852 76.3644 84.1902C76.3017 83.608 75.8687 83.1985 75.4546 82.8466C73.5597 81.2151 71.144 80.473 68.8036 79.8076C66.4319 79.1358 63.9471 78.8415 61.544 78.2849C59.1283 77.7283 56.8444 76.8197 54.6546 75.6361C50.3753 73.32 46.9934 69.1934 45.9016 64.3181C45.7259 63.5248 45.569 62.7314 45.4436 61.9317C46.1902 64.4205 47.2632 66.6278 48.9887 68.5664C50.5322 70.3002 52.6781 71.759 54.8052 72.6227C59.4734 74.5101 64.4052 75.2202 69.4123 75.3162C70.046 75.3226 70.686 75.3098 71.326 75.2842ZM95.8594 102.975C95.8531 103.141 95.6523 103.282 95.5519 103.416C95.3888 103.621 95.2382 103.832 95.0939 104.049C94.7927 104.485 94.5794 104.932 94.4288 105.444C94.1778 106.263 94.6923 107.517 93.9708 108.125C93.6507 108.394 93.1927 108.458 92.7849 108.432C92.628 108.426 92.3206 108.406 92.1825 108.317C92.0257 108.221 91.9002 107.901 91.8311 107.735C91.4798 106.839 91.9064 105.975 92.5213 105.323C93.4186 104.369 94.6861 103.518 95.8594 102.975ZM92.2515 102.482C92.2453 102.68 91.9943 102.859 91.8688 103.019C91.668 103.275 91.486 103.538 91.3041 103.8C90.9339 104.337 90.6766 104.894 90.4821 105.521C90.1747 106.532 90.8084 108.074 89.9237 108.829C89.5284 109.155 88.9637 109.238 88.4617 109.206C88.2672 109.193 87.8907 109.168 87.715 109.065C87.5268 108.944 87.37 108.554 87.2884 108.342C86.8492 107.236 87.3762 106.174 88.1354 105.367C89.2398 104.197 90.8021 103.147 92.2515 102.482ZM45.613 91.0296C45.6255 90.9976 46.6608 91.6886 46.8428 91.791C47.3887 92.1109 47.9471 92.386 48.5244 92.6291C49.6977 93.1217 50.9212 93.4416 52.1636 93.6784C54.4977 94.1198 56.9699 94.1774 59.3228 93.9535C61.7385 93.7295 64.173 93.0578 66.6013 93.4096C69.0797 93.7743 71.4452 94.702 73.5785 96.0392C73.9236 96.2631 74.275 96.4807 74.6201 96.711C73.5032 96.4551 72.3738 96.2951 71.2319 96.3719C69.9644 96.4679 68.7785 96.8006 67.5675 97.1844C65.2711 97.9074 63.0185 98.5664 60.6216 98.8223C55.5644 99.3469 51.0279 96.6598 47.5455 93.1281C46.8804 92.45 46.2341 91.7462 45.613 91.0296ZM62.3346 79.9035C64.7001 80.2362 67.1032 80.6201 69.3495 81.4839C70.573 81.9573 71.6962 82.5203 72.8319 83.1857C73.3276 83.4736 73.7919 83.8319 74.2311 84.1966C74.3817 84.3245 74.7958 84.5741 74.8711 84.766C74.9652 85.0155 74.8334 85.5338 74.8209 85.8089C74.6076 90.6393 75.9189 95.9432 79.9974 98.8159C80.5558 99.2126 81.1707 99.4941 81.7982 99.7372C76.7785 99.0974 73.6413 94.926 71.9095 90.377C71.0499 88.1249 70.0146 86.0008 68.4836 84.1454C66.9589 82.3092 64.9824 80.908 62.7801 80.0763C62.6295 80.0187 62.4789 79.9611 62.3346 79.9035ZM87.2194 102.13C87.2194 102.335 86.9684 102.514 86.8429 102.667C86.6421 102.923 86.4601 103.186 86.2782 103.454C85.908 103.992 85.6507 104.542 85.4562 105.169C85.1488 106.18 85.7825 107.728 84.8978 108.477C84.5025 108.81 83.9378 108.886 83.4358 108.854C83.2413 108.842 82.8648 108.822 82.6892 108.714C82.4946 108.592 82.3441 108.202 82.2625 107.997C81.8233 106.89 82.3503 105.828 83.1096 105.022C84.2139 103.845 85.7762 102.802 87.2194 102.13ZM85.2241 101.452C84.3519 102.258 83.3856 102.962 82.5197 103.774C82.068 104.203 81.6162 104.651 81.2711 105.175C80.9323 105.687 80.8444 106.225 80.5746 106.756C80.0288 107.811 79.1942 108.534 78.0084 108.56C76.7284 108.592 76.3958 107.434 76.9229 106.41C77.6946 104.932 79.1001 103.992 80.5433 103.282C82.068 102.54 83.5927 101.913 85.2241 101.452ZM82.5825 100.659C81.4844 101.279 80.3927 101.913 79.3135 102.578C78.297 103.205 77.224 103.858 76.3644 104.702C75.5425 105.508 74.6954 106.378 73.5472 106.673C72.4617 106.954 71.2005 106.775 70.824 105.534C70.5103 104.485 71.6962 103.544 72.4366 103.083C73.428 102.469 74.6013 102.111 75.7119 101.797C77.9707 101.164 80.2546 100.818 82.5825 100.659ZM54.962 100.185C57.0765 101.068 59.4734 100.87 61.7134 100.575C64.1793 100.255 66.5071 99.2958 68.9354 98.7839C71.9848 98.1377 75.1221 98.3745 78.0272 99.5133C75.6993 99.8908 73.5848 100.742 71.3825 101.573C69.1048 102.444 66.777 103.525 64.3236 103.723C60.7785 104.011 57.5534 102.61 54.962 100.185ZM43.762 82.5203C44.6467 83.1601 45.5063 83.9087 46.4977 84.4461C47.5267 85.0027 48.5934 85.4378 49.6977 85.8025C52.1134 86.5958 54.6357 86.9605 57.1581 87.1908C59.5801 87.4147 62.0083 87.1077 64.3738 87.8306C66.733 88.5536 68.7848 90.1019 70.6923 91.6438C71.1566 92.0213 71.6021 92.4116 72.0601 92.8018C69.6946 91.9061 67.2789 91.4199 64.7628 91.2791C63.6209 91.2088 62.4162 91.2727 61.2805 91.4071C60.6405 91.4903 59.9879 91.5478 59.3542 91.6694C58.7581 91.791 58.1871 91.9765 57.5785 92.0597C55.2381 92.3604 52.722 91.695 50.6263 90.6393C48.4177 89.5197 46.6294 87.6195 45.2679 85.5402C44.6467 84.5933 44.151 83.5952 43.762 82.5203ZM41.9675 69.8076C42.2435 69.8716 42.6828 70.7929 42.8773 71.0616C43.2412 71.5542 43.6177 72.0213 44.0255 72.4883C44.8161 73.3904 45.7071 74.2158 46.6608 74.9451C48.6247 76.4614 50.8961 77.4915 53.2365 78.2273C54.4161 78.6048 55.6334 78.9631 56.8632 79.1166C58.0491 79.2702 59.1471 79.5709 60.2389 80.0763C62.504 81.132 64.5118 82.9042 66.2185 84.7276C67.3605 85.9496 68.3142 87.3188 69.2868 88.6752C69.0232 88.7775 68.2954 88.1057 68.0507 87.9522C67.5424 87.6323 67.0091 87.37 66.4758 87.1012C65.4468 86.583 64.3236 86.2055 63.2193 85.9048C60.9416 85.2714 58.5448 85.3098 56.2734 84.67C53.8138 83.9791 51.5424 83.0066 49.4216 81.5478C47.42 80.1787 45.7761 78.2721 44.4961 76.2055C43.2788 74.2542 42.5196 72.0341 41.9675 69.8076ZM139.122 145.483C135.866 148.304 137.246 150.748 136.5 151.957C136.399 152.117 136.236 152.207 136.029 152.245C135.621 152.156 135.163 151.957 134.655 151.605C131.179 149.213 123.223 145.611 127.972 138.816C132.71 132.028 130.796 119.091 121.547 116.481C120.87 116.289 120.217 116.122 119.577 115.975C118.147 117.28 112.706 122.815 113.177 130.876C113.309 133.147 113.585 134.67 113.874 135.758C118.134 136.244 119.778 139.609 118.717 141.708C117.933 141.65 115.856 141.823 115.674 145.367C115.455 149.731 118.862 156.02 128.098 160.883C128.098 160.883 126.736 158.995 125.626 157.076L125.952 157.236C133.481 160.671 138.438 163.135 141.789 159.053C144.28 156.378 145.008 151.791 144.901 149.929C144.681 146.27 142.379 142.661 139.122 145.483ZM128.681 94.3437C129.648 93.3457 130.633 92.1365 131.612 90.6841C137.064 82.5715 139.687 84.9899 139.687 84.9899C139.687 84.9899 139.649 82.5971 137.309 83.2113C137.309 83.2113 140.308 79.5261 143.364 80.249C143.364 80.249 142.868 77.5427 140.509 78.0481C141.808 74.9131 142.774 67.9586 143.213 67.2612C143.621 66.615 148.114 66.647 148.923 66.052C149.739 65.457 144.399 63.3072 145.321 63.5696C148.885 64.5868 151.477 64.3885 147.38 61.0168C146.89 60.6201 144.493 60.0315 144.581 59.4621C144.631 59.0974 147.731 59.9483 147.712 59.6028C147.681 59.091 147.562 58.5983 147.317 58.1505C146.049 55.7705 140.44 53.2305 138.52 55.2138C131.781 62.2004 138.231 72.8914 133.23 71.4199C132.434 73.8191 130.94 76.1096 128.644 78.7903C128.681 77.6579 128.456 76.9925 128.456 76.9925C127.684 78.4256 126.899 79.6732 126.109 80.7673C127.15 82.7378 129.347 87.7922 128.681 94.3437ZM86.3284 71.2855C129.102 97.3508 103.483 65.8536 116.365 73.1025C116.365 73.1025 116.898 70.6841 111.489 67.1204C106.081 63.5504 105.121 61.1447 109.538 57.0564C112.267 54.5356 114.626 57.7666 117.149 57.0181C118.711 56.5574 121.07 52.13 121.403 51.2279C122.275 48.8671 111.759 43.6399 108.233 45.764C108.233 45.764 107.875 43.6399 105.579 44.1774C103.282 44.7148 99.9692 47.7794 97.3653 47.1396C97.3653 47.1396 99.5049 49.2381 98.3755 52.4883C98.3755 52.4883 98.1119 49.2445 95.3574 47.3443C92.6092 45.4442 91.599 41.3687 91.599 41.3687C91.599 41.3687 87.5645 46.7877 91.7747 53.7679C91.7747 53.7679 84.7221 59.6924 86.3284 71.2855Z" fill="#1D65C0"/>
</g>
<defs>
<linearGradient id="paint0_linear_2767_150101" x1="44.236" y1="189.815" x2="163.334" y2="19.9238" gradientUnits="userSpaceOnUse">
<stop stop-color="#8E6C1A"/>
<stop offset="0.53" stop-color="#653F1C"/>
<stop offset="0.92" stop-color="#FECB07"/>
<stop offset="1" stop-color="#B78A11"/>
</linearGradient>
<linearGradient id="paint1_linear_2767_150101" x1="45.6628" y1="184.29" x2="165.24" y2="30.0154" gradientUnits="userSpaceOnUse">
<stop stop-color="#E7C160"/>
<stop offset="0.43" stop-color="#CD8C16"/>
<stop offset="0.69" stop-color="#F8B52B"/>
<stop offset="0.91" stop-color="#FBF8D8"/>
<stop offset="1" stop-color="#FEF8CB"/>
</linearGradient>
<linearGradient id="paint2_linear_2767_150101" x1="21.7347" y1="105.843" x2="181.777" y2="105.843" gradientUnits="userSpaceOnUse">
<stop stop-color="#FBEB0C"/>
<stop offset="0.09" stop-color="#F9FCFD"/>
<stop offset="0.2" stop-color="#FCEE5E"/>
<stop offset="0.56" stop-color="#653E1C"/>
<stop offset="0.73" stop-color="#FBEF4A"/>
<stop offset="1" stop-color="#FAF49C"/>
</linearGradient>
<linearGradient id="paint3_linear_2767_150101" x1="108.712" y1="177.149" x2="108.712" y2="36.8596" gradientUnits="userSpaceOnUse">
<stop stop-color="#A4C8E9"/>
<stop offset="1" stop-color="white"/>
</linearGradient>
<clipPath id="clip0_2767_150101">
<rect width="686.714" height="209" fill="white"/>
</clipPath>
</defs>
</svg>
