<svg width="138mm" height="45mm" viewBox="0 0 138 45" fill="none" xmlns="http://www.w3.org/2000/svg">
    <path fill-rule="evenodd" clip-rule="evenodd" d="M12.3432 15.6666C15.7411 15.6666 18.8132 17.0542 21.0212 19.2913L21.2131 19.4777C20.19 20.2558 18.8652 20.9725 17.4023 21.6608C11.5084 25.4385 19.2157 36.6601 23.3942 38.9864C24.2021 39.5141 25.5175 39.7721 27.0398 39.9203H23.2795C22.0574 39.3054 20.9468 38.3227 19.9097 37.0073C19.1634 35.8941 19.8072 37.955 20.0726 38.7592C20.224 39.2182 20.224 39.3888 19.975 39.6353C19.8879 39.7288 19.8149 39.8235 19.7617 39.9203H12.3432C5.62112 39.9203 0.171875 34.4909 0.171875 27.7934C0.171875 21.096 5.62112 15.6666 12.3432 15.6666ZM39.674 37.5102L42.1413 39.9203H38.0243L38.0479 38.5321C38.0451 37.9205 37.2956 38.2169 36.5852 38.0409C35.3885 37.7441 34.3655 37.2097 33.4565 36.5205C35.8296 36.876 37.7204 37.9923 39.674 37.5102Z" fill="#4777FF"/>
    <path fill-rule="evenodd" clip-rule="evenodd" d="M41.5579 0C52.6318 0 61.6088 8.94419 61.6088 19.9776C61.6088 31.0109 52.6318 39.9552 41.5579 39.9552L41.5526 39.955L38.021 39.949L38.0449 38.5322C38.0421 37.9205 37.2926 38.217 36.5822 38.041C35.3855 37.7442 34.3625 37.2098 33.4535 36.5205C37.0309 37.0563 39.5122 39.3227 42.7645 35.2334C43.6461 34.1248 44.0743 32.7829 43.9716 31.1672C43.7419 29.9861 43.1055 29.5685 42.3108 29.4477C39.6025 27.1251 37.9308 24.773 36.7424 22.407C36.5217 21.6619 36.0188 21.2918 35.277 21.2389C33.9501 21.3184 32.4899 20.4675 30.946 19.0328C29.258 17.9101 33.363 24.1514 32.0207 26.3653C31.0885 24.9365 30.1413 23.1803 29.1224 19.8438C31.7482 17.4973 32.6394 15.5072 33.1605 11.9923C33.2344 11.0985 33.1419 10.1717 32.3463 9.10466C32.8306 6.81344 32.6844 5.82557 31.2084 4.70574C30.6855 4.30912 30.1705 4.06704 29.6328 3.91659C32.9655 1.45562 37.0911 0 41.5579 0ZM27.139 39.9301L23.2827 39.9234C22.6641 39.613 22.0741 39.2083 21.5078 38.7141V37.5603C22.1726 38.1758 22.8154 38.6659 23.3912 38.9864C24.2171 39.5259 25.5735 39.7835 27.139 39.9301ZM21.5232 19.2299C21.5998 17.1552 21.9945 15.1616 22.6592 13.2953C22.8942 14.0495 23.0815 14.9319 23.098 16.0803C23.337 16.2533 23.5757 16.4264 23.8143 16.5995C25.3776 17.6485 26.9405 18.6974 28.5038 19.7466C28.563 20.272 28.3576 20.5947 27.8526 20.6875C29.0237 21.5914 28.8802 22.3798 28.5689 23.1533C26.8176 21.9387 25.2051 19.6171 23.5866 17.3456C23.4446 17.1414 23.1887 17.0816 23.0329 17.4106C22.7349 18.0589 22.2113 18.6611 21.5232 19.2299Z" fill="#4777FF"/>
    <path fill-rule="evenodd" clip-rule="evenodd" d="M22.0572 5.78918C22.3186 5.78918 22.5785 5.79547 22.8369 5.80786C22.6648 6.08262 22.5036 6.38891 22.3542 6.73006C20.9114 10.022 21.9835 11.1288 22.6596 13.2953C21.9949 15.1617 21.6002 17.1552 21.5236 19.23C21.4228 19.3132 21.3182 19.3961 21.2106 19.4778L21.0186 19.2914C18.8106 17.0543 15.7385 15.6667 12.3406 15.6667C10.3281 15.6667 8.43002 16.1536 6.75781 17.0152C8.78102 10.5123 14.8654 5.78918 22.0572 5.78918Z" fill="#4777FF"/>
    <path d="M83.7425 10.6156C83.7425 12.1593 83.4448 13.45 82.8494 14.4875C82.2601 15.5187 81.4045 16.2968 80.2826 16.8219C79.1606 17.3406 77.8098 17.6 76.2302 17.6H72.3376V3.89372H76.6533C78.0949 3.89372 79.3454 4.14997 80.4048 4.66247C81.4641 5.16872 82.2852 5.92184 82.8681 6.92184C83.4511 7.9156 83.7425 9.14685 83.7425 10.6156ZM80.715 10.6906C80.715 9.6781 80.5647 8.84685 80.2638 8.19685C79.9692 7.5406 79.5303 7.05623 78.9475 6.74372C78.3708 6.43122 77.6562 6.27498 76.8037 6.27498H75.2523V15.2H76.5028C77.9257 15.2 78.982 14.8218 79.6713 14.0656C80.3671 13.3093 80.715 12.1843 80.715 10.6906ZM94.5081 17.6H86.5914V3.89372H94.5081V6.27498H89.5061V9.28434H94.1602V11.6656H89.5061V15.2H94.5081V17.6ZM97.3853 17.6V3.89372H100.3V15.2H105.875V17.6H97.3853ZM120.75 10.7281C120.75 11.7843 120.618 12.7469 120.355 13.6156C120.092 14.4781 119.691 15.2218 119.152 15.8469C118.619 16.4718 117.942 16.9531 117.121 17.2905C116.299 17.6219 115.328 17.7875 114.206 17.7875C113.084 17.7875 112.112 17.6219 111.291 17.2905C110.47 16.9531 109.79 16.4718 109.251 15.8469C108.718 15.2218 108.32 14.475 108.057 13.6062C107.793 12.7375 107.662 11.7718 107.662 10.7093C107.662 9.2906 107.894 8.05623 108.358 7.00623C108.828 5.94997 109.549 5.13122 110.52 4.54997C111.492 3.96872 112.727 3.6781 114.225 3.6781C115.716 3.6781 116.942 3.96872 117.901 4.54997C118.866 5.13122 119.581 5.94997 120.045 7.00623C120.515 8.06247 120.75 9.30309 120.75 10.7281ZM110.718 10.7281C110.718 11.6843 110.837 12.5093 111.075 13.2031C111.319 13.8906 111.699 14.4218 112.213 14.7969C112.727 15.1656 113.391 15.35 114.206 15.35C115.033 15.35 115.704 15.1656 116.218 14.7969C116.732 14.4218 117.105 13.8906 117.337 13.2031C117.575 12.5093 117.694 11.6843 117.694 10.7281C117.694 9.2906 117.425 8.15935 116.885 7.33434C116.346 6.50935 115.46 6.09685 114.225 6.09685C113.404 6.09685 112.733 6.28434 112.213 6.65935C111.699 7.0281 111.319 7.55935 111.075 8.25309C110.837 8.9406 110.718 9.7656 110.718 10.7281ZM78.1765 25.3157C77.6185 25.3157 77.1233 25.4249 76.6909 25.6437C76.2647 25.8563 75.9043 26.1656 75.6097 26.5718C75.3213 26.9781 75.1019 27.4688 74.9514 28.0437C74.8011 28.6187 74.7258 29.2656 74.7258 29.9843C74.7258 30.9531 74.8449 31.7813 75.0832 32.4688C75.3276 33.1501 75.7037 33.6718 76.2114 34.0344C76.7191 34.3905 77.3741 34.5688 78.1765 34.5688C78.7344 34.5688 79.2922 34.5062 79.8501 34.3813C80.4141 34.2563 81.0254 34.0781 81.6834 33.8469V36.2843C81.0754 36.5344 80.4769 36.7125 79.8877 36.8187C79.2984 36.9312 78.6372 36.9875 77.9038 36.9875C76.4872 36.9875 75.3213 36.6968 74.4062 36.1157C73.4973 35.5281 72.8235 34.7094 72.3846 33.6593C71.9459 32.6032 71.7266 31.3718 71.7266 29.9656C71.7266 28.9281 71.8676 27.9781 72.1495 27.1157C72.4316 26.2531 72.8453 25.5062 73.3907 24.875C73.936 24.2437 74.6098 23.7563 75.4121 23.4125C76.2144 23.0688 77.136 22.8968 78.1765 22.8968C78.8597 22.8968 79.543 22.9843 80.2261 23.1593C80.9156 23.3281 81.5738 23.5625 82.2006 23.8625L81.2604 26.2249C80.7465 25.9813 80.2293 25.7688 79.7091 25.5875C79.1888 25.4062 78.6779 25.3157 78.1765 25.3157ZM84.617 36.8V23.0937H87.5317V34.4H93.1073V36.8H84.617ZM107.982 29.9281C107.982 30.9843 107.85 31.9469 107.587 32.8157C107.323 33.6781 106.922 34.4219 106.383 35.0469C105.85 35.6718 105.173 36.1531 104.352 36.4905C103.531 36.8219 102.56 36.9875 101.438 36.9875C100.316 36.9875 99.3441 36.8219 98.523 36.4905C97.7019 36.1531 97.0216 35.6718 96.4826 35.0469C95.9499 34.4219 95.5518 33.675 95.2886 32.8062C95.0253 31.9374 94.8937 30.9718 94.8937 29.9094C94.8937 28.4905 95.1256 27.2563 95.5895 26.2062C96.0595 25.1501 96.7803 24.3312 97.7519 23.7501C98.7235 23.1688 99.9583 22.8781 101.456 22.8781C102.948 22.8781 104.174 23.1688 105.133 23.7501C106.098 24.3312 106.813 25.1501 107.276 26.2062C107.746 27.2625 107.982 28.5032 107.982 29.9281ZM97.9495 29.9281C97.9495 30.8843 98.0685 31.7094 98.3066 32.4032C98.5512 33.0905 98.9304 33.6219 99.4443 33.9968C99.9583 34.3656 100.623 34.5501 101.438 34.5501C102.265 34.5501 102.936 34.3656 103.45 33.9968C103.964 33.6219 104.337 33.0905 104.569 32.4032C104.807 31.7094 104.926 30.8843 104.926 29.9281C104.926 28.4905 104.656 27.3593 104.117 26.5344C103.578 25.7094 102.691 25.2968 101.456 25.2968C100.635 25.2968 99.9646 25.4843 99.4443 25.8593C98.9304 26.2281 98.5512 26.7593 98.3066 27.4531C98.0685 28.1406 97.9495 28.9656 97.9495 29.9281ZM122.019 23.0937V31.9625C122.019 32.9062 121.809 33.7593 121.389 34.5219C120.976 35.2781 120.346 35.8781 119.499 36.3219C118.659 36.7656 117.6 36.9875 116.321 36.9875C114.504 36.9875 113.118 36.5249 112.166 35.6C111.213 34.675 110.736 33.4499 110.736 31.9249V23.0937H113.642V31.4843C113.642 32.6157 113.874 33.4094 114.338 33.8656C114.801 34.3219 115.488 34.5501 116.397 34.5501C117.036 34.5501 117.553 34.4406 117.948 34.2219C118.349 34.0032 118.644 33.6656 118.832 33.2094C119.02 32.7531 119.114 32.1718 119.114 31.4656V23.0937H122.019ZM136.79 29.8157C136.79 31.3593 136.492 32.6499 135.897 33.6875C135.308 34.7187 134.452 35.4968 133.33 36.0219C132.208 36.5406 130.857 36.8 129.278 36.8H125.385V23.0937H129.701C131.142 23.0937 132.393 23.3501 133.452 23.8625C134.512 24.3688 135.333 25.1219 135.916 26.1219C136.499 27.1157 136.79 28.3469 136.79 29.8157ZM133.763 29.8905C133.763 28.8781 133.612 28.0469 133.311 27.3968C133.017 26.7406 132.578 26.2563 131.995 25.9437C131.418 25.6312 130.704 25.475 129.851 25.475H128.3V34.4H129.55C130.973 34.4 132.029 34.0219 132.719 33.2656C133.415 32.5094 133.763 31.3843 133.763 29.8905Z" fill="#4777FF"/>
</svg>
