<svg width="33" height="33" viewBox="0 0 33 33" fill="none" xmlns="http://www.w3.org/2000/svg">
<path fill-rule="evenodd" clip-rule="evenodd" d="M16.6886 0.467285C25.5434 0.467285 32.7215 7.6454 32.7215 16.5001C32.7215 25.3548 25.5434 32.5329 16.6886 32.5329C7.83386 32.5329 0.655762 25.3548 0.655762 16.5001C0.655762 7.6454 7.83386 0.467285 16.6886 0.467285Z" fill="url(#paint0_linear_5428_9157)"/>
<path fill-rule="evenodd" clip-rule="evenodd" d="M16.6886 0.990723C25.2543 0.990723 32.1981 7.93453 32.1981 16.5002C32.1981 25.0659 25.2543 32.0097 16.6886 32.0097C8.12299 32.0097 1.1792 25.0659 1.1792 16.5002C1.1792 7.93453 8.12299 0.990723 16.6886 0.990723Z" fill="url(#paint1_linear_5428_9157)"/>
<path fill-rule="evenodd" clip-rule="evenodd" d="M16.6884 3.74658C23.732 3.74658 29.4419 9.45648 29.4419 16.5C29.4419 23.5435 23.732 29.2534 16.6884 29.2534C9.64495 29.2534 3.93506 23.5435 3.93506 16.5C3.93506 9.45648 9.64495 3.74658 16.6884 3.74658Z" fill="url(#paint2_linear_5428_9157)"/>
<path fill-rule="evenodd" clip-rule="evenodd" d="M16.6887 4.24756C23.4558 4.24756 28.9415 9.73326 28.9415 16.5003C28.9415 23.2673 23.4558 28.753 16.6887 28.753C9.92173 28.753 4.43604 23.2673 4.43604 16.5003C4.43604 9.73326 9.92173 4.24756 16.6887 4.24756Z" fill="url(#paint3_linear_5428_9157)"/>
<path fill-rule="evenodd" clip-rule="evenodd" d="M16.5731 6.97954C16.2914 6.82244 16.2072 6.44224 16.2072 6.44224C16.0168 6.77674 16.1765 7.17734 16.1765 7.17734C16.3984 7.16404 16.5731 6.97954 16.5731 6.97954ZM15.6935 14.9731C15.3995 14.973 15.1469 14.9726 15.117 14.9703C14.8102 14.9476 14.5044 14.9185 14.2095 14.8236C14.0936 14.7862 13.9797 14.7403 13.8704 14.6853C14.3839 15.2183 15.1763 15.2078 16.0313 15.2237C15.9192 15.157 15.8059 15.0724 15.6935 14.9731ZM11.8368 11.7239C11.7468 11.6956 11.6563 11.6699 11.5665 11.6449C11.1885 11.5401 10.7927 11.4934 10.41 11.4067C10.0245 11.3196 9.6605 11.1779 9.3114 10.9927C8.6289 10.6312 8.0908 9.98574 7.9164 9.22374C7.8879 9.09964 7.8631 8.97594 7.843 8.85044C7.9625 9.23974 8.1337 9.58474 8.4083 9.88764C8.6542 10.1587 8.9961 10.387 9.3355 10.5216C10.0797 10.817 10.8654 10.9279 11.6629 10.9423C12.043 10.949 12.4242 10.8979 12.8038 10.9198C13.1679 10.9409 13.5764 10.9915 13.854 11.2552C14.1254 11.5134 14.1418 11.9655 13.8539 12.2154C13.9905 12.4753 13.9521 12.8114 13.7119 13.0106C13.6667 13.048 13.6214 13.0828 13.5745 13.1156L13.5821 13.1409C13.8607 14.0488 14.448 14.3106 15.167 14.3931C14.4999 13.5073 13.9918 12.2153 14.1435 11.2888C14.2649 11.3471 17.6137 13.7091 18.7379 12.9394C18.9582 12.7885 18.5234 11.5063 18.9158 11.6307C19.1132 11.6932 19.4571 11.8606 19.2129 11.2343C19.2129 11.2343 21.1213 12.9598 20.6946 14.9491C20.6946 14.9491 19.6903 14.9098 18.9746 14.1073C18.9746 14.1073 19.0096 14.2555 19.1544 14.4477C19.4899 14.852 20.2418 15.3754 21.833 15.1606C21.833 15.1606 21.771 15.2519 21.6266 15.3529C22.1797 15.3978 22.6076 15.3772 22.9828 15.2554C23.3436 15.1064 24.0498 14.7284 24.255 13.9905C24.255 13.9905 24.3077 14.1425 24.309 14.3213C24.413 14.2244 24.7581 13.9315 25.1374 13.9285C25.3166 13.9268 25.4722 13.9876 25.585 14.0884L25.5959 14.0988L25.6313 14.1346C25.7219 14.2317 26.008 14.8262 26.0164 14.9693C26.0273 15.1531 25.3186 14.7167 25.2971 14.9079C25.2829 15.0333 25.7967 15.1087 25.9425 15.2256C26.3954 15.5887 25.5317 15.6984 24.9233 15.6387C24.8718 15.7966 25.8801 15.6989 25.8648 15.8558C25.7573 16.9596 24.2344 15.8624 22.8462 16.8092C23.1336 17.0656 22.8428 17.3813 22.8428 17.3813C22.6425 16.921 21.8975 16.8785 21.8975 16.8785C22.1965 17.1217 21.9007 17.3506 21.9007 17.3506C21.9007 17.3506 21.9539 16.7881 20.4232 16.8423C19.309 16.8817 18.697 16.5232 18.4455 16.3249C18.3177 17.1501 17.1468 17.5115 16.6214 17.6332C16.614 17.6437 16.6065 17.6512 16.5993 17.6551C18.1539 17.8978 18.6297 16.8441 18.6297 16.8441C19.1868 17.165 19.9799 17.0802 19.9799 17.0802C19.9799 17.0802 19.729 17.5427 19.0113 18.2754C18.294 19.0082 18.2804 20.0346 18.2804 20.0346C18.0135 19.2859 17.1432 19.0024 17.1432 19.0024C17.1432 19.0024 17.868 19.649 18.3987 21.0902C18.9295 22.5314 17.4738 23.9609 16.1751 23.9637C14.8761 23.9668 15.1611 25.3296 15.1822 25.9995C15.1853 26.0981 15.2027 26.1762 15.23 26.2369C15.2537 26.2604 15.2805 26.2735 15.3096 26.2717C15.5316 26.2586 15.7118 25.8561 16.3712 26.0217C17.0305 26.1873 16.7895 26.8169 16.3472 27.1791C16.1224 27.3631 15.4751 27.6873 14.9058 27.6071C14.0778 27.544 13.9279 26.6742 13.6611 25.3819L13.6506 25.3255C13.5126 25.6452 13.4005 25.9943 13.4005 25.9943C13.1545 24.3497 13.6324 23.3329 14.2044 22.963C14.6682 22.6632 14.8842 22.9175 14.9492 23.0246C16.3462 22.8208 11.2079 18.5553 9.3163 17.8017C8.4393 17.4523 7.7176 18.4493 9.8201 20.1396C10.4696 20.6617 8.8002 18.4596 10.5386 18.9803C11.8778 19.3816 11.6841 21.0153 10.6813 21.2596C8.334 21.8314 6.3121 18.0316 7.5227 16.9632C9.6632 15.0741 13.559 19.6818 14.3714 19.2154C15.7487 18.4246 15.9376 16.6393 15.9624 15.7592C15.5362 15.7592 15.0289 15.7598 14.9856 15.7565C14.6787 15.7339 14.373 15.7048 14.0782 15.6097C13.7335 15.4986 13.407 15.3124 13.1662 15.0371C12.9122 14.746 12.7487 14.3766 12.6758 13.9983C12.6373 13.8001 12.62 13.6001 12.6192 13.3985C12.6188 13.3046 12.6504 13.2087 12.6401 13.1156C12.6301 13.0247 12.5607 12.9612 12.4953 12.9061C12.193 12.6513 11.8077 12.5347 11.4351 12.4311C11.0571 12.3263 10.6613 12.2796 10.2785 12.1928C9.8931 12.1058 9.5291 11.964 9.18 11.7789C8.4975 11.4173 7.9594 10.7718 7.785 10.0098C7.7566 9.88584 7.7317 9.76204 7.7116 9.63654C7.8311 10.0259 8.0024 10.3709 8.2769 10.6738C8.5227 10.9448 8.8648 11.1731 9.2041 11.3078C9.9483 11.6031 10.734 11.714 11.5316 11.7284C11.6332 11.7302 11.735 11.7278 11.8368 11.7239ZM15.7468 16.0521C15.7461 16.0777 15.7139 16.1002 15.6975 16.1205C15.6718 16.1527 15.648 16.1859 15.6245 16.2195C15.577 16.2878 15.5432 16.3582 15.5185 16.4377C15.4787 16.566 15.5606 16.7617 15.4461 16.8571C15.3953 16.8992 15.3215 16.9091 15.2574 16.9051C15.2318 16.9034 15.1828 16.9009 15.1607 16.8872C15.1356 16.8719 15.1155 16.8222 15.105 16.7959C15.0486 16.6557 15.1167 16.5207 15.2147 16.4185C15.3575 16.2696 15.5595 16.1368 15.7468 16.0521ZM15.1715 15.9745C15.1707 16.0061 15.131 16.0339 15.1109 16.0589C15.0791 16.0985 15.0498 16.1394 15.0209 16.1808C14.9623 16.265 14.9208 16.3518 14.8904 16.4498C14.8414 16.6078 14.9422 16.849 14.8011 16.9664C14.7385 17.0183 14.6475 17.0307 14.5684 17.0256C14.5369 17.0235 14.4766 17.0204 14.4494 17.0035C14.4185 16.9846 14.3937 16.9234 14.3807 16.8911C14.3112 16.7182 14.3951 16.5521 14.5159 16.4261C14.6919 16.2424 14.9408 16.0789 15.1715 15.9745ZM7.7385 14.1847C7.741 14.1802 7.9055 14.2875 7.9347 14.3043C8.0216 14.3537 8.1112 14.397 8.2032 14.435C8.3903 14.5123 8.585 14.5617 8.7834 14.5986C9.1546 14.6674 9.5485 14.677 9.924 14.6423C10.3086 14.6065 10.6965 14.5021 11.0843 14.5572C11.479 14.6136 11.8562 14.7585 12.1956 14.9679C12.2513 15.0025 12.3066 15.0373 12.3615 15.0725C12.1843 15.0325 12.0043 15.0074 11.8218 15.0202C11.6196 15.0347 11.4306 15.0872 11.2378 15.1469C10.872 15.2603 10.5129 15.3629 10.1306 15.4024C9.3247 15.4849 8.6021 15.0645 8.0471 14.5124C7.9406 14.4066 7.838 14.2971 7.7385 14.1847ZM10.4037 12.4461C10.7809 12.4975 11.1635 12.5583 11.5216 12.6933C11.7167 12.767 11.8963 12.8546 12.0771 12.9585C12.1557 13.0037 12.2297 13.0596 12.2996 13.1168C12.324 13.1367 12.3898 13.1759 12.4017 13.2057C12.417 13.2445 12.3961 13.3261 12.3941 13.3687C12.3598 14.124 12.5694 14.9525 13.219 15.4018C13.3078 15.4634 13.4055 15.5076 13.5061 15.5457C12.7057 15.4454 12.2057 14.7942 11.9297 14.0832C11.7925 13.7307 11.6284 13.3993 11.3835 13.1086C11.141 12.8214 10.826 12.6026 10.4746 12.4725C10.451 12.4636 10.4271 12.4549 10.4037 12.4461ZM14.3703 15.9201C14.3696 15.9515 14.3299 15.9794 14.3097 16.0043C14.278 16.0439 14.2487 16.085 14.2198 16.1264C14.1612 16.2105 14.1196 16.2973 14.0892 16.3953C14.0402 16.5533 14.141 16.7945 13.9999 16.9119C13.9373 16.9639 13.8465 16.9761 13.7673 16.9711C13.7358 16.9689 13.6755 16.966 13.6483 16.949C13.6173 16.9301 13.5926 16.869 13.5796 16.8367C13.51 16.6638 13.594 16.4975 13.7148 16.3716C13.8907 16.188 14.1397 16.0245 14.3703 15.9201ZM14.0521 15.8134C13.9129 15.9402 13.7595 16.0502 13.6208 16.1772C13.5485 16.2438 13.477 16.3139 13.4218 16.3956C13.368 16.4754 13.3544 16.5602 13.3108 16.6426C13.2243 16.8074 13.0914 16.9208 12.9018 16.9247C12.698 16.9296 12.6446 16.7485 12.7292 16.5893C12.8521 16.3582 13.0759 16.2104 13.3061 16.1C13.5493 15.9838 13.7921 15.8859 14.0521 15.8134ZM13.6313 15.6897C13.4563 15.7869 13.2816 15.8854 13.1103 15.9895C12.9485 16.0879 12.777 16.1895 12.64 16.3215C12.5087 16.4482 12.3737 16.5842 12.1911 16.6301C12.0184 16.6734 11.8165 16.6455 11.757 16.4521C11.7065 16.2879 11.8962 16.1407 12.0142 16.0686C12.1723 15.9727 12.3587 15.9166 12.5362 15.8676C12.8956 15.7686 13.2597 15.7148 13.6313 15.6897ZM9.2292 15.6163C9.5658 15.7539 9.9476 15.7226 10.3048 15.6773C10.6983 15.6272 11.0694 15.4766 11.4562 15.3965C11.9421 15.2961 12.4422 15.3325 12.9047 15.5105C12.5342 15.5697 12.197 15.7029 11.8463 15.8331C11.4827 15.9685 11.1115 16.138 10.7207 16.1692C10.1559 16.2142 9.6422 15.9951 9.2292 15.6163ZM7.444 12.8548C7.5849 12.9553 7.722 13.0723 7.8802 13.1562C8.0436 13.243 8.2141 13.3111 8.3896 13.3678C8.7749 13.4922 9.1768 13.5485 9.5787 13.5848C9.965 13.6197 10.352 13.572 10.7287 13.6848C11.1053 13.7975 11.4316 14.0395 11.7358 14.281C11.8097 14.3397 11.8812 14.4014 11.9535 14.4623C11.5768 14.322 11.1921 14.2461 10.7913 14.2234C10.609 14.2131 10.417 14.2224 10.2357 14.2442C10.1335 14.2565 10.0303 14.2657 9.929 14.2853C9.834 14.3038 9.7427 14.3331 9.6461 14.3454C9.2729 14.3926 8.8722 14.2893 8.5382 14.1239C8.1856 13.9492 7.9012 13.6516 7.6843 13.327C7.5853 13.1787 7.5059 13.0224 7.444 12.8548ZM7.1582 10.8674C7.2017 10.8779 7.2717 11.0215 7.3029 11.0635C7.3607 11.141 7.4211 11.2143 7.4855 11.2866C7.6123 11.4283 7.7538 11.5566 7.9055 11.6711C8.2191 11.9075 8.5807 12.0685 8.9536 12.1841C9.1417 12.2424 9.3365 12.2986 9.5323 12.3233C9.7209 12.347 9.8964 12.3941 10.0696 12.4731C10.431 12.6375 10.751 12.9145 11.0227 13.2C11.2045 13.3909 11.3569 13.6048 11.5122 13.8173C11.4703 13.8328 11.3543 13.7283 11.3146 13.7039C11.2336 13.6542 11.1485 13.6134 11.0636 13.5713C10.9001 13.4898 10.7213 13.4308 10.5452 13.3834C10.1815 13.2853 9.8004 13.2908 9.4379 13.1911C9.0464 13.083 8.6842 12.9305 8.3459 12.7033C8.0274 12.4892 7.7653 12.1906 7.5605 11.8681C7.3666 11.5628 7.2461 11.2161 7.1582 10.8674ZM22.6418 22.6958C22.1229 23.1368 22.3427 23.5189 22.2241 23.7075C22.2083 23.7325 22.1824 23.7465 22.1493 23.7525C22.0841 23.7386 22.0112 23.7077 21.9297 23.6528C21.376 23.2788 20.1084 22.7157 20.8645 21.6543C21.6202 20.5931 21.3148 18.5711 19.8405 18.1628C19.733 18.1327 19.6289 18.107 19.5272 18.0834C19.2989 18.2882 18.4324 19.153 18.507 20.4125C18.5282 20.7682 18.572 21.0055 18.6178 21.176C19.2966 21.2515 19.559 21.7781 19.3898 22.1058C19.2653 22.0966 18.9336 22.1241 18.9052 22.6775C18.87 23.3598 19.4126 24.3434 20.8849 25.1031C20.8849 25.1031 20.6682 24.8078 20.4908 24.5084L20.5425 24.5329C21.7425 25.0699 22.533 25.4552 23.0673 24.8169C23.4643 24.3991 23.5802 23.6819 23.5627 23.3912C23.5284 22.8188 23.1605 22.2547 22.6418 22.6958ZM20.9784 14.7026C21.1317 14.5466 21.2889 14.3582 21.4451 14.1304C22.3143 12.8632 22.7319 13.2414 22.7319 13.2414C22.7319 13.2414 22.7256 12.8665 22.3529 12.9627C22.3529 12.9627 22.8306 12.3872 23.3182 12.4996C23.3182 12.4996 23.2389 12.0773 22.8629 12.1562C23.0703 11.6654 23.2244 10.5785 23.294 10.4698C23.3585 10.3691 24.0753 10.3738 24.2043 10.2809C24.3337 10.1875 23.4834 9.85224 23.6299 9.89314C24.1976 10.0518 24.6114 10.0205 23.958 9.49404C23.8803 9.43144 23.498 9.33984 23.5116 9.25104C23.5203 9.19374 24.0143 9.32724 24.0112 9.27314C24.0064 9.19264 23.9867 9.11584 23.9482 9.04554C23.7457 8.67424 22.8516 8.27654 22.5459 8.58724C21.4721 9.67854 22.4996 11.3502 21.7025 11.1198C21.5763 11.495 21.3377 11.8525 20.9722 12.272C20.9777 12.0953 20.9416 11.9909 20.9416 11.9909C20.8187 12.2144 20.6935 12.4096 20.5676 12.5804C20.7344 12.8892 21.0839 13.6784 20.9784 14.7026ZM14.228 11.099C21.0452 15.1732 16.9622 10.2496 19.0153 11.3826C19.0153 11.3826 19.1002 11.0049 18.2383 10.4474C17.3764 9.88974 17.2227 9.51404 17.9271 8.87524C18.3623 8.48064 18.7382 8.98564 19.1401 8.86924C19.3887 8.79714 19.7649 8.10484 19.818 7.96384C19.957 7.59504 18.2807 6.77814 17.719 7.11004C17.719 7.11004 17.6621 6.77774 17.2961 6.86174C16.9299 6.94584 16.4015 7.42504 15.9873 7.32524C15.9873 7.32524 16.3283 7.65314 16.1481 8.16094C16.1481 8.16094 16.1059 7.65394 15.6674 7.35694C15.2294 7.05994 15.0679 6.42334 15.0679 6.42334C15.0679 6.42334 14.4253 7.26974 15.0961 8.36064C15.0961 8.36064 13.9722 9.28704 14.228 11.099Z" fill="#1D65C0"/>
<defs>
<linearGradient id="paint0_linear_5428_9157" x1="7.52016" y1="29.6247" x2="26.0088" y2="2.7322" gradientUnits="userSpaceOnUse">
<stop stop-color="#8E6C1A"/>
<stop offset="0.529412" stop-color="#653F1C"/>
<stop offset="0.921569" stop-color="#FECB07"/>
<stop offset="1" stop-color="#B78A11"/>
</linearGradient>
<linearGradient id="paint1_linear_5428_9157" x1="7.7471" y1="28.7609" x2="26.3431" y2="4.29703" gradientUnits="userSpaceOnUse">
<stop stop-color="#E7C160"/>
<stop offset="0.431373" stop-color="#CD8C16"/>
<stop offset="0.690196" stop-color="#F8B52B"/>
<stop offset="0.909804" stop-color="#FBF8D8"/>
<stop offset="1" stop-color="#FEF8CB"/>
</linearGradient>
<linearGradient id="paint2_linear_5428_9157" x1="3.93516" y1="16.5" x2="29.4418" y2="16.5" gradientUnits="userSpaceOnUse">
<stop stop-color="#FBEB0C"/>
<stop offset="0.0901961" stop-color="#F9FCFD"/>
<stop offset="0.2" stop-color="#FCEE5E"/>
<stop offset="0.560784" stop-color="#653E1C"/>
<stop offset="0.729412" stop-color="#FBEF4A"/>
<stop offset="1" stop-color="#FAF49C"/>
</linearGradient>
<linearGradient id="paint3_linear_5428_9157" x1="17.7968" y1="27.645" x2="17.7968" y2="5.71776" gradientUnits="userSpaceOnUse">
<stop stop-color="#A4C8E9"/>
<stop offset="1" stop-color="white"/>
</linearGradient>
</defs>
</svg>
