<?xml version="1.0" ?><svg data-name="Layer 1" id="Layer_1" viewBox="0 0 32 32" xmlns="http://www.w3.org/2000/svg"><title/><path d="M28.66,17.11a.55.55,0,0,0,.08-.15,1.28,1.28,0,0,0,.11-.2l.06-.2a.84.84,0,0,0,.05-.17,2,2,0,0,0,0-.78.84.84,0,0,0-.05-.17l-.06-.2a1.28,1.28,0,0,0-.11-.2.55.55,0,0,0-.08-.15,1.79,1.79,0,0,0-.25-.31l-6-6a2,2,0,0,0-2.82,2.82L22.17,14H9.83l2.58-2.59A2,2,0,0,0,9.59,8.59l-6,6a1.79,1.79,0,0,0-.25.31.55.55,0,0,0-.08.15,1.28,1.28,0,0,0-.11.2l-.06.2a.84.84,0,0,0,0,.17,2,2,0,0,0,0,.78.84.84,0,0,0,0,.17l.06.2a1.28,1.28,0,0,0,.11.2.55.55,0,0,0,.08.15,1.79,1.79,0,0,0,.25.31l6,6a2,2,0,0,0,2.82-2.82L9.83,18H22.17l-2.58,2.59a2,2,0,1,0,2.82,2.82l6-6A1.79,1.79,0,0,0,28.66,17.11Z"/></svg>