<svg width="12" height="12" viewBox="0 0 12 12" fill="none" xmlns="http://www.w3.org/2000/svg">
<g clip-path="url(#clip0_538_58049)">
<path d="M5.972 1.63334e-05C4.38556 0.00741981 2.86662 0.642828 1.74745 1.76724C0.628279 2.89166 -1.72745e-05 4.41356 3.56218e-10 6.00002C3.5622e-10 7.59132 0.632141 9.11744 1.75736 10.2427C2.88258 11.3679 4.4087 12 6 12C7.5913 12 9.11742 11.3679 10.2426 10.2427C11.3679 9.11744 12 7.59132 12 6.00002C12 4.40872 11.3679 2.88259 10.2426 1.75738C9.11742 0.632157 7.5913 1.63334e-05 6 1.63334e-05C5.99067 -5.44445e-06 5.98133 -5.44445e-06 5.972 1.63334e-05ZM8.453 3.61202C8.503 3.61102 8.6135 3.62352 8.6855 3.68202C8.73334 3.72356 8.76386 3.78155 8.771 3.84452C8.779 3.89102 8.789 3.99752 8.781 4.08052C8.691 5.02952 8.3 7.33152 8.101 8.39402C8.017 8.84402 7.8515 8.99452 7.691 9.00902C7.343 9.04152 7.0785 8.77902 6.741 8.55802C6.213 8.21152 5.9145 7.99602 5.402 7.65802C4.8095 7.26802 5.1935 7.05302 5.531 6.70302C5.6195 6.61102 7.1545 5.21452 7.1845 5.08802C7.188 5.07202 7.1915 5.01302 7.1565 4.98202C7.1215 4.95102 7.0695 4.96152 7.032 4.97002C6.979 4.98202 6.1355 5.54002 4.5015 6.64252C4.2615 6.80752 4.045 6.88752 3.8505 6.88252C3.6365 6.87852 3.2245 6.76202 2.918 6.66252C2.542 6.54002 2.2435 6.47552 2.2695 6.26802C2.283 6.16002 2.432 6.04952 2.716 5.93652C4.465 5.17452 5.631 4.67202 6.215 4.42952C7.881 3.73652 8.2275 3.61602 8.453 3.61202Z" fill="#26A5E4"/>
</g>
<defs>
<clipPath id="clip0_538_58049">
<rect width="12" height="12" fill="white"/>
</clipPath>
</defs>
</svg>
