<svg xmlns="http://www.w3.org/2000/svg" width="55" height="48" viewBox="0 0 55 48" fill="none"> <path d="M37.1562 48H17.6174C14.8065 48 12.2314 46.5535 10.8161 44.1935L1.04672 27.8065C-0.348908 25.4465 -0.348908 22.5535 1.04672 20.1935L10.8161 3.8065C12.2314 1.4655 14.8065 0.0190325 17.5977 0H37.1169C39.9278 0 42.5225 1.44647 43.9378 3.8065L53.7072 20.1935C55.1028 22.5535 55.1028 25.4465 53.7072 27.8065L43.9378 44.1935C42.5422 46.5345 39.9475 47.981 37.1562 48ZM17.6174 5.91911C16.9884 5.91911 16.4183 6.24266 16.1038 6.77557L6.31474 23.1055C6.00023 23.6384 6.00023 24.2665 6.31474 24.7994L16.0842 41.1864C16.3987 41.7193 16.9687 42.0428 17.5977 42.0428H37.1169C37.7459 42.0428 38.316 41.7193 38.6305 41.1864L48.3999 24.7994C48.7144 24.2665 48.7144 23.6384 48.3999 23.1055L38.6305 6.71848C38.316 6.18557 37.7459 5.86201 37.1169 5.86201L17.6174 5.91911Z" fill="#ffffff"/> <path d="M38.356 25.5036H29.6088C28.8225 25.5036 28.1935 24.9136 28.1738 24.1523V22.7819C28.1738 22.0206 28.8028 21.4116 29.5891 21.4116H38.3364L38.356 25.5036Z" fill="#ffffff"/>           <path d="M33.1667 27.478L37.2946 29.5716C33.776 34.7484 26.6013 36.1759 21.2547 32.75C15.908 29.3242 14.4338 22.3963 17.972 17.2195C21.5102 12.0426 28.6653 10.6152 34.0119 14.0411C35.3879 14.9166 36.5476 16.0775 37.4322 17.4288L33.3043 19.5224C31.0831 16.4963 26.7586 15.773 23.6331 17.9237C20.5077 20.0744 19.7608 24.2615 21.982 27.2877C24.2032 30.3139 28.5277 31.0371 31.6531 28.8864C32.2232 28.5058 32.7342 28.03 33.1667 27.478Z" fill="#ffffff"/> </svg>