<svg width="33" height="33" viewBox="0 0 33 33" fill="none" xmlns="http://www.w3.org/2000/svg">
<path fill-rule="evenodd" clip-rule="evenodd" d="M16.0328 0C24.8876 0 32.0657 7.17811 32.0657 16.0328C32.0657 24.8875 24.8876 32.0656 16.0328 32.0656C7.1781 32.0656 0 24.8875 0 16.0328C0 7.17811 7.1781 0 16.0328 0Z" fill="url(#paint0_linear_1404_92040)"/>
<path fill-rule="evenodd" clip-rule="evenodd" d="M16.0328 0.523438C24.5985 0.523438 31.5423 7.46725 31.5423 16.0329C31.5423 24.5986 24.5985 31.5424 16.0328 31.5424C7.46723 31.5424 0.523438 24.5986 0.523438 16.0329C0.523438 7.46725 7.46723 0.523438 16.0328 0.523438Z" fill="url(#paint1_linear_1404_92040)"/>
<path fill-rule="evenodd" clip-rule="evenodd" d="M16.0346 3.2793C23.0782 3.2793 28.7881 8.9892 28.7881 16.0327C28.7881 23.0762 23.0782 28.7861 16.0346 28.7861C8.99114 28.7861 3.28125 23.0762 3.28125 16.0327C3.28125 8.9892 8.99114 3.2793 16.0346 3.2793Z" fill="url(#paint2_linear_1404_92040)"/>
<path fill-rule="evenodd" clip-rule="evenodd" d="M16.0339 3.78027C22.801 3.78027 28.2867 9.26597 28.2867 16.033C28.2867 22.8 22.801 28.2857 16.0339 28.2857C9.26694 28.2857 3.78125 22.8 3.78125 16.033C3.78125 9.26597 9.26694 3.78027 16.0339 3.78027Z" fill="url(#paint3_linear_1404_92040)"/>
<path fill-rule="evenodd" clip-rule="evenodd" d="M15.9188 6.51225C15.6371 6.35515 15.5529 5.97495 15.5529 5.97495C15.3625 6.30945 15.5222 6.71005 15.5222 6.71005C15.7441 6.69675 15.9188 6.51225 15.9188 6.51225ZM15.0392 14.5059C14.7452 14.5058 14.4926 14.5054 14.4627 14.5031C14.1559 14.4804 13.8501 14.4513 13.5552 14.3564C13.4393 14.319 13.3254 14.2731 13.2161 14.2181C13.7296 14.7511 14.522 14.7406 15.377 14.7565C15.2649 14.6898 15.1516 14.6052 15.0392 14.5059ZM11.1825 11.2567C11.0925 11.2284 11.002 11.2027 10.9122 11.1777C10.5342 11.0729 10.1384 11.0262 9.75571 10.9395C9.37021 10.8524 9.00621 10.7107 8.65711 10.5255C7.97461 10.164 7.43651 9.51846 7.26211 8.75646C7.23361 8.63236 7.20881 8.50865 7.18871 8.38315C7.30821 8.77245 7.47941 9.11745 7.75401 9.42035C7.99991 9.69145 8.34181 9.91975 8.68121 10.0544C9.42541 10.3498 10.2111 10.4607 11.0086 10.4751C11.3887 10.4818 11.7699 10.4307 12.1495 10.4526C12.5136 10.4737 12.9221 10.5243 13.1997 10.788C13.4711 11.0462 13.4875 11.4983 13.1996 11.7482C13.3362 12.0081 13.2978 12.3442 13.0576 12.5434C13.0124 12.5808 12.9671 12.6156 12.9202 12.6484L12.9278 12.6737C13.2064 13.5816 13.7937 13.8434 14.5127 13.9259C13.8456 13.0401 13.3375 11.7481 13.4892 10.8216C13.6106 10.8799 16.9594 13.2419 18.0836 12.4722C18.3039 12.3213 17.8691 11.0391 18.2615 11.1635C18.4589 11.226 18.8028 11.3934 18.5586 10.7671C18.5586 10.7671 20.467 12.4926 20.0403 14.4819C20.0403 14.4819 19.036 14.4426 18.3203 13.6401C18.3203 13.6401 18.3553 13.7883 18.5001 13.9805C18.8356 14.3848 19.5875 14.9082 21.1787 14.6934C21.1787 14.6934 21.1167 14.7847 20.9723 14.8857C21.5254 14.9306 21.9533 14.91 22.3285 14.7882C22.6893 14.6392 23.3955 14.2612 23.6007 13.5233C23.6007 13.5233 23.6534 13.6753 23.6547 13.8541C23.7587 13.7572 24.1038 13.4643 24.4831 13.4613C24.6623 13.4596 24.8179 13.5204 24.9307 13.6212L24.9416 13.6316L24.977 13.6674C25.0676 13.7645 25.3537 14.359 25.3621 14.5021C25.373 14.6859 24.6643 14.2495 24.6428 14.4407C24.6286 14.5661 25.1424 14.6415 25.2882 14.7584C25.7411 15.1215 24.8774 15.2312 24.269 15.1715C24.2175 15.3294 25.2258 15.2317 25.2105 15.3886C25.103 16.4924 23.5801 15.3952 22.1919 16.342C22.4793 16.5984 22.1885 16.9141 22.1885 16.9141C21.9882 16.4538 21.2432 16.4113 21.2432 16.4113C21.5422 16.6545 21.2464 16.8834 21.2464 16.8834C21.2464 16.8834 21.2996 16.3209 19.7689 16.3751C18.6547 16.4145 18.0427 16.056 17.7912 15.8577C17.6634 16.6829 16.4925 17.0443 15.9671 17.166C15.9597 17.1765 15.9522 17.184 15.945 17.1879C17.4996 17.4306 17.9754 16.3769 17.9754 16.3769C18.5325 16.6978 19.3256 16.613 19.3256 16.613C19.3256 16.613 19.0747 17.0755 18.357 17.8082C17.6397 18.541 17.6261 19.5674 17.6261 19.5674C17.3592 18.8187 16.4889 18.5352 16.4889 18.5352C16.4889 18.5352 17.2137 19.1818 17.7444 20.623C18.2752 22.0642 16.8195 23.4937 15.5208 23.4965C14.2218 23.4996 14.5068 24.8624 14.5279 25.5323C14.531 25.6309 14.5484 25.709 14.5757 25.7697C14.5994 25.7932 14.6262 25.8063 14.6553 25.8045C14.8773 25.7914 15.0575 25.3889 15.7169 25.5545C16.3762 25.7201 16.1352 26.3497 15.6929 26.7119C15.4681 26.8959 14.8208 27.2201 14.2515 27.1399C13.4235 27.0768 13.2736 26.207 13.0068 24.9147L12.9963 24.8583C12.8583 25.178 12.7462 25.5271 12.7462 25.5271C12.5002 23.8825 12.9781 22.8657 13.5501 22.4958C14.0139 22.196 14.2299 22.4503 14.2949 22.5574C15.6919 22.3536 10.5536 18.0881 8.66201 17.3345C7.78501 16.9851 7.06331 17.9821 9.16581 19.6724C9.81531 20.1945 8.14591 17.9924 9.88431 18.5131C11.2235 18.9144 11.0298 20.5481 10.027 20.7924C7.67971 21.3642 5.65781 17.5644 6.86841 16.496C9.00891 14.6069 12.9047 19.2146 13.7171 18.7482C15.0944 17.9574 15.2833 16.1721 15.3081 15.292C14.8819 15.292 14.3746 15.2926 14.3313 15.2893C14.0244 15.2667 13.7187 15.2376 13.4239 15.1425C13.0792 15.0314 12.7527 14.8452 12.5119 14.5699C12.2579 14.2788 12.0944 13.9094 12.0215 13.5311C11.983 13.3329 11.9657 13.1329 11.9649 12.9313C11.9645 12.8374 11.9961 12.7415 11.9858 12.6484C11.9758 12.5575 11.9064 12.494 11.841 12.4389C11.5387 12.1841 11.1534 12.0675 10.7808 11.9639C10.4028 11.8591 10.007 11.8124 9.62421 11.7256C9.23881 11.6386 8.87481 11.4968 8.52571 11.3117C7.84321 10.9501 7.30511 10.3046 7.13071 9.54255C7.10231 9.41855 7.07741 9.29476 7.05731 9.16926C7.17681 9.55866 7.34811 9.90366 7.62261 10.2066C7.86841 10.4776 8.21051 10.7059 8.54981 10.8406C9.29401 11.1359 10.0797 11.2468 10.8773 11.2612C10.9789 11.263 11.0807 11.2606 11.1825 11.2567ZM15.0925 15.5849C15.0918 15.6105 15.0596 15.633 15.0432 15.6533C15.0175 15.6855 14.9937 15.7187 14.9702 15.7523C14.9227 15.8206 14.8889 15.891 14.8642 15.9705C14.8244 16.0988 14.9063 16.2945 14.7918 16.3899C14.741 16.432 14.6672 16.4419 14.6031 16.4379C14.5775 16.4362 14.5285 16.4337 14.5064 16.42C14.4813 16.4047 14.4612 16.355 14.4507 16.3287C14.3943 16.1885 14.4624 16.0535 14.5604 15.9513C14.7032 15.8024 14.9052 15.6696 15.0925 15.5849ZM14.5172 15.5073C14.5164 15.5389 14.4767 15.5667 14.4566 15.5917C14.4248 15.6313 14.3955 15.6722 14.3666 15.7136C14.308 15.7978 14.2665 15.8846 14.2361 15.9826C14.1871 16.1406 14.2879 16.3818 14.1468 16.4992C14.0842 16.5511 13.9932 16.5635 13.9141 16.5584C13.8826 16.5563 13.8223 16.5532 13.7951 16.5363C13.7642 16.5174 13.7394 16.4562 13.7264 16.4239C13.6569 16.251 13.7408 16.0849 13.8616 15.9589C14.0376 15.7752 14.2865 15.6117 14.5172 15.5073ZM7.08421 13.7175C7.08671 13.713 7.25121 13.8203 7.28041 13.8371C7.36731 13.8865 7.45691 13.9298 7.54891 13.9678C7.73601 14.0451 7.93071 14.0945 8.12911 14.1314C8.50031 14.2002 8.89421 14.2098 9.26971 14.1751C9.65431 14.1393 10.0422 14.0349 10.43 14.09C10.8247 14.1464 11.2019 14.2913 11.5413 14.5007C11.597 14.5353 11.6523 14.5701 11.7072 14.6053C11.53 14.5653 11.35 14.5402 11.1675 14.553C10.9653 14.5675 10.7763 14.62 10.5835 14.6797C10.2177 14.7931 9.85861 14.8957 9.47631 14.9352C8.67041 15.0177 7.94781 14.5973 7.39281 14.0452C7.28631 13.9394 7.18371 13.8299 7.08421 13.7175ZM9.74941 11.9789C10.1266 12.0303 10.5092 12.0911 10.8673 12.2261C11.0624 12.2998 11.242 12.3874 11.4228 12.4913C11.5014 12.5365 11.5754 12.5924 11.6453 12.6496C11.6697 12.6695 11.7355 12.7087 11.7474 12.7385C11.7627 12.7773 11.7418 12.8589 11.7398 12.9015C11.7055 13.6568 11.9151 14.4853 12.5647 14.9346C12.6535 14.9962 12.7512 15.0404 12.8518 15.0785C12.0514 14.9782 11.5514 14.327 11.2754 13.616C11.1382 13.2635 10.9741 12.9321 10.7292 12.6414C10.4867 12.3542 10.1717 12.1354 9.82031 12.0053C9.79671 11.9964 9.77281 11.9877 9.74941 11.9789ZM13.716 15.4529C13.7153 15.4843 13.6756 15.5122 13.6554 15.5371C13.6237 15.5767 13.5944 15.6178 13.5655 15.6592C13.5069 15.7433 13.4653 15.8301 13.4349 15.9281C13.3859 16.0861 13.4867 16.3273 13.3456 16.4447C13.283 16.4967 13.1922 16.5089 13.113 16.5039C13.0815 16.5017 13.0212 16.4988 12.994 16.4818C12.963 16.4629 12.9383 16.4018 12.9253 16.3695C12.8557 16.1966 12.9397 16.0303 13.0605 15.9044C13.2364 15.7208 13.4854 15.5573 13.716 15.4529ZM13.3978 15.3462C13.2586 15.473 13.1052 15.583 12.9665 15.71C12.8942 15.7766 12.8227 15.8467 12.7675 15.9284C12.7137 16.0082 12.7001 16.093 12.6565 16.1754C12.57 16.3402 12.4371 16.4536 12.2475 16.4575C12.0437 16.4624 11.9903 16.2813 12.0749 16.1221C12.1978 15.891 12.4216 15.7432 12.6518 15.6328C12.895 15.5166 13.1378 15.4187 13.3978 15.3462ZM12.977 15.2225C12.802 15.3197 12.6273 15.4182 12.456 15.5223C12.2942 15.6207 12.1227 15.7223 11.9857 15.8543C11.8544 15.981 11.7194 16.117 11.5368 16.1629C11.3641 16.2062 11.1622 16.1783 11.1027 15.9849C11.0522 15.8207 11.2419 15.6735 11.3599 15.6014C11.518 15.5055 11.7044 15.4494 11.8819 15.4004C12.2413 15.3014 12.6054 15.2476 12.977 15.2225ZM8.57491 15.1491C8.91151 15.2867 9.29331 15.2554 9.65051 15.2101C10.044 15.16 10.4151 15.0094 10.8019 14.9293C11.2878 14.8289 11.7879 14.8653 12.2504 15.0433C11.8799 15.1025 11.5427 15.2357 11.192 15.3659C10.8284 15.5013 10.4572 15.6708 10.0664 15.702C9.50161 15.747 8.98791 15.5279 8.57491 15.1491ZM6.78971 12.3876C6.93061 12.4881 7.06771 12.6051 7.22591 12.689C7.38931 12.7758 7.55981 12.8439 7.73531 12.9006C8.12061 13.025 8.52251 13.0813 8.92441 13.1176C9.31071 13.1525 9.69771 13.1048 10.0744 13.2176C10.451 13.3303 10.7773 13.5723 11.0815 13.8138C11.1554 13.8725 11.2269 13.9342 11.2992 13.9951C10.9225 13.8548 10.5378 13.7789 10.137 13.7562C9.95471 13.7459 9.76271 13.7552 9.58141 13.777C9.47921 13.7893 9.37601 13.7985 9.27471 13.8181C9.17971 13.8366 9.08841 13.8659 8.99181 13.8782C8.61861 13.9254 8.21791 13.8221 7.88391 13.6567C7.53131 13.482 7.24691 13.1844 7.03001 12.8598C6.93101 12.7115 6.85161 12.5552 6.78971 12.3876ZM6.50391 10.4002C6.54741 10.4107 6.61741 10.5543 6.64861 10.5963C6.70641 10.6738 6.76681 10.7471 6.83121 10.8194C6.95801 10.9611 7.09951 11.0894 7.25121 11.2039C7.56481 11.4403 7.92641 11.6013 8.29931 11.7169C8.48741 11.7752 8.68221 11.8314 8.87801 11.8561C9.06661 11.8798 9.24211 11.9269 9.41531 12.0059C9.77671 12.1703 10.0967 12.4473 10.3684 12.7328C10.5502 12.9237 10.7026 13.1376 10.8579 13.3501C10.816 13.3656 10.7 13.2611 10.6603 13.2367C10.5793 13.187 10.4942 13.1462 10.4093 13.1041C10.2458 13.0226 10.067 12.9636 9.89091 12.9162C9.52721 12.8181 9.14611 12.8236 8.78361 12.7239C8.39211 12.6158 8.02991 12.4633 7.69161 12.2361C7.37311 12.022 7.11101 11.7234 6.90621 11.4009C6.71231 11.0956 6.59181 10.7489 6.50391 10.4002ZM21.9875 22.2286C21.4686 22.6696 21.6884 23.0517 21.5698 23.2403C21.554 23.2653 21.5281 23.2793 21.495 23.2853C21.4298 23.2714 21.3569 23.2405 21.2754 23.1856C20.7217 22.8116 19.4541 22.2485 20.2102 21.1871C20.9659 20.1259 20.6605 18.1039 19.1862 17.6956C19.0787 17.6655 18.9746 17.6398 18.8729 17.6162C18.6446 17.821 17.7781 18.6858 17.8527 19.9453C17.8739 20.301 17.9177 20.5383 17.9635 20.7088C18.6423 20.7843 18.9047 21.3109 18.7355 21.6386C18.611 21.6294 18.2793 21.6569 18.2509 22.2103C18.2157 22.8926 18.7583 23.8762 20.2306 24.6359C20.2306 24.6359 20.0139 24.3406 19.8365 24.0412L19.8882 24.0657C21.0882 24.6027 21.8787 24.988 22.413 24.3497C22.81 23.9319 22.9259 23.2147 22.9084 22.924C22.8741 22.3516 22.5062 21.7875 21.9875 22.2286ZM20.3241 14.2354C20.4774 14.0794 20.6346 13.891 20.7908 13.6632C21.66 12.396 22.0776 12.7742 22.0776 12.7742C22.0776 12.7742 22.0713 12.3993 21.6986 12.4955C21.6986 12.4955 22.1763 11.92 22.6639 12.0324C22.6639 12.0324 22.5846 11.6101 22.2086 11.689C22.416 11.1982 22.5701 10.1113 22.6397 10.0026C22.7042 9.90185 23.421 9.90655 23.55 9.81365C23.6794 9.72025 22.8291 9.38495 22.9756 9.42585C23.5433 9.58455 23.9571 9.55326 23.3037 9.02676C23.226 8.96416 22.8437 8.87256 22.8573 8.78376C22.866 8.72646 23.36 8.85995 23.3569 8.80585C23.3521 8.72535 23.3324 8.64856 23.2939 8.57826C23.0914 8.20696 22.1973 7.80925 21.8916 8.11995C20.8178 9.21125 21.8453 10.883 21.0482 10.6526C20.922 11.0278 20.6834 11.3853 20.3179 11.8048C20.3234 11.6281 20.2873 11.5237 20.2873 11.5237C20.1644 11.7472 20.0392 11.9424 19.9133 12.1132C20.0801 12.422 20.4296 13.2112 20.3241 14.2354ZM13.5737 10.6318C20.3909 14.706 16.3079 9.78235 18.361 10.9154C18.361 10.9154 18.4459 10.5377 17.584 9.98015C16.7221 9.42246 16.5684 9.04675 17.2728 8.40795C17.708 8.01335 18.0839 8.51836 18.4858 8.40196C18.7344 8.32986 19.1106 7.63755 19.1637 7.49655C19.3027 7.12775 17.6264 6.31085 17.0647 6.64275C17.0647 6.64275 17.0078 6.31045 16.6418 6.39445C16.2756 6.47855 15.7472 6.95775 15.333 6.85795C15.333 6.85795 15.674 7.18585 15.4938 7.69365C15.4938 7.69365 15.4516 7.18666 15.0131 6.88966C14.5751 6.59266 14.4136 5.95605 14.4136 5.95605C14.4136 5.95605 13.771 6.80246 14.4418 7.89336C14.4418 7.89336 13.3179 8.81975 13.5737 10.6318Z" fill="#1D65C0"/>
<defs>
<linearGradient id="paint0_linear_1404_92040" x1="6.8644" y1="29.1574" x2="25.353" y2="2.26491" gradientUnits="userSpaceOnUse">
<stop stop-color="#8E6C1A"/>
<stop offset="0.529412" stop-color="#653F1C"/>
<stop offset="0.921569" stop-color="#FECB07"/>
<stop offset="1" stop-color="#B78A11"/>
</linearGradient>
<linearGradient id="paint1_linear_1404_92040" x1="7.09134" y1="28.2936" x2="25.6873" y2="3.82975" gradientUnits="userSpaceOnUse">
<stop stop-color="#E7C160"/>
<stop offset="0.431373" stop-color="#CD8C16"/>
<stop offset="0.690196" stop-color="#F8B52B"/>
<stop offset="0.909804" stop-color="#FBF8D8"/>
<stop offset="1" stop-color="#FEF8CB"/>
</linearGradient>
<linearGradient id="paint2_linear_1404_92040" x1="3.28135" y1="16.0327" x2="28.788" y2="16.0327" gradientUnits="userSpaceOnUse">
<stop stop-color="#FBEB0C"/>
<stop offset="0.0901961" stop-color="#F9FCFD"/>
<stop offset="0.2" stop-color="#FCEE5E"/>
<stop offset="0.560784" stop-color="#653E1C"/>
<stop offset="0.729412" stop-color="#FBEF4A"/>
<stop offset="1" stop-color="#FAF49C"/>
</linearGradient>
<linearGradient id="paint3_linear_1404_92040" x1="17.142" y1="27.1777" x2="17.142" y2="5.25047" gradientUnits="userSpaceOnUse">
<stop stop-color="#A4C8E9"/>
<stop offset="1" stop-color="white"/>
</linearGradient>
</defs>
</svg>
