<?xml version="1.0" encoding="UTF-8"?> <svg xmlns="http://www.w3.org/2000/svg" width="86" height="25" viewBox="0 0 86 25" fill="none"><g data-figma-bg-blur-radius="10"><path fill-rule="evenodd" clip-rule="evenodd" d="M7.69245 9.79165C9.80997 9.79165 11.7245 10.6589 13.1005 12.0571L13.2201 12.1736C12.5825 12.6599 11.7569 13.1078 10.8452 13.538C7.1722 15.8991 11.9753 22.9126 14.5793 24.3665C15.0828 24.6963 15.9025 24.8576 16.8512 24.9502H14.5078C13.7462 24.5659 13.0541 23.9517 12.4078 23.1296C11.9427 22.4338 12.3439 23.7219 12.5093 24.2245C12.6037 24.5114 12.6037 24.618 12.4485 24.7721C12.3942 24.8305 12.3487 24.8897 12.3156 24.9502H7.69245C3.50333 24.9502 0.107422 21.5568 0.107422 17.3709C0.107422 13.185 3.50333 9.79165 7.69245 9.79165ZM24.7247 23.4439L26.2623 24.9502H23.6966L23.7113 24.0826C23.7096 23.7003 23.2425 23.8856 22.7998 23.7756C22.054 23.5901 21.4165 23.2561 20.85 22.8253C22.3289 23.0475 23.5072 23.7452 24.7247 23.4439Z" fill="#4777FF"></path><path fill-rule="evenodd" clip-rule="evenodd" d="M25.9006 0C32.8017 0 38.3961 5.59012 38.3961 12.486C38.3961 19.3818 32.8017 24.972 25.9006 24.972L25.8973 24.9719L23.6964 24.9681L23.7113 24.0826C23.7096 23.7003 23.2425 23.8856 22.7998 23.7756C22.054 23.5901 21.4165 23.2561 20.85 22.8253C23.0794 23.1602 24.6257 24.5767 26.6525 22.0209C27.2019 21.328 27.4688 20.4893 27.4048 19.4795C27.2616 18.7413 26.865 18.4803 26.3698 18.4048C24.682 16.9532 23.6402 15.4831 22.8996 14.0044C22.7621 13.5387 22.4487 13.3074 21.9864 13.2743C21.1595 13.324 20.2495 12.7922 19.2874 11.8955C18.2354 11.1938 20.7936 15.0946 19.9571 16.4783C19.3762 15.5853 18.7859 14.4877 18.1509 12.4024C19.7873 10.9358 20.3427 9.69198 20.6674 7.49519C20.7135 6.93657 20.6558 6.35729 20.16 5.69041C20.4618 4.2584 20.3707 3.64098 19.4509 2.94109C19.125 2.6932 18.8041 2.5419 18.469 2.44787C20.5459 0.909762 23.1169 0 25.9006 0ZM16.9149 24.9563L14.5117 24.9521C14.1262 24.7581 13.7585 24.5052 13.4056 24.1963V23.4752C13.8199 23.8599 14.2205 24.1662 14.5793 24.3665C15.094 24.7037 15.9393 24.8647 16.9149 24.9563ZM13.4152 12.0187C13.4629 10.722 13.7089 9.47603 14.1231 8.30955C14.2696 8.78091 14.3863 9.33242 14.3966 10.0502C14.5455 10.1583 14.6943 10.2665 14.843 10.3747C15.8172 11.0303 16.7912 11.6859 17.7654 12.3416C17.8023 12.67 17.6743 12.8717 17.3596 12.9297C18.0894 13.4946 18 13.9874 17.806 14.4708C16.7146 13.7117 15.7097 12.2607 14.7011 10.841C14.6126 10.7134 14.4531 10.676 14.356 10.8816C14.1703 11.2868 13.844 11.6632 13.4152 12.0187Z" fill="#4777FF"></path><path fill-rule="evenodd" clip-rule="evenodd" d="M13.7477 3.61821C13.9106 3.61821 14.0726 3.62214 14.2336 3.62988C14.1264 3.80161 14.0259 3.99304 13.9328 4.20626C13.0337 6.26371 13.7018 6.95547 14.1231 8.30955C13.7089 9.47603 13.4629 10.722 13.4152 12.0187C13.3524 12.0707 13.2872 12.1225 13.2201 12.1736L13.1005 12.0571C11.7245 10.6589 9.80997 9.79165 7.69245 9.79165C6.43828 9.79165 5.25542 10.096 4.21332 10.6345C5.47416 6.57017 9.26585 3.61821 13.7477 3.61821Z" fill="#4777FF"></path></g><path d="M52.1855 6.63477C52.1855 7.59961 52 8.40625 51.6289 9.05469C51.2617 9.69922 50.7285 10.1855 50.0293 10.5137C49.3301 10.8379 48.4883 11 47.5039 11H45.0781V2.43359H47.7676C48.666 2.43359 49.4453 2.59375 50.1055 2.91406C50.7656 3.23047 51.2773 3.70117 51.6406 4.32617C52.0039 4.94727 52.1855 5.7168 52.1855 6.63477ZM50.2988 6.68164C50.2988 6.04883 50.2051 5.5293 50.0176 5.12305C49.834 4.71289 49.5605 4.41016 49.1973 4.21484C48.8379 4.01953 48.3926 3.92188 47.8613 3.92188H46.8945V9.5H47.6738C48.5605 9.5 49.2188 9.26367 49.6484 8.79102C50.082 8.31836 50.2988 7.61523 50.2988 6.68164ZM58.8945 11H53.9609V2.43359H58.8945V3.92188H55.7773V5.80273H58.6777V7.29102H55.7773V9.5H58.8945V11ZM60.6875 11V2.43359H62.5039V9.5H65.9785V11H60.6875ZM75.248 6.70508C75.248 7.36523 75.166 7.9668 75.002 8.50977C74.8379 9.04883 74.5879 9.51367 74.252 9.9043C73.9199 10.2949 73.498 10.5957 72.9863 10.8066C72.4746 11.0137 71.8691 11.1172 71.1699 11.1172C70.4707 11.1172 69.8652 11.0137 69.3535 10.8066C68.8418 10.5957 68.418 10.2949 68.082 9.9043C67.75 9.51367 67.502 9.04688 67.3379 8.50391C67.1738 7.96094 67.0918 7.35742 67.0918 6.69336C67.0918 5.80664 67.2363 5.03516 67.5254 4.37891C67.8184 3.71875 68.2676 3.20703 68.873 2.84375C69.4785 2.48047 70.248 2.29883 71.1816 2.29883C72.1113 2.29883 72.875 2.48047 73.4727 2.84375C74.0742 3.20703 74.5195 3.71875 74.8086 4.37891C75.1016 5.03906 75.248 5.81445 75.248 6.70508ZM68.9961 6.70508C68.9961 7.30273 69.0703 7.81836 69.2188 8.25195C69.3711 8.68164 69.6074 9.01367 69.9277 9.24805C70.248 9.47852 70.6621 9.59375 71.1699 9.59375C71.6855 9.59375 72.1035 9.47852 72.4238 9.24805C72.7441 9.01367 72.9766 8.68164 73.1211 8.25195C73.2695 7.81836 73.3438 7.30273 73.3438 6.70508C73.3438 5.80664 73.1758 5.09961 72.8398 4.58398C72.5039 4.06836 71.9512 3.81055 71.1816 3.81055C70.6699 3.81055 70.252 3.92773 69.9277 4.16211C69.6074 4.39258 69.3711 4.72461 69.2188 5.1582C69.0703 5.58789 68.9961 6.10352 68.9961 6.70508ZM48.7168 15.8223C48.3691 15.8223 48.0605 15.8906 47.791 16.0273C47.5254 16.1602 47.3008 16.3535 47.1172 16.6074C46.9375 16.8613 46.8008 17.168 46.707 17.5273C46.6133 17.8867 46.5664 18.291 46.5664 18.7402C46.5664 19.3457 46.6406 19.8633 46.7891 20.293C46.9414 20.7188 47.1758 21.0449 47.4922 21.2715C47.8086 21.4941 48.2168 21.6055 48.7168 21.6055C49.0645 21.6055 49.4121 21.5664 49.7598 21.4883C50.1113 21.4102 50.4922 21.2988 50.9023 21.1543V22.6777C50.5234 22.834 50.1504 22.9453 49.7832 23.0117C49.416 23.082 49.0039 23.1172 48.5469 23.1172C47.6641 23.1172 46.9375 22.9355 46.3672 22.5723C45.8008 22.2051 45.3809 21.6934 45.1074 21.0371C44.834 20.377 44.6973 19.6074 44.6973 18.7285C44.6973 18.0801 44.7852 17.4863 44.9609 16.9473C45.1367 16.4082 45.3945 15.9414 45.7344 15.5469C46.0742 15.1523 46.4941 14.8477 46.9941 14.6328C47.4941 14.418 48.0684 14.3105 48.7168 14.3105C49.1426 14.3105 49.5684 14.3652 49.9941 14.4746C50.4238 14.5801 50.834 14.7266 51.2246 14.9141L50.6387 16.3906C50.3184 16.2383 49.9961 16.1055 49.6719 15.9922C49.3477 15.8789 49.0293 15.8223 48.7168 15.8223ZM52.7305 23V14.4336H54.5469V21.5H58.0215V23H52.7305ZM67.291 18.7051C67.291 19.3652 67.209 19.9668 67.0449 20.5098C66.8809 21.0488 66.6309 21.5137 66.2949 21.9043C65.9629 22.2949 65.541 22.5957 65.0293 22.8066C64.5176 23.0137 63.9121 23.1172 63.2129 23.1172C62.5137 23.1172 61.9082 23.0137 61.3965 22.8066C60.8848 22.5957 60.4609 22.2949 60.125 21.9043C59.793 21.5137 59.5449 21.0469 59.3809 20.5039C59.2168 19.9609 59.1348 19.3574 59.1348 18.6934C59.1348 17.8066 59.2793 17.0352 59.5684 16.3789C59.8613 15.7188 60.3105 15.207 60.916 14.8438C61.5215 14.4805 62.291 14.2988 63.2246 14.2988C64.1543 14.2988 64.918 14.4805 65.5156 14.8438C66.1172 15.207 66.5625 15.7188 66.8516 16.3789C67.1445 17.0391 67.291 17.8145 67.291 18.7051ZM61.0391 18.7051C61.0391 19.3027 61.1133 19.8184 61.2617 20.252C61.4141 20.6816 61.6504 21.0137 61.9707 21.248C62.291 21.4785 62.7051 21.5938 63.2129 21.5938C63.7285 21.5938 64.1465 21.4785 64.4668 21.248C64.7871 21.0137 65.0195 20.6816 65.1641 20.252C65.3125 19.8184 65.3867 19.3027 65.3867 18.7051C65.3867 17.8066 65.2188 17.0996 64.8828 16.584C64.5469 16.0684 63.9941 15.8105 63.2246 15.8105C62.7129 15.8105 62.2949 15.9277 61.9707 16.1621C61.6504 16.3926 61.4141 16.7246 61.2617 17.1582C61.1133 17.5879 61.0391 18.1035 61.0391 18.7051ZM76.0391 14.4336V19.9766C76.0391 20.5664 75.9082 21.0996 75.6465 21.5762C75.3887 22.0488 74.9961 22.4238 74.4688 22.7012C73.9453 22.9785 73.2852 23.1172 72.4883 23.1172C71.3555 23.1172 70.4922 22.8281 69.8984 22.25C69.3047 21.6719 69.0078 20.9062 69.0078 19.9531V14.4336H70.8184V19.6777C70.8184 20.3848 70.9629 20.8809 71.252 21.166C71.541 21.4512 71.9688 21.5938 72.5352 21.5938C72.9336 21.5938 73.2559 21.5254 73.502 21.3887C73.752 21.252 73.9355 21.041 74.0527 20.7559C74.1699 20.4707 74.2285 20.1074 74.2285 19.666V14.4336H76.0391ZM85.2441 18.6348C85.2441 19.5996 85.0586 20.4062 84.6875 21.0547C84.3203 21.6992 83.7871 22.1855 83.0879 22.5137C82.3887 22.8379 81.5469 23 80.5625 23H78.1367V14.4336H80.8262C81.7246 14.4336 82.5039 14.5938 83.1641 14.9141C83.8242 15.2305 84.3359 15.7012 84.6992 16.3262C85.0625 16.9473 85.2441 17.7168 85.2441 18.6348ZM83.3574 18.6816C83.3574 18.0488 83.2637 17.5293 83.0762 17.123C82.8926 16.7129 82.6191 16.4102 82.2559 16.2148C81.8965 16.0195 81.4512 15.9219 80.9199 15.9219H79.9531V21.5H80.7324C81.6191 21.5 82.2773 21.2637 82.707 20.791C83.1406 20.3184 83.3574 19.6152 83.3574 18.6816Z" fill="#4777FF"></path><defs><clipPath id="bgblur_0_2509_29953_clip_path" transform="translate(9.89258 10)"><path fill-rule="evenodd" clip-rule="evenodd" d="M7.69245 9.79165C9.80997 9.79165 11.7245 10.6589 13.1005 12.0571L13.2201 12.1736C12.5825 12.6599 11.7569 13.1078 10.8452 13.538C7.1722 15.8991 11.9753 22.9126 14.5793 24.3665C15.0828 24.6963 15.9025 24.8576 16.8512 24.9502H14.5078C13.7462 24.5659 13.0541 23.9517 12.4078 23.1296C11.9427 22.4338 12.3439 23.7219 12.5093 24.2245C12.6037 24.5114 12.6037 24.618 12.4485 24.7721C12.3942 24.8305 12.3487 24.8897 12.3156 24.9502H7.69245C3.50333 24.9502 0.107422 21.5568 0.107422 17.3709C0.107422 13.185 3.50333 9.79165 7.69245 9.79165ZM24.7247 23.4439L26.2623 24.9502H23.6966L23.7113 24.0826C23.7096 23.7003 23.2425 23.8856 22.7998 23.7756C22.054 23.5901 21.4165 23.2561 20.85 22.8253C22.3289 23.0475 23.5072 23.7452 24.7247 23.4439Z"></path><path fill-rule="evenodd" clip-rule="evenodd" d="M25.9006 0C32.8017 0 38.3961 5.59012 38.3961 12.486C38.3961 19.3818 32.8017 24.972 25.9006 24.972L25.8973 24.9719L23.6964 24.9681L23.7113 24.0826C23.7096 23.7003 23.2425 23.8856 22.7998 23.7756C22.054 23.5901 21.4165 23.2561 20.85 22.8253C23.0794 23.1602 24.6257 24.5767 26.6525 22.0209C27.2019 21.328 27.4688 20.4893 27.4048 19.4795C27.2616 18.7413 26.865 18.4803 26.3698 18.4048C24.682 16.9532 23.6402 15.4831 22.8996 14.0044C22.7621 13.5387 22.4487 13.3074 21.9864 13.2743C21.1595 13.324 20.2495 12.7922 19.2874 11.8955C18.2354 11.1938 20.7936 15.0946 19.9571 16.4783C19.3762 15.5853 18.7859 14.4877 18.1509 12.4024C19.7873 10.9358 20.3427 9.69198 20.6674 7.49519C20.7135 6.93657 20.6558 6.35729 20.16 5.69041C20.4618 4.2584 20.3707 3.64098 19.4509 2.94109C19.125 2.6932 18.8041 2.5419 18.469 2.44787C20.5459 0.909762 23.1169 0 25.9006 0ZM16.9149 24.9563L14.5117 24.9521C14.1262 24.7581 13.7585 24.5052 13.4056 24.1963V23.4752C13.8199 23.8599 14.2205 24.1662 14.5793 24.3665C15.094 24.7037 15.9393 24.8647 16.9149 24.9563ZM13.4152 12.0187C13.4629 10.722 13.7089 9.47603 14.1231 8.30955C14.2696 8.78091 14.3863 9.33242 14.3966 10.0502C14.5455 10.1583 14.6943 10.2665 14.843 10.3747C15.8172 11.0303 16.7912 11.6859 17.7654 12.3416C17.8023 12.67 17.6743 12.8717 17.3596 12.9297C18.0894 13.4946 18 13.9874 17.806 14.4708C16.7146 13.7117 15.7097 12.2607 14.7011 10.841C14.6126 10.7134 14.4531 10.676 14.356 10.8816C14.1703 11.2868 13.844 11.6632 13.4152 12.0187Z"></path><path fill-rule="evenodd" clip-rule="evenodd" d="M13.7477 3.61821C13.9106 3.61821 14.0726 3.62214 14.2336 3.62988C14.1264 3.80161 14.0259 3.99304 13.9328 4.20626C13.0337 6.26371 13.7018 6.95547 14.1231 8.30955C13.7089 9.47603 13.4629 10.722 13.4152 12.0187C13.3524 12.0707 13.2872 12.1225 13.2201 12.1736L13.1005 12.0571C11.7245 10.6589 9.80997 9.79165 7.69245 9.79165C6.43828 9.79165 5.25542 10.096 4.21332 10.6345C5.47416 6.57017 9.26585 3.61821 13.7477 3.61821Z"></path></clipPath></defs></svg> 