<svg id="Artwork" height="512" viewBox="0 0 512 512" width="512" xmlns="http://www.w3.org/2000/svg"><path d="m59.21 215.34-27.01 27.09h27.01z" fill="#088faf"/><path d="m452.73 215.34 27.02 27.09h-27.02z" fill="#088faf"/><path d="m453.06 109.29a10 10 0 0 0 -2.93-7.07l-99.42-99.42a10 10 0 0 0 -7.07-2.93h-274.42a10 10 0 0 0 -10 10v492a10 10 0 0 0 10 10h373.84a10 10 0 0 0 10-10z" fill="#f1f1f1"/><path d="m452.73 106.8a9.88 9.88 0 0 0 -2.6-4.58l-99.42-99.42a10 10 0 0 0 -7.07-2.93v94.92a12 12 0 0 0 12 12z" fill="#ccc"/><path d="m452.73 106.8h-97.08a12 12 0 0 1 -12-12v10.15c0 6.63 4.12 15 12.38 15h97v-10.66a6.46 6.46 0 0 0 -.3-2.49z" fill="#e8e8e8"/><path d="m472.11 412.17h-432.22a10 10 0 0 1 -10-10v-153.34a10 10 0 0 1 10-10h432.22a10 10 0 0 1 10 10v153.33a10 10 0 0 1 -10 10.01z" fill="#29abe1"/><path d="m59.21 412.17h393.85v12.97h-393.85z" fill="#e0e0e0"/><g fill="#fff"><path d="m207.78 336.34a17.78 17.78 0 0 1 3.35 10.91 17.45 17.45 0 0 1 -3.3 10.6 21.05 21.05 0 0 1 -9.36 6.95 37.44 37.44 0 0 1 -14.16 2.46 44.68 44.68 0 0 1 -12.5-1.75 32.36 32.36 0 0 1 -10.41-5.06 7 7 0 0 1 -3.1-6.2 8.21 8.21 0 0 1 1.7-5.25 5.15 5.15 0 0 1 4.2-2.15 6.52 6.52 0 0 1 2.5.45c.74.3 1.74.78 3 1.45l.95.45 1.25.55a46 46 0 0 0 5.75 2.45 18.05 18.05 0 0 0 5.75.85c3.74 0 6.42-.6 8.06-1.8s2.45-3.2 2.45-6c0-2.6-.84-4.46-2.5-5.6s-4.4-1.7-8.21-1.7h-6.2a5.71 5.71 0 0 1 -4.7-2.1 8.22 8.22 0 0 1 0-10 5.71 5.71 0 0 1 4.7-2.1h4.4q5.51 0 8-1.6a5.61 5.61 0 0 0 2.5-5.1 7.48 7.48 0 0 0 -2.2-5.75 8.62 8.62 0 0 0 -6.11-2 15.08 15.08 0 0 0 -5.25.9 54.31 54.31 0 0 0 -5.45 2.4l-2.1 1c-1.27.67-2.27 1.15-3 1.45a6.61 6.61 0 0 1 -2.51.45 5.18 5.18 0 0 1 -4.2-2.15 8.25 8.25 0 0 1 -1.7-5.25 7.81 7.81 0 0 1 .7-3.51 8.21 8.21 0 0 1 2.4-2.7 33.36 33.36 0 0 1 10.16-5 40.08 40.08 0 0 1 11.85-1.8 33.18 33.18 0 0 1 13.06 2.4 19.63 19.63 0 0 1 8.71 6.8 17.52 17.52 0 0 1 3.05 10.21 16.61 16.61 0 0 1 -2.85 9.65 16.3 16.3 0 0 1 -8 6.06 17 17 0 0 1 9.32 6.13z"/><path d="m282.71 328.49a6.49 6.49 0 0 1 2 4.95v17.41a29.78 29.78 0 0 1 -.75 7.65 7.69 7.69 0 0 1 -2.7 4.15 17.5 17.5 0 0 1 -5.85 2.6 65.21 65.21 0 0 1 -8.65 1.56 78.91 78.91 0 0 1 -8.86.55q-11.51 0-20-4.36a30.32 30.32 0 0 1 -13-12.5q-4.5-8.16-4.5-19.36a39 39 0 0 1 4.5-19.16 30.83 30.83 0 0 1 12.81-12.56 40.93 40.93 0 0 1 19.41-4.4 44.13 44.13 0 0 1 12.56 1.65 35.27 35.27 0 0 1 10.35 5.05 7.73 7.73 0 0 1 2.45 2.6 7.63 7.63 0 0 1 .75 3.6 8.18 8.18 0 0 1 -1.7 5.26 5.08 5.08 0 0 1 -4.1 2.15 7.54 7.54 0 0 1 -2.75-.45 20.18 20.18 0 0 1 -2.95-1.55 34.1 34.1 0 0 0 -6.95-2.9 26.4 26.4 0 0 0 -7.06-.9q-9.51 0-14.16 5.3t-4.65 16.31q0 11.3 4.85 16.76t14.86 5.45a45.44 45.44 0 0 0 9.51-1v-13.11h-7.13a7.28 7.28 0 0 1 -5.1-1.65 6.91 6.91 0 0 1 0-9.3 7.23 7.23 0 0 1 5.1-1.65h16.51a7.29 7.29 0 0 1 5.2 1.85z"/><path d="m299.12 364.6a9 9 0 0 1 -2.45-6.65v-53.53a7.68 7.68 0 0 1 8.5-8.5h25.62q11.7 0 18.21 5.95t6.5 16.56q0 10.5-6.55 16.51t-18.16 6h-15.71v17a8.91 8.91 0 0 1 -2.5 6.65 9.3 9.3 0 0 1 -6.81 2.46 9 9 0 0 1 -6.65-2.45zm29.17-37.46c3.4 0 5.91-.71 7.55-2.11s2.45-3.56 2.45-6.5q0-8.7-10-8.7h-13.21v17.31z"/></g></svg>