<svg id="Artwork" height="512" viewBox="0 0 512 512" width="512" xmlns="http://www.w3.org/2000/svg"><path d="m59.21 215.34-27.01 27.09h27.01z" fill="#008275"/><path d="m452.73 215.34 27.02 27.09h-27.02z" fill="#008275"/><path d="m453.06 109.29a10 10 0 0 0 -2.93-7.07l-99.42-99.42a10 10 0 0 0 -7.07-2.93h-274.42a10 10 0 0 0 -10 10v492a10 10 0 0 0 10 10h373.84a10 10 0 0 0 10-10z" fill="#f1f1f1"/><path d="m452.73 106.8a9.88 9.88 0 0 0 -2.6-4.58l-99.42-99.42a10 10 0 0 0 -7.07-2.93v94.92a12 12 0 0 0 12 12z" fill="#ccc"/><path d="m452.73 106.8h-97.08a12 12 0 0 1 -12-12v10.15c0 6.63 4.12 15 12.38 15h97v-10.66a6.46 6.46 0 0 0 -.3-2.49z" fill="#e8e8e8"/><path d="m472.11 412.17h-432.22a10 10 0 0 1 -10-10v-153.34a10 10 0 0 1 10-10h432.22a10 10 0 0 1 10 10v153.33a10 10 0 0 1 -10 10.01z" fill="#00a99d"/><path d="m59.21 412.17h393.85v12.97h-393.85z" fill="#e0e0e0"/><g fill="#fff"><path d="m251.8 300.7a7.8 7.8 0 0 1 1.95 5.45 12.81 12.81 0 0 1 -1.9 6.6l-30.32 52.53a9.29 9.29 0 0 1 -3.45 3.55 8.54 8.54 0 0 1 -4.25 1.15 9.14 9.14 0 0 1 -6.2-2.35 7.32 7.32 0 0 1 -2.71-5.75 9.55 9.55 0 0 1 1.4-4.81l25.68-43.92h-25q-4.6 0-6.66-1.8a6.8 6.8 0 0 1 -2.05-5.4 7 7 0 0 1 2.1-5.55q2.1-1.86 6.61-1.86h39.21a7.1 7.1 0 0 1 5.59 2.16z"/><path d="m314 356.38q2.14 1.69 2.15 5.4t-2.1 5.55q-2.1 1.76-6.6 1.75h-40a7.81 7.81 0 0 1 -5.85-2.2 7.57 7.57 0 0 1 -2.15-5.5 11.11 11.11 0 0 1 2.3-6.51l30.82-41.87h-24.21c-3 0-5.22-.58-6.66-1.75a6.49 6.49 0 0 1 -2.15-5.35q0-3.81 2.15-5.55c1.44-1.17 3.65-1.76 6.66-1.76h38.42a7.76 7.76 0 0 1 5.75 2.16 7.39 7.39 0 0 1 2.15 5.45 11.19 11.19 0 0 1 -2.3 6.6l-30.82 41.92h25.92q4.4-.05 6.52 1.66z"/></g></svg>