<svg id="Artwork" height="512" viewBox="0 0 512 512" width="512" xmlns="http://www.w3.org/2000/svg"><path d="m59.21 215.34-27.01 27.09h27.01z" fill="#9a439e"/><path d="m452.73 215.34 27.02 27.09h-27.02z" fill="#9a439e"/><path d="m453.06 109.29a10 10 0 0 0 -2.93-7.07l-99.42-99.42a10 10 0 0 0 -7.07-2.93h-274.42a10 10 0 0 0 -10 10v492a10 10 0 0 0 10 10h373.84a10 10 0 0 0 10-10z" fill="#f1f1f1"/><path d="m452.73 106.8a9.88 9.88 0 0 0 -2.6-4.58l-99.42-99.42a10 10 0 0 0 -7.07-2.93v94.92a12 12 0 0 0 12 12z" fill="#ccc"/><path d="m452.73 106.8h-97.08a12 12 0 0 1 -12-12v10.15c0 6.63 4.12 15 12.38 15h97v-10.66a6.46 6.46 0 0 0 -.3-2.49z" fill="#e8e8e8"/><path d="m472.11 412.17h-432.22a10 10 0 0 1 -10-10v-153.34a10 10 0 0 1 10-10h432.22a10 10 0 0 1 10 10v153.33a10 10 0 0 1 -10 10.01z" fill="#be4fc1"/><path d="m59.21 412.17h393.85v12.97h-393.85z" fill="#e0e0e0"/><g fill="#fff"><path d="m263.8 358.85a7.13 7.13 0 0 1 -2.65 5.6 8.93 8.93 0 0 1 -6 2.31 7.6 7.6 0 0 1 -4.2-1.21 8.06 8.06 0 0 1 -3-3.6l-4.51-10.1h-32.44l-4.63 10.15a8 8 0 0 1 -3.05 3.6 7.86 7.86 0 0 1 -4.25 1.21 9.31 9.31 0 0 1 -6.15-2.31 7 7 0 0 1 -2.75-5.6 8.62 8.62 0 0 1 .9-3.7l26.41-54.23a9.33 9.33 0 0 1 3.85-4.15 11.65 11.65 0 0 1 11.26 0 9.27 9.27 0 0 1 3.9 4.15l26.41 54.23a8.62 8.62 0 0 1 .9 3.65zm-46.62-20.85h20l-10-22.31z"/><path d="m273.71 364.25a8.49 8.49 0 0 1 -2.2-6.3v-53.53a7.68 7.68 0 0 1 8.5-8.5h34.62q4.31 0 6.5 1.8a6.33 6.33 0 0 1 2.2 5.2q0 7.21-8.7 7.21h-25.21v13.4h23.21q8.7 0 8.7 7.11a6.32 6.32 0 0 1 -2.2 5.2c-1.47 1.2-3.63 1.8-6.5 1.8h-23.21v14.61h25.21q8.7 0 8.7 7.2a6.35 6.35 0 0 1 -2.2 5.21q-2.19 1.79-6.5 1.79h-34.63a8.51 8.51 0 0 1 -6.29-2.2z"/></g></svg>