<svg id="Artwork" height="512" viewBox="0 0 512 512" width="512" xmlns="http://www.w3.org/2000/svg"><path d="m453.06 109.29a10 10 0 0 0 -2.93-7.07l-99.42-99.42a10 10 0 0 0 -7.07-2.93h-274.42a10 10 0 0 0 -10 10v492a10 10 0 0 0 10 10h373.84a10 10 0 0 0 10-10z" fill="#f1f1f1"/><path d="m452.73 106.8a9.88 9.88 0 0 0 -2.6-4.58l-99.42-99.42a10 10 0 0 0 -7.07-2.93v94.92a12 12 0 0 0 12 12z" fill="#ccc"/><path d="m452.73 106.8h-97.08a12 12 0 0 1 -12-12v10.15c0 6.63 4.12 15 12.38 15h97v-10.66a6.46 6.46 0 0 0 -.3-2.49z" fill="#e8e8e8"/><path d="m59.21 215.34-27.01 27.09h27.01z" fill="#c95623"/><path d="m452.73 215.34 27.02 27.09h-27.02z" fill="#c95623"/><path d="m472.11 412.17h-432.22a10 10 0 0 1 -10-10v-153.34a10 10 0 0 1 10-10h432.22a10 10 0 0 1 10 10v153.33a10 10 0 0 1 -10 10.01z" fill="#ff732b"/><path d="m59.21 412.17h393.85v12.97h-393.85z" fill="#e0e0e0"/><g fill="#fff"><path d="m278.06 358.85a7.13 7.13 0 0 1 -2.65 5.6 9 9 0 0 1 -6.05 2.31 7.66 7.66 0 0 1 -4.21-1.21 8.18 8.18 0 0 1 -3-3.6l-4.5-10.1h-32.42l-4.6 10.1a7.85 7.85 0 0 1 -7.3 4.81 9.31 9.31 0 0 1 -6.15-2.31 7 7 0 0 1 -2.76-5.6 8.62 8.62 0 0 1 .9-3.7l26.42-54.23a9.27 9.27 0 0 1 3.85-4.15 11.19 11.19 0 0 1 5.65-1.45 11.33 11.33 0 0 1 5.61 1.45 9.27 9.27 0 0 1 3.9 4.15l26.41 54.23a8.62 8.62 0 0 1 .9 3.7zm-46.62-20.85h20l-10-22.31z"/><path d="m288.22 364.6a9 9 0 0 1 -2.46-6.65v-53.53a8.85 8.85 0 0 1 2.46-6.55 9 9 0 0 1 6.65-2.45 9.31 9.31 0 0 1 6.8 2.45 8.76 8.76 0 0 1 2.5 6.55v53.58a8.87 8.87 0 0 1 -2.5 6.65 9.27 9.27 0 0 1 -6.8 2.46 9 9 0 0 1 -6.65-2.51z"/></g></svg>