<svg id="Artwork" height="512" viewBox="0 0 512 512" width="512" xmlns="http://www.w3.org/2000/svg"><path d="m59.21 215.34-27.01 27.09h27.01z" fill="#c6406d"/><path d="m452.73 215.34 27.02 27.09h-27.02z" fill="#c6406d"/><path d="m453.06 109.29a10 10 0 0 0 -2.93-7.07l-99.42-99.42a10 10 0 0 0 -7.07-2.93h-274.42a10 10 0 0 0 -10 10v492a10 10 0 0 0 10 10h373.84a10 10 0 0 0 10-10z" fill="#f1f1f1"/><path d="m452.73 106.8a9.88 9.88 0 0 0 -2.6-4.58l-99.42-99.42a10 10 0 0 0 -7.07-2.93v94.92a12 12 0 0 0 12 12z" fill="#ccc"/><path d="m452.73 106.8h-97.08a12 12 0 0 1 -12-12v10.15c0 6.63 4.12 15 12.38 15h97v-10.66a6.46 6.46 0 0 0 -.3-2.49z" fill="#e8e8e8"/><path d="m472.11 412.17h-432.22a10 10 0 0 1 -10-10v-153.34a10 10 0 0 1 10-10h432.22a10 10 0 0 1 10 10v153.33a10 10 0 0 1 -10 10.01z" fill="#ff4d79"/><path d="m59.21 412.17h393.85v12.97h-393.85z" fill="#e0e0e0"/><g fill="#fff"><path d="m224.88 361.48a7.13 7.13 0 0 1 -2.65 5.6 8.92 8.92 0 0 1 -6 2.3 7.67 7.67 0 0 1 -4.2-1.2 8.06 8.06 0 0 1 -3-3.6l-4.51-10.11h-32.46l-4.6 10.11a8 8 0 0 1 -3.06 3.6 7.94 7.94 0 0 1 -4.25 1.2 9.3 9.3 0 0 1 -6.15-2.3 7 7 0 0 1 -2.75-5.6 8.59 8.59 0 0 1 .9-3.7l26.41-54.23a9.27 9.27 0 0 1 3.85-4.15 11.58 11.58 0 0 1 11.26 0 9.22 9.22 0 0 1 3.9 4.15l26.43 54.23a8.45 8.45 0 0 1 .88 3.7zm-46.62-20.81h20l-10-22.31z"/><path d="m235 367.23a9 9 0 0 1 -2.45-6.65v-53.53a7.69 7.69 0 0 1 8.5-8.51h25.65q11.71 0 18.22 6t6.5 16.56q0 10.5-6.56 16.5t-18.16 6h-15.7v17a8.91 8.91 0 0 1 -2.5 6.65 9.29 9.29 0 0 1 -6.81 2.45 9 9 0 0 1 -6.69-2.47zm29.16-37.47c3.41 0 5.92-.7 7.56-2.1s2.45-3.57 2.45-6.5q0-8.71-10-8.71h-13.17v17.31z"/><path d="m362.45 361.08a8 8 0 0 1 -2.5 5.8 8.06 8.06 0 0 1 -5.9 2.5 9.33 9.33 0 0 1 -6.81-3.2l-28.51-29.18v23.62a8.87 8.87 0 0 1 -2.5 6.65 9.28 9.28 0 0 1 -6.8 2.45 8.46 8.46 0 0 1 -9.11-9.1v-53.57a8.87 8.87 0 0 1 2.45-6.55 9 9 0 0 1 6.66-2.46 9.29 9.29 0 0 1 6.8 2.46 8.74 8.74 0 0 1 2.5 6.55v22l28.12-28.31a7.92 7.92 0 0 1 11.7-.25 7.78 7.78 0 0 1 2.5 5.75 8.38 8.38 0 0 1 -2.9 6.1l-20.51 20.11 22.21 22.82a7.78 7.78 0 0 1 2.6 5.81z"/></g></svg>