<svg id="Artwork" height="512" viewBox="0 0 512 512" width="512" xmlns="http://www.w3.org/2000/svg"><path d="m59.21 215.34-27.01 27.09h27.01z" fill="#c6406d"/><path d="m452.73 215.34 27.02 27.09h-27.02z" fill="#c6406d"/><path d="m453.06 109.29a10 10 0 0 0 -2.93-7.07l-99.42-99.42a10 10 0 0 0 -7.07-2.93h-274.42a10 10 0 0 0 -10 10v492a10 10 0 0 0 10 10h373.84a10 10 0 0 0 10-10z" fill="#f1f1f1"/><path d="m452.73 106.8a9.88 9.88 0 0 0 -2.6-4.58l-99.42-99.42a10 10 0 0 0 -7.07-2.93v94.92a12 12 0 0 0 12 12z" fill="#ccc"/><path d="m452.73 106.8h-97.08a12 12 0 0 1 -12-12v10.15c0 6.63 4.12 15 12.38 15h97v-10.66a6.46 6.46 0 0 0 -.3-2.49z" fill="#e8e8e8"/><path d="m472.11 412.17h-432.22a10 10 0 0 1 -10-10v-153.34a10 10 0 0 1 10-10h432.22a10 10 0 0 1 10 10v153.33a10 10 0 0 1 -10 10.01z" fill="#ff4d79"/><path d="m59.21 412.17h393.85v12.97h-393.85z" fill="#e0e0e0"/><g fill="#fff"><path d="m232.09 360.5a7.16 7.16 0 0 1 -2.65 5.6 9 9 0 0 1 -6.06 2.3 7.72 7.72 0 0 1 -4.2-1.2 8.06 8.06 0 0 1 -3-3.6l-4.5-10.11h-32.42l-4.6 10.11a7.82 7.82 0 0 1 -7.31 4.8 9.34 9.34 0 0 1 -6.15-2.3 7.05 7.05 0 0 1 -2.75-5.6 8.62 8.62 0 0 1 .9-3.7l26.41-54.23a9.3 9.3 0 0 1 3.86-4.15 11.64 11.64 0 0 1 11.25 0 9.11 9.11 0 0 1 3.9 4.15l26.42 54.23a8.62 8.62 0 0 1 .9 3.7zm-46.63-20.81h20l-10-22.31z"/><path d="m250.35 367.25a34 34 0 0 1 -11.26-4.85 8.78 8.78 0 0 1 -2.45-2.7 7.57 7.57 0 0 1 -.75-3.6 8 8 0 0 1 1.8-5.21 5.33 5.33 0 0 1 4.2-2.2 8 8 0 0 1 2.5.4 15.66 15.66 0 0 1 3 1.5 32.57 32.57 0 0 0 8.15 3.31 38.64 38.64 0 0 0 9.16 1c3.93 0 6.91-.59 9-1.75a5.62 5.62 0 0 0 3-5.16q0-2.3-2.85-3.95t-10.85-3.25a63.19 63.19 0 0 1 -15.5-5q-5.61-2.91-7.86-6.86a19 19 0 0 1 -2.25-9.55 19.25 19.25 0 0 1 3.8-11.61 25.35 25.35 0 0 1 10.46-8.15 36.45 36.45 0 0 1 15-2.95 48.09 48.09 0 0 1 13 1.6 32.55 32.55 0 0 1 10.41 5 8.12 8.12 0 0 1 2.55 2.75 7.67 7.67 0 0 1 .75 3.55 8.12 8.12 0 0 1 -1.75 5.21 5.2 5.2 0 0 1 -4.15 2.2 8 8 0 0 1 -2.4-.35 16.78 16.78 0 0 1 -3.11-1.55c-.33-.2-1.28-.72-2.85-1.55a22.84 22.84 0 0 0 -5.5-2 29.59 29.59 0 0 0 -6.85-.75 15.26 15.26 0 0 0 -8.21 2 5.89 5.89 0 0 0 -3.1 5.16 4.42 4.42 0 0 0 1.1 3.1 11.11 11.11 0 0 0 4.1 2.35 59.43 59.43 0 0 0 8.91 2.35 60.07 60.07 0 0 1 15.11 5.05 19.42 19.42 0 0 1 7.8 6.86 17.82 17.82 0 0 1 2.3 9.2 19.21 19.21 0 0 1 -3.7 11.66 23.63 23.63 0 0 1 -10.36 7.8 40.09 40.09 0 0 1 -15.49 2.69 59.78 59.78 0 0 1 -14.86-1.75z"/><path d="m307.63 366.2a8.91 8.91 0 0 1 -2.51-6.6v-53.53a7.68 7.68 0 0 1 8.51-8.5h33.62q4.5 0 6.6 1.75t2.1 5.55q0 3.7-2.15 5.4c-1.44 1.14-3.62 1.7-6.55 1.7h-24v13h22c2.94 0 5.12.6 6.56 1.8a6.79 6.79 0 0 1 2.15 5.5q0 3.71-2.15 5.41c-1.44 1.13-3.62 1.7-6.56 1.7h-22v20.22a9 9 0 0 1 -2.45 6.65 10 10 0 0 1 -13.15-.05z"/></g></svg>