<svg id="Artwork" height="512" viewBox="0 0 512 512" width="512" xmlns="http://www.w3.org/2000/svg"><path d="m59.21 215.34-27.01 27.09h27.01z" fill="#dd9536"/><path d="m452.73 215.34 27.02 27.09h-27.02z" fill="#dd9536"/><path d="m453.06 109.29a10 10 0 0 0 -2.93-7.07l-99.42-99.42a10 10 0 0 0 -7.07-2.93h-274.42a10 10 0 0 0 -10 10v492a10 10 0 0 0 10 10h373.84a10 10 0 0 0 10-10z" fill="#f1f1f1"/><path d="m452.73 106.8a9.88 9.88 0 0 0 -2.6-4.58l-99.42-99.42a10 10 0 0 0 -7.07-2.93v94.92a12 12 0 0 0 12 12z" fill="#ccc"/><path d="m452.73 106.8h-97.08a12 12 0 0 1 -12-12v10.15c0 6.63 4.12 15 12.38 15h97v-10.66a6.46 6.46 0 0 0 -.3-2.49z" fill="#e8e8e8"/><path d="m472.11 412.17h-432.22a10 10 0 0 1 -10-10v-153.34a10 10 0 0 1 10-10h432.22a10 10 0 0 1 10 10v153.33a10 10 0 0 1 -10 10.01z" fill="#faaf3a"/><path d="m59.21 412.17h393.85v12.97h-393.85z" fill="#e0e0e0"/><g fill="#fff"><path d="m244.49 358.85a7.13 7.13 0 0 1 -2.65 5.6 9 9 0 0 1 -6.05 2.31 7.6 7.6 0 0 1 -4.2-1.21 8.06 8.06 0 0 1 -3-3.6l-4.51-10.1h-32.41l-4.61 10.15a7.85 7.85 0 0 1 -7.3 4.81 9.31 9.31 0 0 1 -6.15-2.31 7 7 0 0 1 -2.75-5.6 8.62 8.62 0 0 1 .9-3.7l26.41-54.23a9.33 9.33 0 0 1 3.85-4.15 11.65 11.65 0 0 1 11.26 0 9.27 9.27 0 0 1 3.9 4.15l26.41 54.23a8.62 8.62 0 0 1 .9 3.65zm-46.62-20.85h20l-10-22.31z"/><path d="m298.72 296.62a8.38 8.38 0 0 1 4.4-1.2 10.24 10.24 0 0 1 6.51 2.3 7.13 7.13 0 0 1 2.9 5.8 7.78 7.78 0 0 1 -.9 3.5l-26.42 54.53a9.11 9.11 0 0 1 -3.9 4.15 11.47 11.47 0 0 1 -11.2 0 9.19 9.19 0 0 1 -3.91-4.15l-26.41-54.55a7.73 7.73 0 0 1 -.8-3.5 7.09 7.09 0 0 1 3-5.75 10.6 10.6 0 0 1 6.71-2.35 8.66 8.66 0 0 1 4.45 1.2 7.86 7.86 0 0 1 3.15 3.6l19.7 42.64 19.61-42.62a7.88 7.88 0 0 1 3.11-3.6z"/><path d="m321.78 364.6a9 9 0 0 1 -2.45-6.65v-53.53a8.88 8.88 0 0 1 2.45-6.55 9 9 0 0 1 6.66-2.45 9.33 9.33 0 0 1 6.8 2.45 8.76 8.76 0 0 1 2.5 6.55v53.58a8.87 8.87 0 0 1 -2.5 6.65 9.29 9.29 0 0 1 -6.8 2.46 9 9 0 0 1 -6.66-2.51z"/></g></svg>