<svg id="Artwork" height="512" viewBox="0 0 512 512" width="512" xmlns="http://www.w3.org/2000/svg"><path d="m59.21 215.34-27.01 27.09h27.01z" fill="#008275"/><path d="m452.73 215.34 27.02 27.09h-27.02z" fill="#008275"/><path d="m453.06 109.29a10 10 0 0 0 -2.93-7.07l-99.42-99.42a10 10 0 0 0 -7.07-2.93h-274.42a10 10 0 0 0 -10 10v492a10 10 0 0 0 10 10h373.84a10 10 0 0 0 10-10z" fill="#f1f1f1"/><path d="m452.73 106.8a9.88 9.88 0 0 0 -2.6-4.58l-99.42-99.42a10 10 0 0 0 -7.07-2.93v94.92a12 12 0 0 0 12 12z" fill="#ccc"/><path d="m452.73 106.8h-97.08a12 12 0 0 1 -12-12v10.15c0 6.63 4.12 15 12.38 15h97v-10.66a6.46 6.46 0 0 0 -.3-2.49z" fill="#e8e8e8"/><path d="m472.11 412.17h-432.22a10 10 0 0 1 -10-10v-153.34a10 10 0 0 1 10-10h432.22a10 10 0 0 1 10 10v153.33a10 10 0 0 1 -10 10.01z" fill="#00a99d"/><path d="m59.21 412.17h393.85v12.97h-393.85z" fill="#e0e0e0"/><g fill="#fff"><path d="m209.38 336.19a17.89 17.89 0 0 1 3.3 11 17.25 17.25 0 0 1 -3.05 10.15 19.75 19.75 0 0 1 -8.71 6.75 33.56 33.56 0 0 1 -13.25 2.4h-26.62a7.68 7.68 0 0 1 -8.5-8.5v-53.57a7.68 7.68 0 0 1 8.5-8.5h25.62q11.1 0 17.65 4.95a15.88 15.88 0 0 1 6.56 13.36 16.27 16.27 0 0 1 -2.9 9.55 16.52 16.52 0 0 1 -8.11 6.06 17.88 17.88 0 0 1 9.51 6.35zm-38.92-12.56h13.1q5.2 0 7.61-1.6a5.67 5.67 0 0 0 2.4-5.1q0-3.71-2.4-5.4c-1.6-1.14-4.14-1.7-7.61-1.7h-13.1zm22.76 27.17c1.56-1.17 2.35-3.09 2.35-5.76s-.79-4.58-2.35-5.75-4.19-1.75-7.86-1.75h-14.9v15h14.9c3.64.01 6.29-.54 7.86-1.74z"/><path d="m290.92 297.92a9 9 0 0 1 2.4 6.5v54.43a8.11 8.11 0 0 1 -2.2 6 8.66 8.66 0 0 1 -11.56 0 8 8 0 0 1 -2.25-6v-29.41l-11.4 21a13 13 0 0 1 -3.61 4.56 8.17 8.17 0 0 1 -9 0 12.86 12.86 0 0 1 -3.6-4.55l-11.31-20.45v28.81a8 8 0 0 1 -2.25 5.95 8.66 8.66 0 0 1 -11.61.05 8 8 0 0 1 -2.25-6v-54.39a8.92 8.92 0 0 1 2.45-6.5 8.84 8.84 0 0 1 11.16-.95 12.06 12.06 0 0 1 3.7 4.45l18.41 34.58 18.31-34.62q3.1-6 8.4-6a8.21 8.21 0 0 1 6.21 2.54z"/><path d="m308.78 364.6a9 9 0 0 1 -2.46-6.65v-53.53a7.69 7.69 0 0 1 8.51-8.5h25.61q11.71 0 18.21 5.95t6.51 16.56q0 10.5-6.56 16.51t-18.16 6h-15.71v17a8.87 8.87 0 0 1 -2.5 6.65 9.26 9.26 0 0 1 -6.8 2.46 9 9 0 0 1 -6.65-2.45zm29.16-37.46c3.4 0 5.92-.71 7.56-2.11s2.45-3.56 2.45-6.5q0-8.7-10-8.7h-13.22v17.31z"/></g></svg>