<svg id="Artwork" height="512" viewBox="0 0 512 512" width="512" xmlns="http://www.w3.org/2000/svg"><path d="m59.21 215.34-27.01 27.09h27.01z" fill="#9a439e"/><path d="m452.73 215.34 27.02 27.09h-27.02z" fill="#9a439e"/><path d="m453.06 109.29a10 10 0 0 0 -2.93-7.07l-99.42-99.42a10 10 0 0 0 -7.07-2.93h-274.42a10 10 0 0 0 -10 10v492a10 10 0 0 0 10 10h373.84a10 10 0 0 0 10-10z" fill="#f1f1f1"/><path d="m452.73 106.8a9.88 9.88 0 0 0 -2.6-4.58l-99.42-99.42a10 10 0 0 0 -7.07-2.93v94.92a12 12 0 0 0 12 12z" fill="#ccc"/><path d="m452.73 106.8h-97.08a12 12 0 0 1 -12-12v10.15c0 6.63 4.12 15 12.38 15h97v-10.66a6.46 6.46 0 0 0 -.3-2.49z" fill="#e8e8e8"/><path d="m472.11 412.17h-432.22a10 10 0 0 1 -10-10v-153.34a10 10 0 0 1 10-10h432.22a10 10 0 0 1 10 10v153.33a10 10 0 0 1 -10 10.01z" fill="#be4fc1"/><path d="m59.21 412.17h393.85v12.97h-393.85z" fill="#e0e0e0"/><g fill="#fff"><path d="m170.21 364.6a30.24 30.24 0 0 1 -12.31-12.6 44.35 44.35 0 0 1 0-38.31 30.24 30.24 0 0 1 12.31-12.61 40.87 40.87 0 0 1 40.87 2.3 7.83 7.83 0 0 1 2.45 2.6 7.63 7.63 0 0 1 .75 3.6 8.12 8.12 0 0 1 -1.75 5.26 5.33 5.33 0 0 1 -4.25 2.15 7.7 7.7 0 0 1 -2.71-.45 16.83 16.83 0 0 1 -2.8-1.45 28.73 28.73 0 0 0 -6.6-3 22.86 22.86 0 0 0 -6.4-.9q-8.91 0-13.26 5.36c-2.9 3.56-4.35 9-4.35 16.25s1.45 12.8 4.35 16.36 7.32 5.36 13.26 5.36a18 18 0 0 0 5.8-.95c1.87-.64 4.27-1.62 7.2-3 1.4-.73 2.44-1.23 3.1-1.5a6.64 6.64 0 0 1 2.41-.4 5.33 5.33 0 0 1 4.25 2.15 8.12 8.12 0 0 1 1.75 5.26 7.67 7.67 0 0 1 -.75 3.55 7.59 7.59 0 0 1 -2.45 2.65 40.87 40.87 0 0 1 -40.87 2.3z"/><path d="m225.38 365.9a8.55 8.55 0 0 1 -2.2-6.3v-53.53a7.68 7.68 0 0 1 8.51-8.5h20.21q11.7 0 20.16 4.25a30.15 30.15 0 0 1 12.94 12.18q4.51 7.9 4.51 18.81t-4.46 19a29.32 29.32 0 0 1 -12.9 12.16q-8.46 4.2-20.26 4.2h-20.2a8.53 8.53 0 0 1 -6.31-2.27zm25.22-12.6q10.31 0 15.45-5.06t5.16-15.46q0-10.39-5.16-15.4t-15.45-5h-9v40.92z"/><path d="m361.65 361.5a6.62 6.62 0 0 1 -2.65 5.35 9.82 9.82 0 0 1 -10.65 1 9.92 9.92 0 0 1 -3.61-3.3l-13-19a10.43 10.43 0 0 0 -2.95-2.95 6.9 6.9 0 0 0 -3.66-.95h-6.5v17.95a9.09 9.09 0 0 1 -2.4 6.65 8.79 8.79 0 0 1 -6.6 2.45 8.46 8.46 0 0 1 -9.11-9.1v-53.53a7.68 7.68 0 0 1 8.51-8.5h25.11q12.81 0 19.26 5.55t6.45 16.06a21.14 21.14 0 0 1 -4.4 13.55 21.59 21.59 0 0 1 -12.45 7.46 13.55 13.55 0 0 1 5.76 2.2 20.45 20.45 0 0 1 4.85 5.1l6.2 8.91a9.3 9.3 0 0 1 1.84 5.1zm-21.65-35.5c1.77-1.27 2.65-3.33 2.65-6.2s-.88-5.06-2.65-6.35-4.68-2-8.75-2h-12.82v16.41h12.81c4.07.02 6.98-.61 8.76-1.86z"/></g></svg>