<svg id="Artwork" height="512" viewBox="0 0 512 512" width="512" xmlns="http://www.w3.org/2000/svg"><path d="m59.21 215.34-27.01 27.09h27.01z" fill="#008275"/><path d="m452.73 215.34 27.02 27.09h-27.02z" fill="#008275"/><path d="m453.06 109.29a10 10 0 0 0 -2.93-7.07l-99.42-99.42a10 10 0 0 0 -7.07-2.93h-274.42a10 10 0 0 0 -10 10v492a10 10 0 0 0 10 10h373.84a10 10 0 0 0 10-10z" fill="#f1f1f1"/><path d="m452.73 106.8a9.88 9.88 0 0 0 -2.6-4.58l-99.42-99.42a10 10 0 0 0 -7.07-2.93v94.92a12 12 0 0 0 12 12z" fill="#ccc"/><path d="m452.73 106.8h-97.08a12 12 0 0 1 -12-12v10.15c0 6.63 4.12 15 12.38 15h97v-10.66a6.46 6.46 0 0 0 -.3-2.49z" fill="#e8e8e8"/><path d="m472.11 412.17h-432.22a10 10 0 0 1 -10-10v-153.34a10 10 0 0 1 10-10h432.22a10 10 0 0 1 10 10v153.33a10 10 0 0 1 -10 10.01z" fill="#00a99d"/><path d="m59.21 412.17h393.85v12.97h-393.85z" fill="#e0e0e0"/><g fill="#fff"><path d="m162.8 364.25a8.49 8.49 0 0 1 -2.2-6.3v-53.53a7.68 7.68 0 0 1 8.51-8.5h20.21q11.7 0 20.16 4.25a30.12 30.12 0 0 1 13 12.16q4.51 7.91 4.51 18.81t-4.46 19a29.41 29.41 0 0 1 -12.9 12.15q-8.46 4.2-20.26 4.21h-20.26a8.54 8.54 0 0 1 -6.31-2.25zm25.2-12.6q10.29 0 15.45-5.06t5.16-15.45q0-10.41-5.16-15.41t-15.45-5h-9v40.92z"/><path d="m304.27 358.85a7.13 7.13 0 0 1 -2.65 5.6 8.93 8.93 0 0 1 -6.05 2.31 7.6 7.6 0 0 1 -4.2-1.21 8.06 8.06 0 0 1 -3-3.6l-4.51-10.1h-32.41l-4.61 10.15a8 8 0 0 1 -3.05 3.6 7.86 7.86 0 0 1 -4.25 1.21 9.31 9.31 0 0 1 -6.15-2.31 7 7 0 0 1 -2.75-5.6 8.62 8.62 0 0 1 .9-3.7l26.46-54.28a9.33 9.33 0 0 1 3.85-4.15 11.65 11.65 0 0 1 11.26 0 9.27 9.27 0 0 1 3.9 4.15l26.41 54.23a8.62 8.62 0 0 1 .85 3.7zm-46.62-20.85h20l-10-22.31z"/><path d="m321.23 364.5a8.65 8.65 0 0 1 -2.55-6.55v-47.12h-14.11c-2.93 0-5.12-.62-6.55-1.85s-2.15-3.12-2.15-5.66.72-4.4 2.15-5.6 3.62-1.8 6.55-1.8h46.83c2.93 0 5.12.6 6.55 1.8s2.15 3.07 2.15 5.6-.72 4.42-2.15 5.66-3.62 1.85-6.55 1.85h-14.11v47.17a8.65 8.65 0 0 1 -2.55 6.55 10.5 10.5 0 0 1 -13.51 0z"/></g></svg>