<svg id="Artwork" height="512" viewBox="0 0 512 512" width="512" xmlns="http://www.w3.org/2000/svg"><path d="m59.21 215.34-27.01 27.09h27.01z" fill="#008275"/><path d="m452.73 215.34 27.02 27.09h-27.02z" fill="#008275"/><path d="m453.06 109.29a10 10 0 0 0 -2.93-7.07l-99.42-99.42a10 10 0 0 0 -7.07-2.93h-274.42a10 10 0 0 0 -10 10v492a10 10 0 0 0 10 10h373.84a10 10 0 0 0 10-10z" fill="#f1f1f1"/><path d="m452.73 106.8a9.88 9.88 0 0 0 -2.6-4.58l-99.42-99.42a10 10 0 0 0 -7.07-2.93v94.92a12 12 0 0 0 12 12z" fill="#ccc"/><path d="m452.73 106.8h-97.08a12 12 0 0 1 -12-12v10.15c0 6.63 4.12 15 12.38 15h97v-10.66a6.46 6.46 0 0 0 -.3-2.49z" fill="#e8e8e8"/><path d="m472.11 412.17h-432.22a10 10 0 0 1 -10-10v-153.34a10 10 0 0 1 10-10h432.22a10 10 0 0 1 10 10v153.33a10 10 0 0 1 -10 10.01z" fill="#00a99d"/><path d="m59.21 412.17h393.85v12.97h-393.85z" fill="#e0e0e0"/><g fill="#fff"><path d="m139.59 364.25a8.49 8.49 0 0 1 -2.2-6.3v-53.53a7.68 7.68 0 0 1 8.5-8.5h20.21q11.72 0 20.16 4.25a30.09 30.09 0 0 1 13 12.16q4.5 7.91 4.5 18.81t-4.45 19a29.41 29.41 0 0 1 -12.9 12.15q-8.46 4.2-20.27 4.2h-20.25a8.52 8.52 0 0 1 -6.3-2.24zm25.21-12.6q10.3 0 15.46-5.06t5.15-15.45q0-10.41-5.15-15.41t-15.46-5h-9v40.92z"/><path d="m217.18 364.6a9 9 0 0 1 -2.45-6.65v-53.53a8.88 8.88 0 0 1 2.45-6.55 9 9 0 0 1 6.65-2.45 9.33 9.33 0 0 1 6.81 2.45 8.79 8.79 0 0 1 2.5 6.55v53.58a8.91 8.91 0 0 1 -2.5 6.65 9.3 9.3 0 0 1 -6.81 2.46 9 9 0 0 1 -6.65-2.51z"/><path d="m299.67 296.62a8.42 8.42 0 0 1 4.41-1.2 10.23 10.23 0 0 1 6.5 2.3 7.13 7.13 0 0 1 2.9 5.8 7.78 7.78 0 0 1 -.9 3.5l-26.41 54.53a9.19 9.19 0 0 1 -3.91 4.15 11.47 11.47 0 0 1 -11.2 0 9.11 9.11 0 0 1 -3.9-4.15l-26.42-54.55a7.73 7.73 0 0 1 -.8-3.5 7.09 7.09 0 0 1 3-5.75 10.6 10.6 0 0 1 6.71-2.35 8.66 8.66 0 0 1 4.45 1.2 7.75 7.75 0 0 1 3.15 3.6l19.75 42.64 19.61-42.62a7.88 7.88 0 0 1 3.06-3.6z"/><path d="m380.51 358.65a8 8 0 0 1 -2.65 6 8.35 8.35 0 0 1 -5.95 2.56 7.82 7.82 0 0 1 -6.1-3l-17.21-20.67-17.51 20.61a7.77 7.77 0 0 1 -6 3 8.29 8.29 0 0 1 -5.95-2.61 8.15 8.15 0 0 1 -2.65-6 8.25 8.25 0 0 1 2.1-5.4l19.21-22.21-18.71-21.71a8.3 8.3 0 0 1 -2.2-5.41 8 8 0 0 1 2.65-5.95 8.5 8.5 0 0 1 6.05-2.55 7.87 7.87 0 0 1 6.11 3l16.91 20 16.81-20a7.29 7.29 0 0 1 5.9-3 8.5 8.5 0 0 1 6.05 2.55 8 8 0 0 1 2.65 5.95 8.26 8.26 0 0 1 -2.1 5.41l-18.72 21.72 19.11 22.21a8.14 8.14 0 0 1 2.2 5.5z"/></g></svg>