<svg id="Artwork" height="512" viewBox="0 0 512 512" width="512" xmlns="http://www.w3.org/2000/svg"><path d="m59.21 215.34-27.01 27.09h27.01z" fill="#9a439e"/><path d="m452.73 215.34 27.02 27.09h-27.02z" fill="#9a439e"/><path d="m453.06 109.29a10 10 0 0 0 -2.93-7.07l-99.42-99.42a10 10 0 0 0 -7.07-2.93h-274.42a10 10 0 0 0 -10 10v492a10 10 0 0 0 10 10h373.84a10 10 0 0 0 10-10z" fill="#f1f1f1"/><path d="m452.73 106.8a9.88 9.88 0 0 0 -2.6-4.58l-99.42-99.42a10 10 0 0 0 -7.07-2.93v94.92a12 12 0 0 0 12 12z" fill="#ccc"/><path d="m452.73 106.8h-97.08a12 12 0 0 1 -12-12v10.15c0 6.63 4.12 15 12.38 15h97v-10.66a6.46 6.46 0 0 0 -.3-2.49z" fill="#e8e8e8"/><path d="m472.11 412.17h-432.22a10 10 0 0 1 -10-10v-153.34a10 10 0 0 1 10-10h432.22a10 10 0 0 1 10 10v153.33a10 10 0 0 1 -10 10.01z" fill="#be4fc1"/><path d="m59.21 412.17h393.85v12.97h-393.85z" fill="#e0e0e0"/><g fill="#fff"><path d="m169.61 366.88a8.52 8.52 0 0 1 -2.2-6.3v-53.53a7.69 7.69 0 0 1 8.5-8.51h20.21q11.7 0 20.16 4.26a30.06 30.06 0 0 1 13 12.15q4.5 7.91 4.5 18.81t-4.45 19a29.35 29.35 0 0 1 -12.91 12.16q-8.46 4.2-20.26 4.2h-20.25a8.49 8.49 0 0 1 -6.3-2.24zm25.21-12.61q10.31 0 15.46-5t5.15-15.46q0-10.39-5.15-15.4t-15.46-5h-9v40.92z"/><path d="m247 366.88q-2.2-2.2-2.21-6.4v-53.43a8.83 8.83 0 0 1 2.46-6.55 9 9 0 0 1 6.65-2.46 9.27 9.27 0 0 1 6.8 2.46 8.74 8.74 0 0 1 2.5 6.55v47.12h23q8.7 0 8.7 7.51 0 3.79-2.15 5.6t-6.55 1.8h-32.95a8.49 8.49 0 0 1 -6.25-2.2z"/><path d="m304.17 366.88c-1.46-1.47-2.2-3.6-2.2-6.4v-53.43a8.87 8.87 0 0 1 2.45-6.55 9 9 0 0 1 6.66-2.46 9.29 9.29 0 0 1 6.8 2.46 8.74 8.74 0 0 1 2.5 6.55v47.12h23q8.72 0 8.71 7.51 0 3.79-2.15 5.6c-1.44 1.2-3.62 1.8-6.56 1.8h-32.9a8.53 8.53 0 0 1 -6.31-2.2z"/></g></svg>