<svg id="Artwork" height="512" viewBox="0 0 512 512" width="512" xmlns="http://www.w3.org/2000/svg"><path d="m59.21 215.34-27.01 27.09h27.01z" fill="#c95623"/><path d="m452.73 215.34 27.02 27.09h-27.02z" fill="#c95623"/><path d="m453.06 109.29a10 10 0 0 0 -2.93-7.07l-99.42-99.42a10 10 0 0 0 -7.07-2.93h-274.42a10 10 0 0 0 -10 10v492a10 10 0 0 0 10 10h373.84a10 10 0 0 0 10-10z" fill="#f1f1f1"/><path d="m452.73 106.8a9.88 9.88 0 0 0 -2.6-4.58l-99.42-99.42a10 10 0 0 0 -7.07-2.93v94.92a12 12 0 0 0 12 12z" fill="#ccc"/><path d="m452.73 106.8h-97.08a12 12 0 0 1 -12-12v10.15c0 6.63 4.12 15 12.38 15h97v-10.66a6.46 6.46 0 0 0 -.3-2.49z" fill="#e8e8e8"/><path d="m472.11 412.17h-432.22a10 10 0 0 1 -10-10v-153.34a10 10 0 0 1 10-10h432.22a10 10 0 0 1 10 10v153.33a10 10 0 0 1 -10 10.01z" fill="#ff732b"/><path d="m59.21 412.17h393.85v12.97h-393.85z" fill="#e0e0e0"/><g fill="#fff"><path d="m147.49 369.72a8.56 8.56 0 0 1 -2.2-6.3v-53.53a7.68 7.68 0 0 1 8.51-8.5h20.2q11.7 0 20.16 4.25a30.18 30.18 0 0 1 13 12.15q4.5 7.9 4.5 18.81t-4.45 19a29.4 29.4 0 0 1 -12.91 12.16q-8.46 4.2-20.26 4.2h-20.24a8.53 8.53 0 0 1 -6.31-2.24zm25.22-12.6q10.31 0 15.46-5.06t5.15-15.46q0-10.39-5.15-15.4t-15.46-5h-9v40.93z"/><path d="m291.47 303.39a9 9 0 0 1 2.4 6.5v54.43a8.13 8.13 0 0 1 -2.2 6 8.69 8.69 0 0 1 -11.56 0 8 8 0 0 1 -2.25-6v-29.42l-11.4 21a12.93 12.93 0 0 1 -3.61 4.56 8.18 8.18 0 0 1 -9 0 12.81 12.81 0 0 1 -3.6-4.56l-11.31-20.4v28.82a8 8 0 0 1 -2.25 5.95 8.69 8.69 0 0 1 -11.61.05 8 8 0 0 1 -2.25-6v-54.43a8.9 8.9 0 0 1 2.45-6.5 8.39 8.39 0 0 1 6.26-2.5 8.27 8.27 0 0 1 4.9 1.55 12.06 12.06 0 0 1 3.7 4.45l18.41 34.62 18.31-34.62q3.11-6 8.4-6a8.21 8.21 0 0 1 6.21 2.5z"/><path d="m367.36 334a6.52 6.52 0 0 1 1.95 4.95v17.41a29.82 29.82 0 0 1 -.75 7.66 7.69 7.69 0 0 1 -2.7 4.15 17.57 17.57 0 0 1 -5.86 2.6 63.41 63.41 0 0 1 -8.65 1.55 76.61 76.61 0 0 1 -8.86.55q-11.5 0-20-4.35a30.26 30.26 0 0 1 -12.91-12.52q-4.5-8.15-4.51-19.36a39.07 39.07 0 0 1 4.51-19.16 30.79 30.79 0 0 1 12.8-12.55 40.81 40.81 0 0 1 19.41-4.4 44.08 44.08 0 0 1 12.56 1.65 35.2 35.2 0 0 1 10.36 5.05 7.83 7.83 0 0 1 2.45 2.6 7.63 7.63 0 0 1 .75 3.6 8.21 8.21 0 0 1 -1.7 5.25 5.08 5.08 0 0 1 -4.11 2.16 7.58 7.58 0 0 1 -2.75-.45 19.93 19.93 0 0 1 -3-1.56 34.1 34.1 0 0 0 -6.95-2.9 26.4 26.4 0 0 0 -7.06-.9q-9.5 0-14.15 5.31t-4.66 16.3q0 11.31 4.86 16.76t14.85 5.46a46 46 0 0 0 9.51-1v-13.15h-7.2a7.29 7.29 0 0 1 -5.11-1.65 6.92 6.92 0 0 1 0-9.31 7.29 7.29 0 0 1 5.11-1.65h16.5a7.34 7.34 0 0 1 5.31 1.9z"/></g></svg>