<svg id="Artwork" height="512" viewBox="0 0 512 512" width="512" xmlns="http://www.w3.org/2000/svg"><path d="m453.06 109.29a10 10 0 0 0 -2.93-7.07l-99.42-99.42a10 10 0 0 0 -7.07-2.93h-274.42a10 10 0 0 0 -10 10v492a10 10 0 0 0 10 10h373.84a10 10 0 0 0 10-10z" fill="#f1f1f1"/><path d="m452.73 106.8a9.88 9.88 0 0 0 -2.6-4.58l-99.42-99.42a10 10 0 0 0 -7.07-2.93v94.92a12 12 0 0 0 12 12z" fill="#ccc"/><path d="m452.73 106.8h-97.08a12 12 0 0 1 -12-12v10.15c0 6.63 4.12 15 12.38 15h97v-10.66a6.46 6.46 0 0 0 -.3-2.49z" fill="#e8e8e8"/><path d="m59.21 215.34-27.01 27.09h27.01z" fill="#dd9536"/><path d="m452.73 215.34 27.02 27.09h-27.02z" fill="#dd9536"/><path d="m472.11 412.17h-432.22a10 10 0 0 1 -10-10v-153.34a10 10 0 0 1 10-10h432.22a10 10 0 0 1 10 10v153.33a10 10 0 0 1 -10 10.01z" fill="#faaf3a"/><path d="m59.21 412.17h393.85v12.97h-393.85z" fill="#e0e0e0"/><g fill="#fff"><path d="m168.56 364.25a8.49 8.49 0 0 1 -2.2-6.3v-53.53a7.68 7.68 0 0 1 8.5-8.5h34.62q4.29 0 6.5 1.8a6.33 6.33 0 0 1 2.2 5.2q0 7.2-8.7 7.21h-25.22v13.4h23.22q8.7 0 8.7 7.11a6.32 6.32 0 0 1 -2.2 5.2q-2.21 1.8-6.5 1.8h-23.22v14.61h25.22q8.7 0 8.7 7.2a6.32 6.32 0 0 1 -2.2 5.2c-1.47 1.2-3.64 1.81-6.5 1.81h-34.62a8.5 8.5 0 0 1 -6.3-2.21z"/><path d="m228.54 364.6a9 9 0 0 1 -2.46-6.65v-53.53a7.69 7.69 0 0 1 8.51-8.5h25.61q11.71 0 18.21 5.95t6.51 16.56q0 10.5-6.56 16.51t-18.16 6h-15.71v17a8.87 8.87 0 0 1 -2.5 6.65 9.27 9.27 0 0 1 -6.8 2.46 9 9 0 0 1 -6.65-2.45zm29.16-37.46c3.4 0 5.92-.71 7.55-2.11s2.46-3.56 2.46-6.5q0-8.7-10-8.7h-13.22v17.31z"/><path d="m305.47 365.6a33.81 33.81 0 0 1 -11.25-4.85 8.45 8.45 0 0 1 -2.45-2.7 7.57 7.57 0 0 1 -.75-3.6 8 8 0 0 1 1.8-5.2 5.3 5.3 0 0 1 4.2-2.2 7.75 7.75 0 0 1 2.5.4 14.78 14.78 0 0 1 3 1.5 33 33 0 0 0 8.16 3.3 38.1 38.1 0 0 0 9.15 1c3.94 0 6.92-.58 9-1.75a5.62 5.62 0 0 0 3-5.16q0-2.29-2.85-3.95t-10.86-3.25a63.43 63.43 0 0 1 -15.51-5q-5.6-2.91-7.85-6.85a20.39 20.39 0 0 1 1.55-21.17 25.39 25.39 0 0 1 10.46-8.12 36.48 36.48 0 0 1 15-3 48.11 48.11 0 0 1 13 1.6 32.82 32.82 0 0 1 10.4 5 8.15 8.15 0 0 1 2.56 2.75 7.68 7.68 0 0 1 .75 3.56 8.1 8.1 0 0 1 -1.76 5.2 5.16 5.16 0 0 1 -4.15 2.2 8 8 0 0 1 -2.4-.35 16.14 16.14 0 0 1 -3.1-1.55c-.33-.2-1.29-.72-2.85-1.55a22.84 22.84 0 0 0 -5.5-2 29.68 29.68 0 0 0 -6.86-.75 15.22 15.22 0 0 0 -8.2 1.95 5.87 5.87 0 0 0 -3.1 5.15 4.37 4.37 0 0 0 1.1 3.1 11 11 0 0 0 4.1 2.35 59.58 59.58 0 0 0 8.9 2.35 59.5 59.5 0 0 1 15.11 5.06 19.2 19.2 0 0 1 7.8 6.85 17.73 17.73 0 0 1 2.31 9.2 19.19 19.19 0 0 1 -3.71 11.66 23.6 23.6 0 0 1 -10.35 7.8 40.14 40.14 0 0 1 -15.46 2.76 59.77 59.77 0 0 1 -14.89-1.74z"/></g></svg>