<svg id="Artwork" height="512" viewBox="0 0 512 512" width="512" xmlns="http://www.w3.org/2000/svg"><path d="m59.21 215.34-27.01 27.09h27.01z" fill="#088faf"/><path d="m452.73 215.34 27.02 27.09h-27.02z" fill="#088faf"/><path d="m453.06 109.29a10 10 0 0 0 -2.93-7.07l-99.42-99.42a10 10 0 0 0 -7.07-2.93h-274.42a10 10 0 0 0 -10 10v492a10 10 0 0 0 10 10h373.84a10 10 0 0 0 10-10z" fill="#f1f1f1"/><path d="m452.73 106.8a9.88 9.88 0 0 0 -2.6-4.58l-99.42-99.42a10 10 0 0 0 -7.07-2.93v94.92a12 12 0 0 0 12 12z" fill="#ccc"/><path d="m452.73 106.8h-97.08a12 12 0 0 1 -12-12v10.15c0 6.63 4.12 15 12.38 15h97v-10.66a6.46 6.46 0 0 0 -.3-2.49z" fill="#e8e8e8"/><path d="m472.11 412.17h-432.22a10 10 0 0 1 -10-10v-153.34a10 10 0 0 1 10-10h432.22a10 10 0 0 1 10 10v153.33a10 10 0 0 1 -10 10.01z" fill="#29abe1"/><path d="m59.21 412.17h393.85v12.97h-393.85z" fill="#e0e0e0"/><g fill="#fff"><path d="m171.66 365.9a8.51 8.51 0 0 1 -2.2-6.3v-53.53a7.68 7.68 0 0 1 8.5-8.5h34.62c2.87 0 5 .6 6.5 1.8a6.32 6.32 0 0 1 2.2 5.2q0 7.2-8.7 7.2h-25.21v13.41h23.21q8.7 0 8.7 7.1a6.34 6.34 0 0 1 -2.2 5.21q-2.21 1.8-6.5 1.8h-23.21v14.61h25.21q8.7 0 8.7 7.2a6.32 6.32 0 0 1 -2.2 5.2c-1.47 1.2-3.63 1.8-6.5 1.8h-34.58a8.51 8.51 0 0 1 -6.34-2.2z"/><path d="m288.72 360.3a8 8 0 0 1 -2.65 5.95 8.4 8.4 0 0 1 -6 2.55 7.86 7.86 0 0 1 -6.1-3l-17.17-20.61-17.51 20.61a7.75 7.75 0 0 1 -6 3 8.26 8.26 0 0 1 -5.95-2.6 8 8 0 0 1 -.55-11.4l19.21-22.22-18.7-21.71a8.27 8.27 0 0 1 -2.21-5.4 8 8 0 0 1 2.66-6 8.47 8.47 0 0 1 6-2.55 7.86 7.86 0 0 1 6.1 3l16.91 20 16.81-20a7.3 7.3 0 0 1 5.9-3 8.51 8.51 0 0 1 6.06 2.55 8 8 0 0 1 2.65 6 8.21 8.21 0 0 1 -2.1 5.4l-18.71 21.71 19.11 22.22a8.17 8.17 0 0 1 2.24 5.5z"/><path d="m299.62 365.9a8.51 8.51 0 0 1 -2.2-6.3v-53.53a7.68 7.68 0 0 1 8.5-8.5h34.62q4.31 0 6.51 1.8a6.35 6.35 0 0 1 2.2 5.2q0 7.2-8.71 7.2h-25.21v13.41h23.21q8.7 0 8.71 7.1a6.34 6.34 0 0 1 -2.21 5.21q-2.19 1.8-6.5 1.8h-23.21v14.61h25.21q8.71 0 8.71 7.2a6.35 6.35 0 0 1 -2.2 5.2q-2.21 1.8-6.51 1.8h-34.62a8.52 8.52 0 0 1 -6.3-2.2z"/></g></svg>