<svg id="Artwork" height="512" viewBox="0 0 512 512" width="512" xmlns="http://www.w3.org/2000/svg">
<path d="m453.06 109.29a10 10 0 0 0 -2.93-7.07l-99.42-99.42a10 10 0 0 0 -7.07-2.93h-274.42a10 10 0 0 0 -10 10v492a10 10 0 0 0 10 10h373.84a10 10 0 0 0 10-10z" fill="#f1f1f1"/>
<path d="m452.73 106.8a9.88 9.88 0 0 0 -2.6-4.58l-99.42-99.42a10 10 0 0 0 -7.07-2.93v94.92a12 12 0 0 0 12 12z" fill="#ccc"/>
<path d="m452.73 106.8h-97.08a12 12 0 0 1 -12-12v10.15c0 6.63 4.12 15 12.38 15h97v-10.66a6.46 6.46 0 0 0 -.3-2.49z" fill="#e8e8e8"/></svg>