<svg id="Artwork" height="512" viewBox="0 0 512 512" width="512" xmlns="http://www.w3.org/2000/svg"><path d="m453.06 109.29a10 10 0 0 0 -2.93-7.07l-99.42-99.42a10 10 0 0 0 -7.07-2.93h-274.42a10 10 0 0 0 -10 10v492a10 10 0 0 0 10 10h373.84a10 10 0 0 0 10-10z" fill="#f1f1f1"/><path d="m452.73 106.8a9.88 9.88 0 0 0 -2.6-4.58l-99.42-99.42a10 10 0 0 0 -7.07-2.93v94.92a12 12 0 0 0 12 12z" fill="#ccc"/><path d="m452.73 106.8h-97.08a12 12 0 0 1 -12-12v10.15c0 6.63 4.12 15 12.38 15h97v-10.66a6.46 6.46 0 0 0 -.3-2.49z" fill="#e8e8e8"/><path d="m59.21 215.34-27.01 27.09h27.01z" fill="#c6406d"/><path d="m452.73 215.34 27.02 27.09h-27.02z" fill="#c6406d"/><path d="m472.11 412.17h-432.22a10 10 0 0 1 -10-10v-153.34a10 10 0 0 1 10-10h432.22a10 10 0 0 1 10 10v153.33a10 10 0 0 1 -10 10.01z" fill="#ff4d79"/><path d="m59.21 412.17h393.85v12.97h-393.85z" fill="#e0e0e0"/><g fill="#fff"><path d="m170 364.55a8.89 8.89 0 0 1 -2.5-6.6v-53.53a7.68 7.68 0 0 1 8.5-8.5h33.62q4.5 0 6.6 1.75t2.1 5.55q0 3.7-2.15 5.41c-1.43 1.13-3.62 1.7-6.55 1.7h-24v13h22c2.93 0 5.12.6 6.55 1.8s2.15 3 2.15 5.51-.72 4.27-2.15 5.4-3.62 1.7-6.55 1.7h-22v20.26a9 9 0 0 1 -2.45 6.65 9.94 9.94 0 0 1 -13.15-.05z"/><path d="m227.54 364.25c-1.47-1.46-2.21-3.6-2.21-6.4v-53.43a8.85 8.85 0 0 1 2.46-6.55 9 9 0 0 1 6.65-2.45 9.31 9.31 0 0 1 6.8 2.45 8.76 8.76 0 0 1 2.5 6.55v47.13h23q8.7 0 8.7 7.5c0 2.54-.72 4.4-2.15 5.6s-3.62 1.81-6.55 1.81h-32.9a8.5 8.5 0 0 1 -6.3-2.21z"/><path d="m351.4 358.85a7.16 7.16 0 0 1 -2.65 5.6 9 9 0 0 1 -6.06 2.31 7.65 7.65 0 0 1 -4.2-1.21 8.06 8.06 0 0 1 -3-3.6l-4.5-10.1h-32.42l-4.57 10.15a8 8 0 0 1 -3.05 3.6 7.9 7.9 0 0 1 -4.26 1.21 9.35 9.35 0 0 1 -6.15-2.31 7.05 7.05 0 0 1 -2.75-5.6 8.62 8.62 0 0 1 .9-3.7l26.41-54.23a9.35 9.35 0 0 1 3.86-4.15 11.64 11.64 0 0 1 11.25 0 9.16 9.16 0 0 1 3.9 4.15l26.42 54.23a8.62 8.62 0 0 1 .87 3.65zm-46.63-20.85h20l-10-22.31z"/></g></svg>