<svg id="Artwork" height="512" viewBox="0 0 512 512" width="512" xmlns="http://www.w3.org/2000/svg"><path d="m59.21 215.34-27.01 27.09h27.01z" fill="#dd9536"/><path d="m452.73 215.34 27.02 27.09h-27.02z" fill="#dd9536"/><path d="m453.06 109.29a10 10 0 0 0 -2.93-7.07l-99.42-99.42a10 10 0 0 0 -7.07-2.93h-274.42a10 10 0 0 0 -10 10v492a10 10 0 0 0 10 10h373.84a10 10 0 0 0 10-10z" fill="#f1f1f1"/><path d="m452.73 106.8a9.88 9.88 0 0 0 -2.6-4.58l-99.42-99.42a10 10 0 0 0 -7.07-2.93v94.92a12 12 0 0 0 12 12z" fill="#ccc"/><path d="m452.73 106.8h-97.08a12 12 0 0 1 -12-12v10.15c0 6.63 4.12 15 12.38 15h97v-10.66a6.46 6.46 0 0 0 -.3-2.49z" fill="#e8e8e8"/><path d="m472.11 412.17h-432.22a10 10 0 0 1 -10-10v-153.34a10 10 0 0 1 10-10h432.22a10 10 0 0 1 10 10v153.33a10 10 0 0 1 -10 10.01z" fill="#faaf3a"/><path d="m59.21 412.17h393.85v12.97h-393.85z" fill="#e0e0e0"/><g fill="#fff"><path d="m176.51 364.55a8.89 8.89 0 0 1 -2.51-6.55v-53.58a7.68 7.68 0 0 1 8.5-8.5h33.62q4.5 0 6.6 1.75t2.1 5.55c0 2.47-.71 4.27-2.15 5.41s-3.62 1.7-6.55 1.7h-24v13h22c2.93 0 5.12.6 6.55 1.8s2.15 3 2.15 5.51-.71 4.27-2.15 5.4-3.62 1.7-6.55 1.7h-22v20.26a9 9 0 0 1 -2.46 6.65 8.82 8.82 0 0 1 -6.55 2.46 8.91 8.91 0 0 1 -6.6-2.56z"/><path d="m234 364.25c-1.47-1.46-2.2-3.6-2.2-6.4v-53.43a8.84 8.84 0 0 1 2.45-6.55 9 9 0 0 1 6.65-2.45 9.29 9.29 0 0 1 6.8 2.45 8.76 8.76 0 0 1 2.5 6.55v47.13h23q8.7 0 8.7 7.5c0 2.54-.72 4.4-2.15 5.61s-3.62 1.79-6.55 1.79h-32.86a8.49 8.49 0 0 1 -6.34-2.2z"/><path d="m332 296.62a8.38 8.38 0 0 1 4.4-1.2 10.21 10.21 0 0 1 6.5 2.3 7.1 7.1 0 0 1 2.9 5.8 7.76 7.76 0 0 1 -.89 3.5l-26.42 54.53a9.22 9.22 0 0 1 -3.9 4.15 11.49 11.49 0 0 1 -11.21 0 9.22 9.22 0 0 1 -3.9-4.15l-26.42-54.55a7.6 7.6 0 0 1 -.8-3.5 7.09 7.09 0 0 1 3-5.75 10.57 10.57 0 0 1 6.7-2.35 8.64 8.64 0 0 1 4.45 1.2 7.82 7.82 0 0 1 3.16 3.6l19.71 42.62 19.61-42.62a7.82 7.82 0 0 1 3.11-3.58z"/></g></svg>