<svg id="Artwork" height="512" viewBox="0 0 512 512" width="512" xmlns="http://www.w3.org/2000/svg"><path d="m453.06 109.29a10 10 0 0 0 -2.93-7.07l-99.42-99.42a10 10 0 0 0 -7.07-2.93h-274.42a10 10 0 0 0 -10 10v492a10 10 0 0 0 10 10h373.84a10 10 0 0 0 10-10z" fill="#f1f1f1"/><path d="m452.73 106.8a9.88 9.88 0 0 0 -2.6-4.58l-99.42-99.42a10 10 0 0 0 -7.07-2.93v94.92a12 12 0 0 0 12 12z" fill="#ccc"/><path d="m452.73 106.8h-97.08a12 12 0 0 1 -12-12v10.15c0 6.63 4.12 15 12.38 15h97v-10.66a6.46 6.46 0 0 0 -.3-2.49z" fill="#e8e8e8"/><path d="m59.21 215.34-27.01 27.09h27.01z" fill="#c6406d"/><path d="m452.73 215.34 27.02 27.09h-27.02z" fill="#c6406d"/><path d="m472.11 412.17h-432.22a10 10 0 0 1 -10-10v-153.34a10 10 0 0 1 10-10h432.22a10 10 0 0 1 10 10v153.33a10 10 0 0 1 -10 10.01z" fill="#ff4d79"/><path d="m59.21 412.17h393.85v12.97h-393.85z" fill="#e0e0e0"/><g fill="#fff"><path d="m242 328.49a6.49 6.49 0 0 1 2 4.95v17.41a29.78 29.78 0 0 1 -.75 7.65 7.69 7.69 0 0 1 -2.7 4.15 17.5 17.5 0 0 1 -5.85 2.6 65.21 65.21 0 0 1 -8.65 1.56 79 79 0 0 1 -8.86.55q-11.51 0-20-4.36a30.32 30.32 0 0 1 -13-12.5q-4.5-8.16-4.5-19.36a39 39 0 0 1 4.5-19.16 30.83 30.83 0 0 1 12.81-12.56 40.93 40.93 0 0 1 19.41-4.4 44.13 44.13 0 0 1 12.59 1.65 35.27 35.27 0 0 1 10.35 5.05 7.73 7.73 0 0 1 2.45 2.6 7.64 7.64 0 0 1 .75 3.61 8.19 8.19 0 0 1 -1.7 5.25 5.08 5.08 0 0 1 -4.1 2.15 7.54 7.54 0 0 1 -2.75-.45 20.18 20.18 0 0 1 -2.95-1.55 33.38 33.38 0 0 0 -7-2.9 26.32 26.32 0 0 0 -7-.9q-9.51 0-14.16 5.3t-4.65 16.31q0 11.31 4.85 16.76t14.91 5.45a45.44 45.44 0 0 0 9.51-1v-13.11h-7.21a7.28 7.28 0 0 1 -5.1-1.65 6.91 6.91 0 0 1 0-9.3 7.28 7.28 0 0 1 5.1-1.66h16.51a7.29 7.29 0 0 1 5.19 1.86z"/><path d="m258.45 364.6a9 9 0 0 1 -2.45-6.6v-53.58a8.88 8.88 0 0 1 2.45-6.55 9 9 0 0 1 6.65-2.45 9.33 9.33 0 0 1 6.81 2.45 8.79 8.79 0 0 1 2.5 6.55v53.58a8.91 8.91 0 0 1 -2.5 6.65 9.3 9.3 0 0 1 -6.81 2.46 9 9 0 0 1 -6.65-2.51z"/><path d="m289.72 364.55a8.89 8.89 0 0 1 -2.5-6.6v-53.53a7.68 7.68 0 0 1 8.5-8.5h33.62q4.5 0 6.6 1.75t2.1 5.55q0 3.7-2.15 5.41c-1.43 1.13-3.62 1.7-6.55 1.7h-24v13h22q4.4 0 6.55 1.8t2.15 5.51q0 3.71-2.15 5.4t-6.55 1.7h-22v20.26a9 9 0 0 1 -2.45 6.65 9.94 9.94 0 0 1 -13.15-.05z"/></g></svg>