<svg id="Artwork" height="512" viewBox="0 0 512 512" width="512" xmlns="http://www.w3.org/2000/svg"><path d="m59.21 215.34-27.01 27.09h27.01z" fill="#088faf"/><path d="m452.73 215.34 27.02 27.09h-27.02z" fill="#088faf"/><path d="m453.06 109.29a10 10 0 0 0 -2.93-7.07l-99.42-99.42a10 10 0 0 0 -7.07-2.93h-274.42a10 10 0 0 0 -10 10v492a10 10 0 0 0 10 10h373.84a10 10 0 0 0 10-10z" fill="#f1f1f1"/><path d="m452.73 106.8a9.88 9.88 0 0 0 -2.6-4.58l-99.42-99.42a10 10 0 0 0 -7.07-2.93v94.92a12 12 0 0 0 12 12z" fill="#ccc"/><path d="m452.73 106.8h-97.08a12 12 0 0 1 -12-12v10.15c0 6.63 4.12 15 12.38 15h97v-10.66a6.46 6.46 0 0 0 -.3-2.49z" fill="#e8e8e8"/><path d="m472.11 412.17h-432.22a10 10 0 0 1 -10-10v-153.34a10 10 0 0 1 10-10h432.22a10 10 0 0 1 10 10v153.33a10 10 0 0 1 -10 10.01z" fill="#29abe1"/><path d="m59.21 412.17h393.85v12.97h-393.85z" fill="#e0e0e0"/><g fill="#fff"><path d="m255.7 331.11a6.52 6.52 0 0 1 1.95 4.95v17.41a29.82 29.82 0 0 1 -.75 7.66 7.69 7.69 0 0 1 -2.7 4.15 17.5 17.5 0 0 1 -5.85 2.6 63.85 63.85 0 0 1 -8.66 1.55 76.58 76.58 0 0 1 -8.85.55q-11.51 0-20-4.35a30.23 30.23 0 0 1 -13-12.51q-4.5-8.14-4.5-19.36a39.07 39.07 0 0 1 4.5-19.16 30.75 30.75 0 0 1 12.81-12.55 40.76 40.76 0 0 1 19.41-4.41 44 44 0 0 1 12.55 1.66 35 35 0 0 1 10.36 5.05 7.83 7.83 0 0 1 2.45 2.6 7.6 7.6 0 0 1 .75 3.6 8.21 8.21 0 0 1 -1.7 5.25 5.08 5.08 0 0 1 -4.1 2.16 7.72 7.72 0 0 1 -2.75-.45 21 21 0 0 1 -3-1.56 33.64 33.64 0 0 0 -7-2.9 26.37 26.37 0 0 0 -7-.9q-9.51 0-14.16 5.3t-4.65 16.31q0 11.31 4.85 16.76t14.98 5.48a45.28 45.28 0 0 0 9.5-1v-13.1h-7.2a7.28 7.28 0 0 1 -5.1-1.65 6.92 6.92 0 0 1 0-9.31 7.28 7.28 0 0 1 5.1-1.65h16.51a7.33 7.33 0 0 1 5.25 1.82z"/><path d="m321.23 356.38c1.44 1.13 2.15 2.93 2.15 5.4s-.7 4.38-2.1 5.55-3.6 1.75-6.6 1.75h-40a7.78 7.78 0 0 1 -5.85-2.2 7.54 7.54 0 0 1 -2.16-5.5 11.06 11.06 0 0 1 2.31-6.51l30.79-41.87h-24.21q-4.5 0-6.65-1.75a6.46 6.46 0 0 1 -2.15-5.35c0-2.54.71-4.39 2.15-5.55s3.65-1.76 6.65-1.76h38.44a7.75 7.75 0 0 1 5.75 2.16 7.35 7.35 0 0 1 2.15 5.45 11.12 11.12 0 0 1 -2.3 6.6l-30.81 41.92h25.91c2.91-.05 5.1.52 6.53 1.66z"/></g></svg>