<svg id="Artwork" height="512" viewBox="0 0 512 512" width="512" xmlns="http://www.w3.org/2000/svg"><path d="m59.21 215.34-27.01 27.09h27.01z" fill="#9a439e"/><path d="m452.73 215.34 27.02 27.09h-27.02z" fill="#9a439e"/><path d="m453.06 109.29a10 10 0 0 0 -2.93-7.07l-99.42-99.42a10 10 0 0 0 -7.07-2.93h-274.42a10 10 0 0 0 -10 10v492a10 10 0 0 0 10 10h373.84a10 10 0 0 0 10-10z" fill="#f1f1f1"/><path d="m452.73 106.8a9.88 9.88 0 0 0 -2.6-4.58l-99.42-99.42a10 10 0 0 0 -7.07-2.93v94.92a12 12 0 0 0 12 12z" fill="#ccc"/><path d="m452.73 106.8h-97.08a12 12 0 0 1 -12-12v10.15c0 6.63 4.12 15 12.38 15h97v-10.66a6.46 6.46 0 0 0 -.3-2.49z" fill="#e8e8e8"/><path d="m472.11 412.17h-432.22a10 10 0 0 1 -10-10v-153.34a10 10 0 0 1 10-10h432.22a10 10 0 0 1 10 10v153.33a10 10 0 0 1 -10 10.01z" fill="#be4fc1"/><path d="m59.21 412.17h393.85v12.97h-393.85z" fill="#e0e0e0"/><g fill="#fff"><path d="m177.21 364.6a9 9 0 0 1 -2.45-6.65v-53.53a8.84 8.84 0 0 1 2.45-6.55 9 9 0 0 1 6.65-2.45 9.33 9.33 0 0 1 6.81 2.45 8.79 8.79 0 0 1 2.5 6.55v53.58a8.91 8.91 0 0 1 -2.5 6.65 9.3 9.3 0 0 1 -6.81 2.46 9 9 0 0 1 -6.65-2.51z"/><path d="m220.83 363a30.25 30.25 0 0 1 -12.3-12.6 44.28 44.28 0 0 1 0-38.32 30.34 30.34 0 0 1 12.3-12.61 40.87 40.87 0 0 1 40.87 2.3 7.73 7.73 0 0 1 2.45 2.6 7.63 7.63 0 0 1 .75 3.6 8 8 0 0 1 -1.75 5.26 5.3 5.3 0 0 1 -4.25 2.15 7.65 7.65 0 0 1 -2.7-.45 15.75 15.75 0 0 1 -2.8-1.45 28.49 28.49 0 0 0 -6.61-3 22.8 22.8 0 0 0 -6.4-.9q-8.91 0-13.26 5.35t-4.35 16.26q0 11 4.35 16.36t13.26 5.35a18 18 0 0 0 5.8-1c1.87-.63 4.27-1.62 7.21-2.95 1.4-.74 2.43-1.24 3.1-1.51a6.63 6.63 0 0 1 2.4-.39 5.27 5.27 0 0 1 4.25 2.15 8 8 0 0 1 1.75 5.25 7.67 7.67 0 0 1 -.75 3.55 7.5 7.5 0 0 1 -2.45 2.65 40.8 40.8 0 0 1 -40.87 2.3z"/><path d="m287 362.9a30.37 30.37 0 0 1 -12.25-12.6 44.84 44.84 0 0 1 0-38.32 30.09 30.09 0 0 1 12.25-12.56 42.19 42.19 0 0 1 37.52 0 29.71 29.71 0 0 1 12.17 12.58 45.07 45.07 0 0 1 -.05 38.32 30.33 30.33 0 0 1 -12.26 12.6 41.47 41.47 0 0 1 -37.42 0zm31.27-15.3q4.5-5.66 4.5-16.46t-4.55-16.41q-4.55-5.61-12.46-5.6t-12.5 5.55q-4.5 5.55-4.5 16.46t4.5 16.51q4.5 5.6 12.5 5.6t12.47-5.65z"/></g></svg>