<svg id="Artwork" height="512" viewBox="0 0 512 512" width="512" xmlns="http://www.w3.org/2000/svg"><path d="m59.21 215.34-27.01 27.09h27.01z" fill="#dd9536"/><path d="m452.73 215.34 27.02 27.09h-27.02z" fill="#dd9536"/><path d="m453.06 109.29a10 10 0 0 0 -2.93-7.07l-99.42-99.42a10 10 0 0 0 -7.07-2.93h-274.42a10 10 0 0 0 -10 10v492a10 10 0 0 0 10 10h373.84a10 10 0 0 0 10-10z" fill="#f1f1f1"/><path d="m452.73 106.8a9.88 9.88 0 0 0 -2.6-4.58l-99.42-99.42a10 10 0 0 0 -7.07-2.93v94.92a12 12 0 0 0 12 12z" fill="#ccc"/><path d="m452.73 106.8h-97.08a12 12 0 0 1 -12-12v10.15c0 6.63 4.12 15 12.38 15h97v-10.66a6.46 6.46 0 0 0 -.3-2.49z" fill="#e8e8e8"/><path d="m472.11 412.17h-432.22a10 10 0 0 1 -10-10v-153.34a10 10 0 0 1 10-10h432.22a10 10 0 0 1 10 10v153.33a10 10 0 0 1 -10 10.01z" fill="#faaf3a"/><path d="m59.21 412.17h393.85v12.97h-393.85z" fill="#e0e0e0"/><g fill="#fff"><path d="m183.81 364.6a9 9 0 0 1 -2.45-6.65v-53.53a8.88 8.88 0 0 1 2.45-6.55 9 9 0 0 1 6.66-2.45 9.33 9.33 0 0 1 6.8 2.45 8.76 8.76 0 0 1 2.5 6.55v53.58a8.87 8.87 0 0 1 -2.5 6.65 9.29 9.29 0 0 1 -6.8 2.46 9 9 0 0 1 -6.66-2.51z"/><path d="m227.43 363a30.25 30.25 0 0 1 -12.3-12.6 44.37 44.37 0 0 1 0-38.32 30.34 30.34 0 0 1 12.3-12.61 40.89 40.89 0 0 1 40.88 2.3 7.83 7.83 0 0 1 2.45 2.6 7.64 7.64 0 0 1 .75 3.61 8.11 8.11 0 0 1 -1.75 5.25 5.33 5.33 0 0 1 -4.26 2.15 7.65 7.65 0 0 1 -2.7-.45 16.1 16.1 0 0 1 -2.8-1.45 28.43 28.43 0 0 0 -6.6-3 22.86 22.86 0 0 0 -6.4-.9q-8.91 0-13.26 5.35t-4.35 16.26q0 11 4.35 16.36t13.26 5.3a18 18 0 0 0 5.8-1q2.8-1 7.2-2.95c1.4-.74 2.44-1.24 3.1-1.5a6.42 6.42 0 0 1 2.4-.4 5.3 5.3 0 0 1 4.26 2.15 8.07 8.07 0 0 1 1.75 5.25 7.67 7.67 0 0 1 -.75 3.55 7.59 7.59 0 0 1 -2.45 2.65 40.82 40.82 0 0 1 -40.88 2.3z"/><path d="m290.47 365.6a34 34 0 0 1 -11.26-4.85 8.57 8.57 0 0 1 -2.45-2.7 7.57 7.57 0 0 1 -.75-3.6 8 8 0 0 1 1.8-5.2 5.3 5.3 0 0 1 4.2-2.2 7.75 7.75 0 0 1 2.5.4 14.81 14.81 0 0 1 3 1.5 32.91 32.91 0 0 0 8.15 3.3 38.1 38.1 0 0 0 9.15 1c3.94 0 6.92-.58 9-1.75a5.62 5.62 0 0 0 3.05-5.16q0-2.29-2.85-3.95t-10.86-3.25a63.19 63.19 0 0 1 -15.5-5q-5.61-2.91-7.86-6.85a19 19 0 0 1 -2.25-9.56 19.25 19.25 0 0 1 3.8-11.61 25.43 25.43 0 0 1 10.43-8.12 36.45 36.45 0 0 1 15-3 48.09 48.09 0 0 1 13 1.6 33 33 0 0 1 10.41 5 8.22 8.22 0 0 1 2.55 2.75 7.68 7.68 0 0 1 .75 3.56 8.15 8.15 0 0 1 -1.75 5.2 5.17 5.17 0 0 1 -4.15 2.2 8.07 8.07 0 0 1 -2.41-.35 16.43 16.43 0 0 1 -3.1-1.55c-.33-.2-1.28-.72-2.85-1.55a22.84 22.84 0 0 0 -5.5-2 29.59 29.59 0 0 0 -6.85-.75 15.26 15.26 0 0 0 -8.21 1.95 5.87 5.87 0 0 0 -3.1 5.15 4.42 4.42 0 0 0 1.1 3.1 11 11 0 0 0 4.1 2.35 59.43 59.43 0 0 0 8.91 2.35 59.41 59.41 0 0 1 15.1 5.06 19.3 19.3 0 0 1 7.81 6.85 17.82 17.82 0 0 1 2.3 9.2 19.19 19.19 0 0 1 -3.7 11.66 23.63 23.63 0 0 1 -10.36 7.8 40.1 40.1 0 0 1 -15.46 2.76 59.75 59.75 0 0 1 -14.89-1.74z"/></g></svg>