<svg id="Artwork" height="512" viewBox="0 0 512 512" width="512" xmlns="http://www.w3.org/2000/svg"><path d="m453.06 109.29a10 10 0 0 0 -2.93-7.07l-99.42-99.42a10 10 0 0 0 -7.07-2.93h-274.42a10 10 0 0 0 -10 10v492a10 10 0 0 0 10 10h373.84a10 10 0 0 0 10-10z" fill="#f1f1f1"/><path d="m452.73 106.8a9.88 9.88 0 0 0 -2.6-4.58l-99.42-99.42a10 10 0 0 0 -7.07-2.93v94.92a12 12 0 0 0 12 12z" fill="#ccc"/><path d="m452.73 106.8h-97.08a12 12 0 0 1 -12-12v10.15c0 6.63 4.12 15 12.38 15h97v-10.66a6.46 6.46 0 0 0 -.3-2.49z" fill="#e8e8e8"/><path d="m59.21 215.34-27.01 27.09h27.01z" fill="#c6406d"/><path d="m452.73 215.34 27.02 27.09h-27.02z" fill="#c6406d"/><path d="m472.11 412.17h-432.22a10 10 0 0 1 -10-10v-153.34a10 10 0 0 1 10-10h432.22a10 10 0 0 1 10 10v153.33a10 10 0 0 1 -10 10.01z" fill="#ff4d79"/><path d="m59.21 412.17h393.85v12.97h-393.85z" fill="#e0e0e0"/><g fill="#fff"><path d="m173.61 364.6a9 9 0 0 1 -2.45-6.65v-53.53a8.84 8.84 0 0 1 2.45-6.55 9 9 0 0 1 6.65-2.45 9.29 9.29 0 0 1 6.8 2.45 8.76 8.76 0 0 1 2.51 6.55v53.58a8.87 8.87 0 0 1 -2.51 6.65 9.26 9.26 0 0 1 -6.8 2.46 9 9 0 0 1 -6.65-2.51z"/><path d="m262.85 297.92a8.88 8.88 0 0 1 2.45 6.5v53.58a9.11 9.11 0 0 1 -2.4 6.6 8.21 8.21 0 0 1 -6.2 2.51 8 8 0 0 1 -6.8-3l-30.42-37.92v31.81a9.36 9.36 0 0 1 -2.3 6.6 8 8 0 0 1 -6.2 2.51 8.22 8.22 0 0 1 -6.21-2.51 9.11 9.11 0 0 1 -2.4-6.6v-53.58a9 9 0 0 1 2.4-6.5 8.21 8.21 0 0 1 6.21-2.5 8.11 8.11 0 0 1 6.7 3l30.42 37.82v-31.82a9.07 9.07 0 0 1 2.35-6.55 8.13 8.13 0 0 1 6.15-2.45 8.36 8.36 0 0 1 6.25 2.5z"/><path d="m280.31 364.25a8.49 8.49 0 0 1 -2.2-6.3v-53.53a7.68 7.68 0 0 1 8.5-8.5h20.21q11.71 0 20.17 4.25a30.12 30.12 0 0 1 12.95 12.16q4.5 7.91 4.5 18.81t-4.45 19a29.41 29.41 0 0 1 -12.9 12.15q-8.46 4.2-20.27 4.21h-20.21a8.53 8.53 0 0 1 -6.3-2.25zm25.21-12.6q10.31 0 15.46-5.06t5.15-15.45q0-10.41-5.15-15.41t-15.46-5h-9v40.92z"/></g></svg>