<svg id="Artwork" height="512" viewBox="0 0 512 512" width="512" xmlns="http://www.w3.org/2000/svg"><path d="m59.21 215.34-27.01 27.09h27.01z" fill="#c6406d"/><path d="m452.73 215.34 27.02 27.09h-27.02z" fill="#c6406d"/><path d="m453.06 109.29a10 10 0 0 0 -2.93-7.07l-99.42-99.42a10 10 0 0 0 -7.07-2.93h-274.42a10 10 0 0 0 -10 10v492a10 10 0 0 0 10 10h373.84a10 10 0 0 0 10-10z" fill="#f1f1f1"/><path d="m452.73 106.8a9.88 9.88 0 0 0 -2.6-4.58l-99.42-99.42a10 10 0 0 0 -7.07-2.93v94.92a12 12 0 0 0 12 12z" fill="#ccc"/><path d="m452.73 106.8h-97.08a12 12 0 0 1 -12-12v10.15c0 6.63 4.12 15 12.38 15h97v-10.66a6.46 6.46 0 0 0 -.3-2.49z" fill="#e8e8e8"/><path d="m472.11 412.17h-432.22a10 10 0 0 1 -10-10v-153.34a10 10 0 0 1 10-10h432.22a10 10 0 0 1 10 10v153.33a10 10 0 0 1 -10 10.01z" fill="#ff4d79"/><path d="m59.21 412.17h393.85v12.97h-393.85z" fill="#e0e0e0"/><g fill="#fff"><path d="m177.11 364.6a9 9 0 0 1 -2.45-6.65v-53.53a8.88 8.88 0 0 1 2.45-6.55 9 9 0 0 1 6.65-2.45 9.33 9.33 0 0 1 6.81 2.45 8.79 8.79 0 0 1 2.5 6.55v53.58a8.91 8.91 0 0 1 -2.5 6.65 9.3 9.3 0 0 1 -6.81 2.46 9 9 0 0 1 -6.65-2.51z"/><path d="m217.53 365.6a33.81 33.81 0 0 1 -11.25-4.85 8.49 8.49 0 0 1 -2.46-2.7 7.57 7.57 0 0 1 -.75-3.6 8 8 0 0 1 1.8-5.2 5.31 5.31 0 0 1 4.21-2.2 8.07 8.07 0 0 1 2.5.39 15.46 15.46 0 0 1 3 1.51 32.91 32.91 0 0 0 8.15 3.3 38.24 38.24 0 0 0 9.16 1c3.93 0 6.92-.58 9-1.75a5.6 5.6 0 0 0 3-5.16q0-2.29-2.85-3.95t-10.85-3.25a63.14 63.14 0 0 1 -15.51-5q-5.61-2.91-7.85-6.85a18.94 18.94 0 0 1 -2.26-9.56 19.19 19.19 0 0 1 3.81-11.61 25.33 25.33 0 0 1 10.45-8.12 36.48 36.48 0 0 1 15-3 48.16 48.16 0 0 1 13 1.6 32.82 32.82 0 0 1 10.4 5 8.22 8.22 0 0 1 2.55 2.75 7.67 7.67 0 0 1 .75 3.55 8.1 8.1 0 0 1 -1.75 5.21 5.17 5.17 0 0 1 -4.15 2.2 8 8 0 0 1 -2.4-.35 15.86 15.86 0 0 1 -3.1-1.55c-.34-.2-1.29-.72-2.86-1.55a22.69 22.69 0 0 0 -5.5-2 29.53 29.53 0 0 0 -6.85-.75 15.22 15.22 0 0 0 -8.2 1.95 5.88 5.88 0 0 0 -3.11 5.15 4.42 4.42 0 0 0 1.1 3.1 11.12 11.12 0 0 0 4.11 2.35 59.24 59.24 0 0 0 8.9 2.35 59.64 59.64 0 0 1 15.11 5.06 19.2 19.2 0 0 1 7.8 6.85 17.73 17.73 0 0 1 2.3 9.2 19.19 19.19 0 0 1 -3.7 11.66 23.66 23.66 0 0 1 -10.35 7.8 40.14 40.14 0 0 1 -15.46 2.76 59.77 59.77 0 0 1 -14.89-1.74z"/><path d="m287.06 362.9a30.31 30.31 0 0 1 -12.25-12.6 44.84 44.84 0 0 1 0-38.32 30 30 0 0 1 12.25-12.56 42.19 42.19 0 0 1 37.52 0 29.77 29.77 0 0 1 12.21 12.58 40.92 40.92 0 0 1 4.21 19.14 40.48 40.48 0 0 1 -4.3 19.16 30.33 30.33 0 0 1 -12.26 12.6 41.47 41.47 0 0 1 -37.42 0zm31.27-15.3q4.5-5.66 4.5-16.46t-4.55-16.41q-4.54-5.61-12.46-5.6t-12.5 5.55q-4.5 5.55-4.5 16.46t4.5 16.51q4.5 5.6 12.5 5.6t12.51-5.65z"/></g></svg>