<svg id="Artwork" height="512" viewBox="0 0 512 512" width="512" xmlns="http://www.w3.org/2000/svg"><path d="m59.21 215.34-27.01 27.09h27.01z" fill="#008275"/><path d="m452.73 215.34 27.02 27.09h-27.02z" fill="#008275"/><path d="m453.06 109.29a10 10 0 0 0 -2.93-7.07l-99.42-99.42a10 10 0 0 0 -7.07-2.93h-274.42a10 10 0 0 0 -10 10v492a10 10 0 0 0 10 10h373.84a10 10 0 0 0 10-10z" fill="#f1f1f1"/><path d="m452.73 106.8a9.88 9.88 0 0 0 -2.6-4.58l-99.42-99.42a10 10 0 0 0 -7.07-2.93v94.92a12 12 0 0 0 12 12z" fill="#ccc"/><path d="m452.73 106.8h-97.08a12 12 0 0 1 -12-12v10.15c0 6.63 4.12 15 12.38 15h97v-10.66a6.46 6.46 0 0 0 -.3-2.49z" fill="#e8e8e8"/><path d="m472.11 412.17h-432.22a10 10 0 0 1 -10-10v-153.34a10 10 0 0 1 10-10h432.22a10 10 0 0 1 10 10v153.33a10 10 0 0 1 -10 10.01z" fill="#00a99d"/><path d="m59.21 412.17h393.85v12.97h-393.85z" fill="#e0e0e0"/><g fill="#fff"><path d="m161.8 359.65a7.09 7.09 0 0 1 1.7-5.2c1.14-1.13 2.94-1.77 5.41-1.9l3.4-.2a5.89 5.89 0 0 0 4.55-2 7.67 7.67 0 0 0 1.55-5.06v-40.87a8.76 8.76 0 0 1 2.5-6.55 9.33 9.33 0 0 1 6.81-2.45 9.22 9.22 0 0 1 6.65 2.45 8.68 8.68 0 0 1 2.55 6.55v40.58q0 10-5.25 15.56t-15.67 6.3l-3.2.2q-11 .49-11-7.41z"/><path d="m278.16 358.85a7.13 7.13 0 0 1 -2.65 5.6 9 9 0 0 1 -6.05 2.31 7.66 7.66 0 0 1 -4.21-1.21 8.18 8.18 0 0 1 -3-3.6l-4.5-10.1h-32.42l-4.6 10.1a7.85 7.85 0 0 1 -7.3 4.81 9.31 9.31 0 0 1 -6.15-2.31 7 7 0 0 1 -2.76-5.6 8.62 8.62 0 0 1 .9-3.7l26.42-54.23a9.27 9.27 0 0 1 3.85-4.15 11.19 11.19 0 0 1 5.65-1.45 11.33 11.33 0 0 1 5.61 1.45 9.27 9.27 0 0 1 3.9 4.15l26.41 54.23a8.62 8.62 0 0 1 .9 3.7zm-46.62-20.85h20l-10-22.31z"/><path d="m347 359.85a6.61 6.61 0 0 1 -2.66 5.35 9.44 9.44 0 0 1 -6.15 2.16 9.6 9.6 0 0 1 -4.5-1.1 10 10 0 0 1 -3.6-3.31l-13-19a10.56 10.56 0 0 0 -2.95-2.95 6.89 6.89 0 0 0 -3.65-.95h-6.49v17.95a9.09 9.09 0 0 1 -2.4 6.65 8.8 8.8 0 0 1 -6.6 2.46 8.48 8.48 0 0 1 -9.11-9.11v-53.58a7.69 7.69 0 0 1 8.51-8.5h25.11q12.81 0 19.26 5.55t6.45 16.06a21.11 21.11 0 0 1 -4.4 13.56 21.6 21.6 0 0 1 -12.4 7.45 13.63 13.63 0 0 1 5.75 2.2 20.81 20.81 0 0 1 4.85 5.1l6.2 8.91a9.32 9.32 0 0 1 1.78 5.1zm-21.67-35.52q2.66-1.89 2.66-6.2t-2.66-6.35q-2.64-1.95-8.75-1.95h-12.81v16.4h12.81q6.1 0 8.75-1.9z"/></g></svg>