<svg id="Artwork" height="512" viewBox="0 0 512 512" width="512" xmlns="http://www.w3.org/2000/svg"><path d="m453.06 109.29a10 10 0 0 0 -2.93-7.07l-99.42-99.42a10 10 0 0 0 -7.07-2.93h-274.42a10 10 0 0 0 -10 10v492a10 10 0 0 0 10 10h373.84a10 10 0 0 0 10-10z" fill="#f1f1f1"/><path d="m452.73 106.8a9.88 9.88 0 0 0 -2.6-4.58l-99.42-99.42a10 10 0 0 0 -7.07-2.93v94.92a12 12 0 0 0 12 12z" fill="#ccc"/><path d="m452.73 106.8h-97.08a12 12 0 0 1 -12-12v10.15c0 6.63 4.12 15 12.38 15h97v-10.66a6.46 6.46 0 0 0 -.3-2.49z" fill="#e8e8e8"/><path d="m59.21 215.34-27.01 27.09h27.01z" fill="#dd9536"/><path d="m452.73 215.34 27.02 27.09h-27.02z" fill="#dd9536"/><path d="m472.11 412.17h-432.22a10 10 0 0 1 -10-10v-153.34a10 10 0 0 1 10-10h432.22a10 10 0 0 1 10 10v153.33a10 10 0 0 1 -10 10.01z" fill="#faaf3a"/><g fill="#fff"><path d="m164.05 359.65a7.09 7.09 0 0 1 1.7-5.2c1.14-1.13 2.94-1.77 5.41-1.9l3.4-.2a5.89 5.89 0 0 0 4.55-2 7.67 7.67 0 0 0 1.55-5.06v-40.87a8.79 8.79 0 0 1 2.5-6.55 9.33 9.33 0 0 1 6.81-2.45 9.22 9.22 0 0 1 6.65 2.45 8.68 8.68 0 0 1 2.55 6.55v40.58q0 10-5.25 15.56t-15.66 6.26l-3.2.2q-11.01.53-11.01-7.37z"/><path d="m214.43 364.6a9 9 0 0 1 -2.43-6.6v-53.58a7.68 7.68 0 0 1 8.5-8.5h25.61q11.72 0 18.21 5.95t6.51 16.56q0 10.5-6.56 16.51t-18.16 6h-15.7v17a8.91 8.91 0 0 1 -2.5 6.65 9.3 9.3 0 0 1 -6.81 2.46 9 9 0 0 1 -6.67-2.45zm29.16-37.46c3.41 0 5.92-.71 7.56-2.11s2.45-3.56 2.45-6.5q0-8.7-10-8.7h-13.2v17.31z"/><path d="m340.39 328.49a6.49 6.49 0 0 1 1.95 4.95v17.41a29.78 29.78 0 0 1 -.75 7.65 7.69 7.69 0 0 1 -2.7 4.15 17.5 17.5 0 0 1 -5.85 2.6 65.08 65.08 0 0 1 -8.66 1.56 78.88 78.88 0 0 1 -8.85.55q-11.5 0-20-4.36a30.26 30.26 0 0 1 -13-12.5q-4.5-8.16-4.5-19.36a39 39 0 0 1 4.5-19.16 30.78 30.78 0 0 1 12.81-12.56 40.88 40.88 0 0 1 19.41-4.4 44.13 44.13 0 0 1 12.56 1.65 35.27 35.27 0 0 1 10.35 5.05 7.83 7.83 0 0 1 2.45 2.6 7.64 7.64 0 0 1 .75 3.61 8.19 8.19 0 0 1 -1.7 5.25 5.08 5.08 0 0 1 -4.1 2.15 7.51 7.51 0 0 1 -2.75-.45 20.18 20.18 0 0 1 -2.95-1.55 33.38 33.38 0 0 0 -7-2.9 26.37 26.37 0 0 0 -7.05-.9q-9.51 0-14.16 5.3t-4.65 16.31q0 11.31 4.85 16.76t14.86 5.45a45.28 45.28 0 0 0 9.5-1v-13.11h-7.2a7.28 7.28 0 0 1 -5.1-1.65 6.91 6.91 0 0 1 0-9.3 7.28 7.28 0 0 1 5.1-1.66h16.51a7.29 7.29 0 0 1 5.37 1.86z"/></g><path d="m59.21 412.17h393.85v12.97h-393.85z" fill="#e0e0e0"/></svg>