<svg id="Artwork" height="512" viewBox="0 0 512 512" width="512" xmlns="http://www.w3.org/2000/svg"><path d="m59.21 215.34-27.01 27.09h27.01z" fill="#c6406d"/><path d="m452.73 215.34 27.02 27.09h-27.02z" fill="#c6406d"/><path d="m453.06 109.29a10 10 0 0 0 -2.93-7.07l-99.42-99.42a10 10 0 0 0 -7.07-2.93h-274.42a10 10 0 0 0 -10 10v492a10 10 0 0 0 10 10h373.84a10 10 0 0 0 10-10z" fill="#f1f1f1"/><path d="m452.73 106.8a9.88 9.88 0 0 0 -2.6-4.58l-99.42-99.42a10 10 0 0 0 -7.07-2.93v94.92a12 12 0 0 0 12 12z" fill="#ccc"/><path d="m452.73 106.8h-97.08a12 12 0 0 1 -12-12v10.15c0 6.63 4.12 15 12.38 15h97v-10.66a6.46 6.46 0 0 0 -.3-2.49z" fill="#e8e8e8"/><path d="m472.11 412.17h-432.22a10 10 0 0 1 -10-10v-153.34a10 10 0 0 1 10-10h432.22a10 10 0 0 1 10 10v153.33a10 10 0 0 1 -10 10.01z" fill="#ff4d79"/><path d="m59.21 412.17h393.85v12.97h-393.85z" fill="#e0e0e0"/><g fill="#fff"><path d="m202 359.65a7.09 7.09 0 0 1 1.7-5.2c1.14-1.13 2.94-1.77 5.41-1.9l3.4-.2a5.89 5.89 0 0 0 4.55-2 7.67 7.67 0 0 0 1.55-5.06v-40.87a8.76 8.76 0 0 1 2.5-6.55 9.33 9.33 0 0 1 6.81-2.45 9.22 9.22 0 0 1 6.65 2.45 8.68 8.68 0 0 1 2.55 6.55v40.58q0 10-5.25 15.56t-15.66 6.26l-3.2.2q-11.01.53-11.01-7.37z"/><path d="m261.6 365.6a33.81 33.81 0 0 1 -11.25-4.85 8.45 8.45 0 0 1 -2.45-2.7 7.45 7.45 0 0 1 -.76-3.6 8 8 0 0 1 1.81-5.2 5.3 5.3 0 0 1 4.2-2.2 8.07 8.07 0 0 1 2.5.39 15.46 15.46 0 0 1 3 1.51 33.07 33.07 0 0 0 8.15 3.3 38.24 38.24 0 0 0 9.16 1c3.93 0 6.92-.58 9-1.75a5.61 5.61 0 0 0 3.06-5.16q0-2.29-2.86-3.95t-10.85-3.25a63.43 63.43 0 0 1 -15.51-5q-5.61-2.91-7.85-6.85a20.39 20.39 0 0 1 1.55-21.17 25.39 25.39 0 0 1 10.4-8.12 36.48 36.48 0 0 1 15-3 48.16 48.16 0 0 1 13 1.6 32.82 32.82 0 0 1 10.4 5 8.22 8.22 0 0 1 2.55 2.75 7.67 7.67 0 0 1 .75 3.55 8.1 8.1 0 0 1 -1.75 5.21 5.16 5.16 0 0 1 -4.15 2.2 8 8 0 0 1 -2.4-.35 16.14 16.14 0 0 1 -3.1-1.55c-.34-.2-1.29-.72-2.85-1.55a22.77 22.77 0 0 0 -5.51-2 29.53 29.53 0 0 0 -6.85-.75 15.22 15.22 0 0 0 -8.2 1.95 5.88 5.88 0 0 0 -3.11 5.15 4.38 4.38 0 0 0 1.11 3.1 11 11 0 0 0 4.1 2.35 59.24 59.24 0 0 0 8.9 2.35 59.5 59.5 0 0 1 15.11 5.06 19.2 19.2 0 0 1 7.8 6.85 17.73 17.73 0 0 1 2.3 9.2 19.19 19.19 0 0 1 -3.7 11.66 23.66 23.66 0 0 1 -10.35 7.8 40.14 40.14 0 0 1 -15.46 2.76 59.77 59.77 0 0 1 -14.89-1.74z"/></g></svg>