<svg id="Artwork" height="512" viewBox="0 0 512 512" width="512" xmlns="http://www.w3.org/2000/svg"><path d="m59.21 215.34-27.01 27.09h27.01z" fill="#9a439e"/><path d="m452.73 215.34 27.02 27.09h-27.02z" fill="#9a439e"/><path d="m453.06 109.29a10 10 0 0 0 -2.93-7.07l-99.42-99.42a10 10 0 0 0 -7.07-2.93h-274.42a10 10 0 0 0 -10 10v492a10 10 0 0 0 10 10h373.84a10 10 0 0 0 10-10z" fill="#f1f1f1"/><path d="m452.73 106.8a9.88 9.88 0 0 0 -2.6-4.58l-99.42-99.42a10 10 0 0 0 -7.07-2.93v94.92a12 12 0 0 0 12 12z" fill="#ccc"/><path d="m452.73 106.8h-97.08a12 12 0 0 1 -12-12v10.15c0 6.63 4.12 15 12.38 15h97v-10.66a6.46 6.46 0 0 0 -.3-2.49z" fill="#e8e8e8"/><path d="m472.11 412.17h-432.22a10 10 0 0 1 -10-10v-153.34a10 10 0 0 1 10-10h432.22a10 10 0 0 1 10 10v153.33a10 10 0 0 1 -10 10.01z" fill="#be4fc1"/><path d="m59.21 412.17h393.85v12.97h-393.85z" fill="#e0e0e0"/><g fill="#fff"><path d="m214.08 297.92a9 9 0 0 1 2.4 6.5v54.43a8.11 8.11 0 0 1 -2.2 6 8.66 8.66 0 0 1 -11.56 0 8 8 0 0 1 -2.25-6v-29.41l-11.41 21a12.86 12.86 0 0 1 -3.6 4.55 8.17 8.17 0 0 1 -9 0 12.86 12.86 0 0 1 -3.6-4.55l-11.31-20.44v28.81a8 8 0 0 1 -2.25 5.95 8.66 8.66 0 0 1 -11.61.05 8 8 0 0 1 -2.25-6v-54.39a8.92 8.92 0 0 1 2.45-6.5 8.84 8.84 0 0 1 11.16-.95 12.06 12.06 0 0 1 3.7 4.45l18.41 34.58 18.31-34.62q3.1-6 8.41-6a8.2 8.2 0 0 1 6.2 2.54z"/><path d="m244.24 362.9a30.31 30.31 0 0 1 -12.24-12.6 44.74 44.74 0 0 1 0-38.3 30 30 0 0 1 12.25-12.56 42.19 42.19 0 0 1 37.52 0 29.77 29.77 0 0 1 12.23 12.56 40.92 40.92 0 0 1 4.25 19.16 40.48 40.48 0 0 1 -4.3 19.16 30.39 30.39 0 0 1 -12.26 12.6 41.47 41.47 0 0 1 -37.42 0zm31.27-15.3q4.5-5.66 4.5-16.46t-4.55-16.41q-4.56-5.61-12.46-5.6t-12.5 5.55q-4.5 5.55-4.51 16.46t4.51 16.51q4.5 5.6 12.5 5.6t12.51-5.65z"/><path d="m360.75 296.62a8.41 8.41 0 0 1 4.4-1.2 10.24 10.24 0 0 1 6.51 2.3 7.13 7.13 0 0 1 2.9 5.8 7.78 7.78 0 0 1 -.9 3.5l-26.41 54.53a9.19 9.19 0 0 1 -3.91 4.15 11.47 11.47 0 0 1 -11.2 0 9.11 9.11 0 0 1 -3.9-4.15l-26.42-54.55a7.73 7.73 0 0 1 -.8-3.5 7.09 7.09 0 0 1 3-5.75 10.6 10.6 0 0 1 6.71-2.35 8.66 8.66 0 0 1 4.45 1.2 7.8 7.8 0 0 1 3.15 3.6l19.67 42.64 19.61-42.62a7.88 7.88 0 0 1 3.14-3.6z"/></g></svg>