<svg id="Artwork" height="512" viewBox="0 0 512 512" width="512" xmlns="http://www.w3.org/2000/svg"><path d="m59.21 215.34-27.01 27.09h27.01z" fill="#dd9536"/><path d="m452.73 215.34 27.02 27.09h-27.02z" fill="#dd9536"/><path d="m453.06 109.29a10 10 0 0 0 -2.93-7.07l-99.42-99.42a10 10 0 0 0 -7.07-2.93h-274.42a10 10 0 0 0 -10 10v492a10 10 0 0 0 10 10h373.84a10 10 0 0 0 10-10z" fill="#f1f1f1"/><path d="m452.73 106.8a9.88 9.88 0 0 0 -2.6-4.58l-99.42-99.42a10 10 0 0 0 -7.07-2.93v94.92a12 12 0 0 0 12 12z" fill="#ccc"/><path d="m452.73 106.8h-97.08a12 12 0 0 1 -12-12v10.15c0 6.63 4.12 15 12.38 15h97v-10.66a6.46 6.46 0 0 0 -.3-2.49z" fill="#e8e8e8"/><path d="m472.11 412.17h-432.22a10 10 0 0 1 -10-10v-153.34a10 10 0 0 1 10-10h432.22a10 10 0 0 1 10 10v153.33a10 10 0 0 1 -10 10.01z" fill="#faaf3a"/><path d="m59.21 412.17h393.85v12.97h-393.85z" fill="#e0e0e0"/><g fill="#fff"><path d="m226.13 297.92a9 9 0 0 1 2.41 6.5v54.43a8.11 8.11 0 0 1 -2.2 6 8.66 8.66 0 0 1 -11.56 0 8 8 0 0 1 -2.25-6v-29.41l-11.41 21a12.86 12.86 0 0 1 -3.6 4.55 8.17 8.17 0 0 1 -9 0 13 13 0 0 1 -3.61-4.55l-11.3-20.44v28.81a8 8 0 0 1 -2.25 5.95 8.66 8.66 0 0 1 -11.61.05 8 8 0 0 1 -2.25-6v-54.39a8.92 8.92 0 0 1 2.45-6.5 8.84 8.84 0 0 1 11.16-.95 12.16 12.16 0 0 1 3.7 4.45l18.41 34.58 18.31-34.62c2.06-4 4.87-6 8.4-6a8.19 8.19 0 0 1 6.2 2.54z"/><path d="m244 364.6a9 9 0 0 1 -2.45-6.65v-53.53a7.68 7.68 0 0 1 8.51-8.5h25.61q11.7 0 18.21 5.95t6.5 16.56q0 10.5-6.55 16.51t-18.16 6h-15.67v17a8.87 8.87 0 0 1 -2.5 6.65 9.29 9.29 0 0 1 -6.8 2.46 9 9 0 0 1 -6.7-2.45zm29.17-37.46c3.4 0 5.92-.71 7.55-2.11s2.45-3.56 2.45-6.5q0-8.7-10-8.7h-13.17v17.31z"/><path d="m354.85 336.34a17.78 17.78 0 0 1 3.35 10.91 17.45 17.45 0 0 1 -3.3 10.6 21 21 0 0 1 -9.36 6.95 37.39 37.39 0 0 1 -14.15 2.46 44.69 44.69 0 0 1 -12.51-1.75 32.2 32.2 0 0 1 -10.4-5.06 7.8 7.8 0 0 1 -2.41-2.75 8 8 0 0 1 -.7-3.45 8.21 8.21 0 0 1 1.7-5.25 5.17 5.17 0 0 1 4.21-2.15 6.59 6.59 0 0 1 2.5.45c.73.3 1.73.78 3 1.45l1 .45 1.25.55a46.6 46.6 0 0 0 5.75 2.45 18.07 18.07 0 0 0 5.76.85c3.73 0 6.42-.6 8.05-1.8s2.45-3.2 2.45-6c0-2.6-.83-4.46-2.5-5.6s-4.4-1.7-8.2-1.7h-6.21a5.72 5.72 0 0 1 -4.7-2.1 8.22 8.22 0 0 1 0-10 5.72 5.72 0 0 1 4.7-2.1h4.41q5.49 0 8-1.6a5.59 5.59 0 0 0 2.46-5.15 7.45 7.45 0 0 0 -2.2-5.75 8.59 8.59 0 0 0 -6.1-2 15.18 15.18 0 0 0 -5.26.9 54.31 54.31 0 0 0 -5.45 2.4l-2.1 1c-1.27.67-2.27 1.15-3 1.45a6.59 6.59 0 0 1 -2.5.45 5.17 5.17 0 0 1 -4.2-2.15 8.2 8.2 0 0 1 -1.71-5.25 8 8 0 0 1 .7-3.51 8.13 8.13 0 0 1 2.41-2.7 33.19 33.19 0 0 1 10.15-5 40.15 40.15 0 0 1 11.86-1.8 33.13 33.13 0 0 1 13.05 2.4 19.63 19.63 0 0 1 8.71 6.8 17.52 17.52 0 0 1 3 10.21 16.61 16.61 0 0 1 -2.85 9.65 16.21 16.21 0 0 1 -8 6.06 17 17 0 0 1 9.34 6.18z"/></g></svg>