<svg id="Artwork" height="512" viewBox="0 0 512 512" width="512" xmlns="http://www.w3.org/2000/svg"><path d="m59.21 215.34-27.01 27.09h27.01z" fill="#dd9536"/><path d="m452.73 215.34 27.02 27.09h-27.02z" fill="#dd9536"/><path d="m453.06 109.29a10 10 0 0 0 -2.93-7.07l-99.42-99.42a10 10 0 0 0 -7.07-2.93h-274.42a10 10 0 0 0 -10 10v492a10 10 0 0 0 10 10h373.84a10 10 0 0 0 10-10z" fill="#f1f1f1"/><path d="m452.73 106.8a9.88 9.88 0 0 0 -2.6-4.58l-99.42-99.42a10 10 0 0 0 -7.07-2.93v94.92a12 12 0 0 0 12 12z" fill="#ccc"/><path d="m452.73 106.8h-97.08a12 12 0 0 1 -12-12v10.15c0 6.63 4.12 15 12.38 15h97v-10.66a6.46 6.46 0 0 0 -.3-2.49z" fill="#e8e8e8"/><path d="m472.11 412.17h-432.22a10 10 0 0 1 -10-10v-153.34a10 10 0 0 1 10-10h432.22a10 10 0 0 1 10 10v153.33a10 10 0 0 1 -10 10.01z" fill="#faaf3a"/><path d="m59.21 412.17h393.85v12.97h-393.85z" fill="#e0e0e0"/><g fill="#fff"><path d="m226.13 297.92a9 9 0 0 1 2.41 6.5v54.43a8.11 8.11 0 0 1 -2.2 6 8.66 8.66 0 0 1 -11.56 0 8 8 0 0 1 -2.25-6v-29.41l-11.41 21a12.86 12.86 0 0 1 -3.6 4.55 8.17 8.17 0 0 1 -9 0 13 13 0 0 1 -3.61-4.55l-11.3-20.44v28.81a8 8 0 0 1 -2.25 5.95 8.66 8.66 0 0 1 -11.61.05 8 8 0 0 1 -2.25-6v-54.39a8.92 8.92 0 0 1 2.45-6.5 8.84 8.84 0 0 1 11.16-.95 12.16 12.16 0 0 1 3.7 4.45l18.41 34.58 18.31-34.62c2.06-4 4.87-6 8.4-6a8.19 8.19 0 0 1 6.2 2.54z"/><path d="m244 364.6a9 9 0 0 1 -2.45-6.65v-53.53a7.68 7.68 0 0 1 8.51-8.5h25.61q11.7 0 18.21 5.95t6.5 16.56q0 10.5-6.55 16.51t-18.16 6h-15.67v17a8.87 8.87 0 0 1 -2.5 6.65 9.29 9.29 0 0 1 -6.8 2.46 9 9 0 0 1 -6.7-2.45zm29.17-37.46c3.4 0 5.92-.71 7.55-2.11s2.45-3.56 2.45-6.5q0-8.7-10-8.7h-13.17v17.31z"/><path d="m363.1 347.44q0 7.11-8.7 7.11h-2.2v3.45c0 3-.84 5.27-2.5 6.8a9.22 9.22 0 0 1 -6.51 2.31 9 9 0 0 1 -6.45-2.31c-1.64-1.53-2.45-3.8-2.45-6.8v-3.4h-22.29a7.52 7.52 0 0 1 -5.71-2.2 7.66 7.66 0 0 1 -2.1-5.5 11.21 11.21 0 0 1 2.21-6.61l28.6-40.87a9.24 9.24 0 0 1 3.55-3.05 10 10 0 0 1 4.45-1.05 9.46 9.46 0 0 1 6.51 2.4 8.51 8.51 0 0 1 2.7 6.7v36.12h2.2q8.69 0 8.69 6.9zm-40.82-6.9h12v-17.31z"/></g></svg>