<svg id="Artwork" height="512" viewBox="0 0 512 512" width="512" xmlns="http://www.w3.org/2000/svg"><path d="m59.21 215.34-27.01 27.09h27.01z" fill="#088faf"/><path d="m452.73 215.34 27.02 27.09h-27.02z" fill="#088faf"/><path d="m453.06 109.29a10 10 0 0 0 -2.93-7.07l-99.42-99.42a10 10 0 0 0 -7.07-2.93h-274.42a10 10 0 0 0 -10 10v492a10 10 0 0 0 10 10h373.84a10 10 0 0 0 10-10z" fill="#f1f1f1"/><path d="m452.73 106.8a9.88 9.88 0 0 0 -2.6-4.58l-99.42-99.42a10 10 0 0 0 -7.07-2.93v94.92a12 12 0 0 0 12 12z" fill="#ccc"/><path d="m452.73 106.8h-97.08a12 12 0 0 1 -12-12v10.15c0 6.63 4.12 15 12.38 15h97v-10.66a6.46 6.46 0 0 0 -.3-2.49z" fill="#e8e8e8"/><path d="m472.11 412.17h-432.22a10 10 0 0 1 -10-10v-153.34a10 10 0 0 1 10-10h432.22a10 10 0 0 1 10 10v153.33a10 10 0 0 1 -10 10.01z" fill="#29abe1"/><path d="m59.21 412.17h393.85v12.97h-393.85z" fill="#e0e0e0"/><g fill="#fff"><path d="m189 297.92a9 9 0 0 1 2.4 6.5v54.43a8.11 8.11 0 0 1 -2.2 6 8.66 8.66 0 0 1 -11.56 0 8 8 0 0 1 -2.25-6v-29.41l-11.4 21a13 13 0 0 1 -3.59 4.56 8.17 8.17 0 0 1 -9 0 12.86 12.86 0 0 1 -3.6-4.55l-11.31-20.45v28.81a8 8 0 0 1 -2.25 5.95 8.66 8.66 0 0 1 -11.61.05 8 8 0 0 1 -2.25-6v-54.39a8.92 8.92 0 0 1 2.45-6.5 8.84 8.84 0 0 1 11.17-.92 12.06 12.06 0 0 1 3.7 4.45l18.4 34.55 18.31-34.62q3.1-6 8.4-6a8.21 8.21 0 0 1 6.19 2.54z"/><path d="m206.88 364.6a9 9 0 0 1 -2.46-6.65v-53.53a7.69 7.69 0 0 1 8.51-8.5h25.61q11.72 0 18.21 5.95t6.51 16.56q0 10.5-6.56 16.51t-18.16 6h-15.71v17a8.87 8.87 0 0 1 -2.5 6.65 9.26 9.26 0 0 1 -6.8 2.46 9 9 0 0 1 -6.65-2.45zm29.12-37.46c3.4 0 5.92-.71 7.55-2.11s2.46-3.56 2.46-6.5q0-8.7-10-8.7h-13.18v17.31z"/><path d="m274.36 364.25a8.49 8.49 0 0 1 -2.2-6.3v-53.53a7.68 7.68 0 0 1 8.5-8.5h34.62q4.31 0 6.5 1.8a6.34 6.34 0 0 1 2.21 5.2q0 7.21-8.71 7.21h-25.21v13.4h23.21q8.7 0 8.7 7.11a6.32 6.32 0 0 1 -2.2 5.2q-2.19 1.8-6.5 1.8h-23.21v14.61h25.21q8.7 0 8.71 7.2a6.36 6.36 0 0 1 -2.21 5.21q-2.19 1.79-6.5 1.79h-34.62a8.52 8.52 0 0 1 -6.3-2.2z"/><path d="m392.47 328.49a6.49 6.49 0 0 1 1.95 4.95v17.41a29.78 29.78 0 0 1 -.75 7.65 7.69 7.69 0 0 1 -2.7 4.15 17.47 17.47 0 0 1 -5.86 2.6 64.92 64.92 0 0 1 -8.65 1.56 78.91 78.91 0 0 1 -8.86.55q-11.5 0-20-4.36a30.29 30.29 0 0 1 -12.95-12.5q-4.5-8.16-4.5-19.36a39 39 0 0 1 4.5-19.16 30.81 30.81 0 0 1 12.8-12.56 40.93 40.93 0 0 1 19.45-4.42 44.08 44.08 0 0 1 12.56 1.65 35.45 35.45 0 0 1 10.36 5.05 7.83 7.83 0 0 1 2.45 2.6 7.63 7.63 0 0 1 .75 3.6 8.24 8.24 0 0 1 -1.7 5.26 5.1 5.1 0 0 1 -4.1 2.15 7.6 7.6 0 0 1 -2.76-.45 20.7 20.7 0 0 1 -2.95-1.55 33.87 33.87 0 0 0 -6.95-2.9 26.4 26.4 0 0 0 -7.06-.9q-9.5 0-14.15 5.3t-4.65 16.31q0 11.3 4.85 16.76t14.86 5.45a45.35 45.35 0 0 0 9.5-1v-13.09h-7.2a7.29 7.29 0 0 1 -5.11-1.65 6.91 6.91 0 0 1 0-9.3 7.24 7.24 0 0 1 5.11-1.65h16.51a7.29 7.29 0 0 1 5.25 1.85z"/></g></svg>