<svg id="Artwork" height="512" viewBox="0 0 512 512" width="512" xmlns="http://www.w3.org/2000/svg"><path d="m59.21 215.34-27.01 27.09h27.01z" fill="#dd9536"/><path d="m452.73 215.34 27.02 27.09h-27.02z" fill="#dd9536"/><path d="m453.06 109.29a10 10 0 0 0 -2.93-7.07l-99.42-99.42a10 10 0 0 0 -7.07-2.93h-274.42a10 10 0 0 0 -10 10v492a10 10 0 0 0 10 10h373.84a10 10 0 0 0 10-10z" fill="#f1f1f1"/><path d="m452.73 106.8a9.88 9.88 0 0 0 -2.6-4.58l-99.42-99.42a10 10 0 0 0 -7.07-2.93v94.92a12 12 0 0 0 12 12z" fill="#ccc"/><path d="m452.73 106.8h-97.08a12 12 0 0 1 -12-12v10.15c0 6.63 4.12 15 12.38 15h97v-10.66a6.46 6.46 0 0 0 -.3-2.49z" fill="#e8e8e8"/><path d="m472.11 412.17h-432.22a10 10 0 0 1 -10-10v-153.34a10 10 0 0 1 10-10h432.22a10 10 0 0 1 10 10v153.33a10 10 0 0 1 -10 10.01z" fill="#faaf3a"/><path d="m59.21 412.17h393.85v12.97h-393.85z" fill="#e0e0e0"/><g fill="#fff"><path d="m219.58 299.57a9 9 0 0 1 2.4 6.5v54.43a8.09 8.09 0 0 1 -2.2 6 8.68 8.68 0 0 1 -11.55 0 8 8 0 0 1 -2.25-6v-29.42l-11.41 21a13 13 0 0 1 -3.6 4.56 8.19 8.19 0 0 1 -9 0 12.92 12.92 0 0 1 -3.6-4.56l-11.3-20.41v28.83a8 8 0 0 1 -2.26 5.95 8.67 8.67 0 0 1 -11.6.05 8 8 0 0 1 -2.25-6v-54.43a8.86 8.86 0 0 1 2.45-6.5 8.35 8.35 0 0 1 6.25-2.5 8.25 8.25 0 0 1 4.9 1.55 12.18 12.18 0 0 1 3.71 4.45l18.41 34.62 18.32-34.62q3.1-6 8.41-6a8.2 8.2 0 0 1 6.17 2.5z"/><path d="m246.65 367.25a33.87 33.87 0 0 1 -11.26-4.85 8.66 8.66 0 0 1 -2.45-2.7 7.57 7.57 0 0 1 -.75-3.6 8 8 0 0 1 1.8-5.21 5.33 5.33 0 0 1 4.2-2.2 8 8 0 0 1 2.5.4 15.91 15.91 0 0 1 3 1.5 32.79 32.79 0 0 0 8.16 3.31 38.61 38.61 0 0 0 9.15 1c3.94 0 6.92-.59 9-1.75a5.62 5.62 0 0 0 3-5.15q0-2.3-2.85-3.95t-10.86-3.25a63.43 63.43 0 0 1 -15.51-5q-5.59-2.91-7.85-6.86a19 19 0 0 1 -2.25-9.55 19.25 19.25 0 0 1 3.8-11.61 25.28 25.28 0 0 1 10.52-8.16 36.43 36.43 0 0 1 14.95-2.95 48.11 48.11 0 0 1 13 1.6 32.55 32.55 0 0 1 10.41 5 8.12 8.12 0 0 1 2.55 2.75 7.67 7.67 0 0 1 .75 3.55 8.17 8.17 0 0 1 -1.75 5.21 5.2 5.2 0 0 1 -4.15 2.2 8.07 8.07 0 0 1 -2.41-.35 17.08 17.08 0 0 1 -3.1-1.55c-.33-.2-1.28-.72-2.85-1.55a22.84 22.84 0 0 0 -5.5-2 29.61 29.61 0 0 0 -6.86-.75 15.24 15.24 0 0 0 -8.2 2 5.89 5.89 0 0 0 -3.1 5.16 4.37 4.37 0 0 0 1.1 3.1 11.11 11.11 0 0 0 4.1 2.35 59.43 59.43 0 0 0 8.91 2.35 60 60 0 0 1 15.1 5.05 19.39 19.39 0 0 1 7.81 6.86 17.82 17.82 0 0 1 2.3 9.2 19.27 19.27 0 0 1 -3.7 11.66 23.63 23.63 0 0 1 -10.36 7.8 40.14 40.14 0 0 1 -15.5 2.69 59.7 59.7 0 0 1 -14.85-1.75z"/><path d="m361.9 330.13a6.53 6.53 0 0 1 2 5v17.4a29.82 29.82 0 0 1 -.75 7.66 7.69 7.69 0 0 1 -2.7 4.15 17.5 17.5 0 0 1 -5.85 2.6 63.69 63.69 0 0 1 -8.65 1.55 76.61 76.61 0 0 1 -8.95.51q-11.51 0-20-4.35a30.28 30.28 0 0 1 -13-12.51q-4.5-8.14-4.5-19.36a39.07 39.07 0 0 1 4.5-19.16 30.81 30.81 0 0 1 12.81-12.55 40.81 40.81 0 0 1 19.41-4.4 44.13 44.13 0 0 1 12.56 1.65 35 35 0 0 1 10.35 5.05 7.73 7.73 0 0 1 2.45 2.6 7.63 7.63 0 0 1 .75 3.6 8.2 8.2 0 0 1 -1.7 5.26 5.08 5.08 0 0 1 -4.1 2.15 7.54 7.54 0 0 1 -2.75-.45 19.44 19.44 0 0 1 -2.78-1.53 34.5 34.5 0 0 0 -7-2.9 26.32 26.32 0 0 0 -7.05-.9q-9.51 0-14.16 5.31t-4.65 16.3q0 11.31 4.85 16.76t14.85 5.43a46.12 46.12 0 0 0 9.51-1v-13.11h-7.21a7.28 7.28 0 0 1 -5.1-1.65 6.92 6.92 0 0 1 0-9.31 7.28 7.28 0 0 1 5.1-1.65h16.51a7.33 7.33 0 0 1 5.25 1.85z"/></g></svg>