<svg id="Artwork" height="512" viewBox="0 0 512 512" width="512" xmlns="http://www.w3.org/2000/svg"><path d="m59.21 215.34-27.01 27.09h27.01z" fill="#088faf"/><path d="m452.73 215.34 27.02 27.09h-27.02z" fill="#088faf"/><path d="m453.06 109.29a10 10 0 0 0 -2.93-7.07l-99.42-99.42a10 10 0 0 0 -7.07-2.93h-274.42a10 10 0 0 0 -10 10v492a10 10 0 0 0 10 10h373.84a10 10 0 0 0 10-10z" fill="#f1f1f1"/><path d="m452.73 106.8a9.88 9.88 0 0 0 -2.6-4.58l-99.42-99.42a10 10 0 0 0 -7.07-2.93v94.92a12 12 0 0 0 12 12z" fill="#ccc"/><path d="m452.73 106.8h-97.08a12 12 0 0 1 -12-12v10.15c0 6.63 4.12 15 12.38 15h97v-10.66a6.46 6.46 0 0 0 -.3-2.49z" fill="#e8e8e8"/><path d="m472.11 412.17h-432.22a10 10 0 0 1 -10-10v-153.34a10 10 0 0 1 10-10h432.22a10 10 0 0 1 10 10v153.33a10 10 0 0 1 -10 10.01z" fill="#29abe1"/><path d="m59.21 412.17h393.85v12.97h-393.85z" fill="#e0e0e0"/><g fill="#fff"><path d="m223.33 303.39a8.87 8.87 0 0 1 2.46 6.5v53.53a9.13 9.13 0 0 1 -2.41 6.6 8.19 8.19 0 0 1 -6.2 2.5 8 8 0 0 1 -6.8-3l-30.38-37.92v31.82a9.37 9.37 0 0 1 -2.3 6.6 8 8 0 0 1 -6.2 2.5 8.21 8.21 0 0 1 -6.21-2.5 9.13 9.13 0 0 1 -2.4-6.6v-53.53a9 9 0 0 1 2.4-6.5 8.21 8.21 0 0 1 6.21-2.5 8.09 8.09 0 0 1 6.7 3l30.42 37.82v-31.82a9.05 9.05 0 0 1 2.35-6.55 8.09 8.09 0 0 1 6.15-2.45 8.36 8.36 0 0 1 6.21 2.5z"/><path d="m240.79 369.72a8.52 8.52 0 0 1 -2.2-6.3v-53.53a7.68 7.68 0 0 1 8.5-8.5h34.62q4.31 0 6.51 1.8a6.35 6.35 0 0 1 2.2 5.2q0 7.2-8.71 7.2h-25.21v13.41h23.21q8.7 0 8.71 7.1a6.34 6.34 0 0 1 -2.21 5.21q-2.19 1.8-6.5 1.8h-23.21v14.61h25.21q8.71 0 8.71 7.2a6.35 6.35 0 0 1 -2.2 5.2q-2.21 1.8-6.51 1.8h-34.62a8.52 8.52 0 0 1 -6.3-2.2z"/><path d="m309 371.07a33.87 33.87 0 0 1 -11.26-4.85 8.78 8.78 0 0 1 -2.45-2.7 7.63 7.63 0 0 1 -.75-3.6 8 8 0 0 1 1.8-5.21 5.33 5.33 0 0 1 4.2-2.2 8 8 0 0 1 2.5.4 15.91 15.91 0 0 1 3 1.5 32.79 32.79 0 0 0 8.16 3.31 38.61 38.61 0 0 0 9.15 1c3.94 0 6.92-.59 9-1.76a5.6 5.6 0 0 0 3-5.15q0-2.3-2.85-3.95t-10.86-3.25a63.19 63.19 0 0 1 -15.5-5q-5.61-2.91-7.86-6.86a19 19 0 0 1 -2.28-9.55 19.25 19.25 0 0 1 3.8-11.61 25.35 25.35 0 0 1 10.46-8.15 36.43 36.43 0 0 1 15-2.95 48.11 48.11 0 0 1 13 1.6 32.55 32.55 0 0 1 10.41 5 8.12 8.12 0 0 1 2.55 2.75 7.67 7.67 0 0 1 .75 3.55 8.17 8.17 0 0 1 -1.75 5.21 5.2 5.2 0 0 1 -4.15 2.2 8.07 8.07 0 0 1 -2.41-.35 16.62 16.62 0 0 1 -3.1-1.56c-.33-.19-1.28-.71-2.85-1.55a23.28 23.28 0 0 0 -5.5-2 29.61 29.61 0 0 0 -6.86-.75 15.24 15.24 0 0 0 -8.2 2 5.89 5.89 0 0 0 -3.1 5.16 4.43 4.43 0 0 0 1.1 3.1 11.11 11.11 0 0 0 4.1 2.35 59.43 59.43 0 0 0 8.91 2.35 60 60 0 0 1 15.1 5.05 19.39 19.39 0 0 1 7.81 6.86 17.82 17.82 0 0 1 2.3 9.2 19.27 19.27 0 0 1 -3.7 11.66 23.63 23.63 0 0 1 -10.36 7.8 40.14 40.14 0 0 1 -15.46 2.75 59.7 59.7 0 0 1 -14.85-1.8z"/></g></svg>