<svg height="512" viewBox="0 0 408.1 512" width="512" xmlns="http://www.w3.org/2000/svg"><g id="Layer_2" data-name="Layer 2"><g id="_OpenOffice_Writer_document_file" data-name=" OpenOffice Writer document file"><path d="m52.83 427.68v-52h20.44l334.83-.08v84.13a52.24 52.24 0 0 1 -52.24 52.27h-250.77a52.25 52.25 0 0 1 -52.26-52.24z" fill="#e7e7e9"/><path d="m397.58 74.24a31.35 31.35 0 0 1 10 17.92h-62.18a31.35 31.35 0 0 1 -31.34-31.34v-58.45a31.05 31.05 0 0 1 8.94 5.55z" fill="#a3a2a3"/><path d="m407.58 92.16a30.49 30.49 0 0 1 .49 5.5v91.79l-355.27.07v-126.83a62.7 62.7 0 0 1 62.73-62.69h186.61a31.12 31.12 0 0 1 11.93 2.37v58.45a31.35 31.35 0 0 0 31.33 31.34z" fill="#e7e7e9"/><path d="m220.27 241.86c22.29 0 33.83 18.79 33.83 41.87s-12.81 41.33-33.1 41.69c-6.76.12-24.25.18-24.25.18s-.1-30.34-.1-42c0-9.25-.06-39.77-.06-41.69v-.09z" fill="#0c98e5"/><path d="m196.72 325.6s17.49-.06 24.25-.18c20.32-.36 33.13-18.62 33.13-41.69s-11.54-41.87-33.83-41.87h-23.71v.14c0 1.92.06 32.44.06 41.69 0 11.57.1 41.91.1 41.91zm-125.78-41.87a41.87 41.87 0 1 0 41.88-41.87 41.87 41.87 0 0 0 -41.88 41.87zm337.16 82.27v9.62l-334.83.08h-47.27a26 26 0 0 0 -25.86 23.3l.43-183.49a26 26 0 0 1 26-26h26.26l355.27-.07z" fill="#0c98e5"/><path d="m70.94 283.73a41.87 41.87 0 1 1 41.88 41.87 41.88 41.88 0 0 1 -41.88-41.87z" fill="#0c98e5"/><path d="m52.83 377.94v49.74h-26.83a26 26 0 0 1 -26-26.12 23.59 23.59 0 0 1 .14-2.56 26 26 0 0 1 25.86-23.29h26.83z" fill="#0576c0"/><g fill="#fff"><path d="m112.82 336a52.28 52.28 0 1 1 52.27-52.28 52.34 52.34 0 0 1 -52.27 52.28zm0-83.75a31.47 31.47 0 1 0 31.46 31.47 31.51 31.51 0 0 0 -31.46-31.46z"/><path d="m196.56 334.65a10.41 10.41 0 0 1 -10.41-10.4v-82.25a10.41 10.41 0 0 1 20.85 0v82.3a10.41 10.41 0 0 1 -10.44 10.35z"/><path d="m196.72 336a10.41 10.41 0 0 1 -10.4-10.38c0-.3-.11-30.48-.11-42 0-6.36 0-22.75 0-33 0-4.68 0-8.08 0-8.68a10.49 10.49 0 0 1 10.41-10.5h23.71c26.46 0 44.23 21 44.23 52.28 0 29.74-18.23 51.65-43.34 52.1-6.77.11-23.68.17-24.4.18zm10.28-83.74c0 10.3.05 25.35.05 31.38 0 7.16 0 21.59.07 31.5 5 0 10.55-.07 13.69-.12 15.82-.29 22.9-15.92 22.9-31.29 0-15.21-6.15-31.47-23.42-31.47z"/><path d="m337 252.26h-46.23a10.41 10.41 0 1 1 0-20.81h46.23a10.41 10.41 0 0 1 0 20.81z"/><path d="m313.89 336a10.41 10.41 0 0 1 -10.41-10.41v-83.73a10.41 10.41 0 0 1 20.82 0v83.74a10.41 10.41 0 0 1 -10.41 10.4z"/></g></g></g></svg>