<svg id="Artwork" height="512" viewBox="0 0 512 512" width="512" xmlns="http://www.w3.org/2000/svg"><path d="m59.21 215.34-27.01 27.09h27.01z" fill="#dd9536"/><path d="m452.73 215.34 27.02 27.09h-27.02z" fill="#dd9536"/><path d="m453.06 109.29a10 10 0 0 0 -2.93-7.07l-99.42-99.42a10 10 0 0 0 -7.07-2.93h-274.42a10 10 0 0 0 -10 10v492a10 10 0 0 0 10 10h373.84a10 10 0 0 0 10-10z" fill="#f1f1f1"/><path d="m452.73 106.8a9.88 9.88 0 0 0 -2.6-4.58l-99.42-99.42a10 10 0 0 0 -7.07-2.93v94.92a12 12 0 0 0 12 12z" fill="#ccc"/><path d="m452.73 106.8h-97.08a12 12 0 0 1 -12-12v10.15c0 6.63 4.12 15 12.38 15h97v-10.66a6.46 6.46 0 0 0 -.3-2.49z" fill="#e8e8e8"/><path d="m472.11 412.17h-432.22a10 10 0 0 1 -10-10v-153.34a10 10 0 0 1 10-10h432.22a10 10 0 0 1 10 10v153.33a10 10 0 0 1 -10 10.01z" fill="#faaf3a"/><path d="m59.21 412.17h393.85v12.97h-393.85z" fill="#e0e0e0"/><g fill="#fff"><path d="m179.66 368.37a30.41 30.41 0 0 1 -12.26-12.61 44.84 44.84 0 0 1 0-38.32 30.09 30.09 0 0 1 12.26-12.55 42.19 42.19 0 0 1 37.52 0 29.8 29.8 0 0 1 12.21 12.55 41 41 0 0 1 4.25 19.16 40.57 40.57 0 0 1 -4.3 19.16 30.41 30.41 0 0 1 -12.26 12.61 41.56 41.56 0 0 1 -37.42 0zm31.27-15.31q4.5-5.65 4.5-16.46t-4.55-16.4q-4.56-5.61-12.46-5.61t-12.51 5.56q-4.5 5.55-4.5 16.45t4.5 16.51q4.51 5.61 12.51 5.61t12.51-5.66z"/><path d="m259.1 370a8.66 8.66 0 0 1 -2.55-6.55v-47.16h-14.11c-2.93 0-5.12-.61-6.55-1.85s-2.15-3.11-2.15-5.65.72-4.4 2.15-5.6 3.62-1.8 6.55-1.8h46.83c2.93 0 5.12.6 6.55 1.8s2.15 3.07 2.15 5.6-.72 4.42-2.15 5.65-3.62 1.85-6.55 1.85h-14.11v47.13a8.66 8.66 0 0 1 -2.55 6.55 10.54 10.54 0 0 1 -13.51 0z"/><path d="m306.38 370a8.91 8.91 0 0 1 -2.51-6.6v-53.51a7.69 7.69 0 0 1 8.51-8.5h33.62q4.5 0 6.6 1.75c1.4 1.16 2.1 3 2.1 5.55s-.72 4.27-2.15 5.4-3.62 1.7-6.55 1.7h-24v13h22c2.94 0 5.12.6 6.56 1.8a6.79 6.79 0 0 1 2.15 5.5q0 3.7-2.15 5.41c-1.44 1.13-3.62 1.7-6.56 1.7h-22v20.21a9 9 0 0 1 -2.45 6.65 10 10 0 0 1 -13.15-.05z"/></g></svg>