<svg id="Artwork" height="512" viewBox="0 0 512 512" width="512" xmlns="http://www.w3.org/2000/svg"><path d="m453.06 109.29a10 10 0 0 0 -2.93-7.07l-99.42-99.42a10 10 0 0 0 -7.07-2.93h-274.42a10 10 0 0 0 -10 10v492a10 10 0 0 0 10 10h373.84a10 10 0 0 0 10-10z" fill="#f1f1f1"/><path d="m452.73 106.8a9.88 9.88 0 0 0 -2.6-4.58l-99.42-99.42a10 10 0 0 0 -7.07-2.93v94.92a12 12 0 0 0 12 12z" fill="#ccc"/><path d="m452.73 106.8h-97.08a12 12 0 0 1 -12-12v10.15c0 6.63 4.12 15 12.38 15h97v-10.66a6.46 6.46 0 0 0 -.3-2.49z" fill="#e8e8e8"/><path d="m59.21 215.34-27.01 27.09h27.01z" fill="#c6406d"/><path d="m452.73 215.34 27.02 27.09h-27.02z" fill="#c6406d"/><path d="m472.11 412.17h-432.22a10 10 0 0 1 -10-10v-153.34a10 10 0 0 1 10-10h432.22a10 10 0 0 1 10 10v153.33a10 10 0 0 1 -10 10.01z" fill="#ff4d79"/><path d="m59.21 412.17h393.85v12.97h-393.85z" fill="#e0e0e0"/><g fill="#fff"><path d="m164.3 364.6a9 9 0 0 1 -2.45-6.65v-53.53a7.68 7.68 0 0 1 8.51-8.5h25.64q11.7 0 18.21 5.95t6.5 16.56q0 10.5-6.55 16.51t-18.16 6h-15.74v17a8.87 8.87 0 0 1 -2.5 6.65 9.29 9.29 0 0 1 -6.8 2.46 9 9 0 0 1 -6.66-2.45zm29.17-37.46c3.4 0 5.92-.71 7.55-2.11s2.45-3.56 2.45-6.5q0-8.7-10-8.7h-13.21v17.31z"/><path d="m231.79 364.25a8.49 8.49 0 0 1 -2.2-6.3v-53.53a7.68 7.68 0 0 1 8.5-8.5h20.21q11.7 0 20.16 4.25a30.09 30.09 0 0 1 13 12.16q4.5 7.91 4.5 18.81t-4.45 19a29.38 29.38 0 0 1 -12.91 12.15q-8.46 4.2-20.26 4.21h-20.25a8.5 8.5 0 0 1 -6.3-2.25zm25.21-12.6q10.31 0 15.46-5.06t5.15-15.45q0-10.41-5.15-15.41t-15.46-5h-9v40.92z"/><path d="m309.43 364.55a8.9 8.9 0 0 1 -2.51-6.6v-53.53a7.69 7.69 0 0 1 8.51-8.5h33.62q4.5 0 6.6 1.75t2.1 5.55q0 3.7-2.15 5.41c-1.43 1.13-3.62 1.7-6.55 1.7h-24.05v13h22q4.4 0 6.55 1.8t2.15 5.51q0 3.71-2.15 5.4t-6.55 1.7h-22v20.26a9 9 0 0 1 -2.45 6.65 9.94 9.94 0 0 1 -13.15-.05z"/></g></svg>