<svg id="Artwork" height="512" viewBox="0 0 512 512" width="512" xmlns="http://www.w3.org/2000/svg"><path d="m453.06 109.29a10 10 0 0 0 -2.93-7.07l-99.42-99.42a10 10 0 0 0 -7.07-2.93h-274.42a10 10 0 0 0 -10 10v492a10 10 0 0 0 10 10h373.84a10 10 0 0 0 10-10z" fill="#f1f1f1"/><path d="m452.73 106.8a9.88 9.88 0 0 0 -2.6-4.58l-99.42-99.42a10 10 0 0 0 -7.07-2.93v94.92a12 12 0 0 0 12 12z" fill="#ccc"/><path d="m452.73 106.8h-97.08a12 12 0 0 1 -12-12v10.15c0 6.63 4.12 15 12.38 15h97v-10.66a6.46 6.46 0 0 0 -.3-2.49z" fill="#e8e8e8"/><path d="m59.21 215.34-27.01 27.09h27.01z" fill="#088faf"/><path d="m452.73 215.34 27.02 27.09h-27.02z" fill="#088faf"/><path d="m472.11 412.17h-432.22a10 10 0 0 1 -10-10v-153.34a10 10 0 0 1 10-10h432.22a10 10 0 0 1 10 10v153.33a10 10 0 0 1 -10 10.01z" fill="#29abe1"/><path d="m59.21 412.17h393.85v12.97h-393.85z" fill="#e0e0e0"/><g fill="#fff"><path d="m156.8 364.6a9 9 0 0 1 -2.45-6.65v-53.53a7.68 7.68 0 0 1 8.5-8.5h25.62q11.7 0 18.21 5.95t6.5 16.56q0 10.5-6.55 16.51t-18.16 6h-15.71v17a8.91 8.91 0 0 1 -2.5 6.65 9.3 9.3 0 0 1 -6.81 2.46 9 9 0 0 1 -6.65-2.45zm29.2-37.46c3.4 0 5.91-.71 7.55-2.11s2.45-3.56 2.45-6.5q0-8.7-10-8.7h-13.24v17.31z"/><path d="m282.56 297.92a8.88 8.88 0 0 1 2.45 6.5v53.58a9.11 9.11 0 0 1 -2.4 6.6 8.2 8.2 0 0 1 -6.2 2.51 8 8 0 0 1 -6.8-3l-30.42-37.92v31.81a9.36 9.36 0 0 1 -2.3 6.6 8 8 0 0 1 -6.2 2.51 8.22 8.22 0 0 1 -6.21-2.51 9.11 9.11 0 0 1 -2.4-6.6v-53.58a9 9 0 0 1 2.4-6.5 8.21 8.21 0 0 1 6.21-2.5 8.11 8.11 0 0 1 6.7 3l30.42 37.82v-31.82a9.07 9.07 0 0 1 2.35-6.55 8.13 8.13 0 0 1 6.15-2.45 8.36 8.36 0 0 1 6.25 2.5z"/><path d="m358.3 328.49a6.49 6.49 0 0 1 1.95 4.95v17.41a29.78 29.78 0 0 1 -.75 7.65 7.69 7.69 0 0 1 -2.7 4.15 17.5 17.5 0 0 1 -5.85 2.6 65.08 65.08 0 0 1 -8.66 1.56 78.88 78.88 0 0 1 -8.85.55q-11.51 0-20-4.36a30.26 30.26 0 0 1 -13-12.5q-4.5-8.16-4.5-19.36a39 39 0 0 1 4.5-19.16 30.78 30.78 0 0 1 12.81-12.56 40.88 40.88 0 0 1 19.41-4.4 44 44 0 0 1 12.55 1.65 35.21 35.21 0 0 1 10.36 5.05 7.83 7.83 0 0 1 2.45 2.6 7.64 7.64 0 0 1 .75 3.61 8.25 8.25 0 0 1 -1.7 5.25 5.08 5.08 0 0 1 -4.1 2.15 7.51 7.51 0 0 1 -2.75-.45 20.18 20.18 0 0 1 -2.95-1.55 33.38 33.38 0 0 0 -7-2.9 26.37 26.37 0 0 0 -7.05-.9q-9.51 0-14.16 5.3t-4.65 16.31q0 11.31 4.85 16.76t14.86 5.45a45.28 45.28 0 0 0 9.5-1v-13.11h-7.2a7.28 7.28 0 0 1 -5.1-1.65 6.91 6.91 0 0 1 0-9.3 7.28 7.28 0 0 1 5.1-1.66h16.51a7.29 7.29 0 0 1 5.37 1.86z"/></g></svg>