<svg id="Artwork" height="512" viewBox="0 0 512 512" width="512" xmlns="http://www.w3.org/2000/svg"><path d="m59.21 215.34-27.01 27.09h27.01z" fill="#088faf"/><path d="m452.73 215.34 27.02 27.09h-27.02z" fill="#088faf"/><path d="m453.06 109.29a10 10 0 0 0 -2.93-7.07l-99.42-99.42a10 10 0 0 0 -7.07-2.93h-274.42a10 10 0 0 0 -10 10v492a10 10 0 0 0 10 10h373.84a10 10 0 0 0 10-10z" fill="#f1f1f1"/><path d="m452.73 106.8a9.88 9.88 0 0 0 -2.6-4.58l-99.42-99.42a10 10 0 0 0 -7.07-2.93v94.92a12 12 0 0 0 12 12z" fill="#ccc"/><path d="m452.73 106.8h-97.08a12 12 0 0 1 -12-12v10.15c0 6.63 4.12 15 12.38 15h97v-10.66a6.46 6.46 0 0 0 -.3-2.49z" fill="#e8e8e8"/><path d="m472.11 412.17h-432.22a10 10 0 0 1 -10-10v-153.34a10 10 0 0 1 10-10h432.22a10 10 0 0 1 10 10v153.33a10 10 0 0 1 -10 10.01z" fill="#29abe1"/><path d="m59.21 412.17h393.85v12.97h-393.85z" fill="#e0e0e0"/><g fill="#fff"><path d="m164.8 364.6a9 9 0 0 1 -2.45-6.65v-53.53a7.68 7.68 0 0 1 8.51-8.5h25.61q11.7 0 18.21 5.95t6.5 16.56q0 10.5-6.55 16.51t-18.16 6h-15.71v17a8.87 8.87 0 0 1 -2.5 6.65 9.27 9.27 0 0 1 -6.8 2.46 9 9 0 0 1 -6.66-2.45zm29.2-37.46c3.4 0 5.92-.71 7.55-2.11s2.45-3.56 2.45-6.5q0-8.7-10-8.7h-13.24v17.31z"/><path d="m232.54 364.6a9 9 0 0 1 -2.45-6.65v-53.53a7.68 7.68 0 0 1 8.5-8.5h25.61q11.71 0 18.21 5.95t6.51 16.56q0 10.5-6.56 16.51t-18.16 6h-15.7v17a8.87 8.87 0 0 1 -2.5 6.66 9.26 9.26 0 0 1 -6.8 2.46 9 9 0 0 1 -6.66-2.46zm29.16-37.46c3.4 0 5.92-.71 7.56-2.11s2.45-3.56 2.45-6.5q0-8.7-10-8.7h-13.21v17.31z"/><path d="m309.48 365.6a33.87 33.87 0 0 1 -11.26-4.85 8.57 8.57 0 0 1 -2.45-2.7 7.57 7.57 0 0 1 -.75-3.6 8 8 0 0 1 1.8-5.2 5.3 5.3 0 0 1 4.2-2.2 8 8 0 0 1 2.5.39 15.46 15.46 0 0 1 3 1.51 33.13 33.13 0 0 0 8.16 3.3 38.1 38.1 0 0 0 9.15 1c3.94 0 6.92-.58 9-1.75a5.62 5.62 0 0 0 3-5.16q0-2.29-2.85-3.95t-10.86-3.25a63.19 63.19 0 0 1 -15.5-5q-5.61-2.91-7.86-6.85a19 19 0 0 1 -2.25-9.56 19.25 19.25 0 0 1 3.8-11.61 25.43 25.43 0 0 1 10.47-8.12 36.43 36.43 0 0 1 15-3 48.11 48.11 0 0 1 13 1.6 33 33 0 0 1 10.41 5 8.22 8.22 0 0 1 2.55 2.75 7.67 7.67 0 0 1 .75 3.55 8.15 8.15 0 0 1 -1.75 5.21 5.17 5.17 0 0 1 -4.15 2.2 8.07 8.07 0 0 1 -2.41-.35 16.43 16.43 0 0 1 -3.1-1.55c-.33-.2-1.28-.72-2.85-1.55a22.84 22.84 0 0 0 -5.5-2 29.61 29.61 0 0 0 -6.86-.75 15.24 15.24 0 0 0 -8.2 1.95 5.87 5.87 0 0 0 -3.1 5.15 4.42 4.42 0 0 0 1.1 3.1 11 11 0 0 0 4.1 2.35 59.43 59.43 0 0 0 8.91 2.35 59.55 59.55 0 0 1 15.1 5.06 19.3 19.3 0 0 1 7.81 6.85 17.82 17.82 0 0 1 2.3 9.2 19.25 19.25 0 0 1 -3.7 11.66 23.63 23.63 0 0 1 -10.36 7.8 40.14 40.14 0 0 1 -15.46 2.76 59.69 59.69 0 0 1 -14.89-1.74z"/></g></svg>