<svg id="Artwork" height="512" viewBox="0 0 512 512" width="512" xmlns="http://www.w3.org/2000/svg"><path d="m453.06 109.29a10 10 0 0 0 -2.93-7.07l-99.42-99.42a10 10 0 0 0 -7.07-2.93h-274.42a10 10 0 0 0 -10 10v492a10 10 0 0 0 10 10h373.84a10 10 0 0 0 10-10z" fill="#f1f1f1"/><path d="m452.73 106.8a9.88 9.88 0 0 0 -2.6-4.58l-99.42-99.42a10 10 0 0 0 -7.07-2.93v94.92a12 12 0 0 0 12 12z" fill="#ccc"/><path d="m452.73 106.8h-97.08a12 12 0 0 1 -12-12v10.15c0 6.63 4.12 15 12.38 15h97v-10.66a6.46 6.46 0 0 0 -.3-2.49z" fill="#e8e8e8"/><path d="m59.21 215.34-27.01 27.09h27.01z" fill="#c95623"/><path d="m452.73 215.34 27.02 27.09h-27.02z" fill="#c95623"/><path d="m472.11 412.17h-432.22a10 10 0 0 1 -10-10v-153.34a10 10 0 0 1 10-10h432.22a10 10 0 0 1 10 10v153.33a10 10 0 0 1 -10 10.01z" fill="#ff732b"/><path d="m59.21 412.17h393.85v12.97h-393.85z" fill="#e0e0e0"/><g fill="#fff"><path d="m167.1 364.6a9 9 0 0 1 -2.45-6.65v-53.53a7.68 7.68 0 0 1 8.51-8.5h25.61q11.7 0 18.21 5.95t6.5 16.56q0 10.5-6.55 16.51t-18.16 6h-15.71v17a8.87 8.87 0 0 1 -2.5 6.65 9.29 9.29 0 0 1 -6.8 2.46 9 9 0 0 1 -6.66-2.45zm29.17-37.46c3.4 0 5.92-.71 7.55-2.11s2.46-3.56 2.46-6.5q0-8.7-10-8.7h-13.22v17.31z"/><path d="m234.84 364.6a9 9 0 0 1 -2.45-6.65v-53.53a7.68 7.68 0 0 1 8.5-8.5h25.62q11.7 0 18.2 5.95t6.51 16.56q0 10.5-6.56 16.51t-18.15 6h-15.71v17a8.87 8.87 0 0 1 -2.51 6.65 9.26 9.26 0 0 1 -6.8 2.46 9 9 0 0 1 -6.65-2.45zm29.16-37.46c3.41 0 5.92-.71 7.56-2.11s2.45-3.56 2.45-6.5q0-8.7-10-8.7h-13.21v17.31z"/><path d="m317.18 364.5a8.65 8.65 0 0 1 -2.55-6.55v-47.12h-14.11c-2.93 0-5.12-.62-6.55-1.85s-2.15-3.12-2.15-5.66.71-4.4 2.15-5.6 3.62-1.8 6.55-1.8h46.83q4.39 0 6.55 1.8t2.15 5.6c0 2.54-.72 4.42-2.15 5.66s-3.62 1.85-6.55 1.85h-14.11v47.17a8.65 8.65 0 0 1 -2.55 6.55 10.5 10.5 0 0 1 -13.51 0z"/></g></svg>