<svg id="Artwork" height="512" viewBox="0 0 512 512" width="512" xmlns="http://www.w3.org/2000/svg"><path d="m59.21 215.34-27.01 27.09h27.01z" fill="#dd9536"/><path d="m452.73 215.34 27.02 27.09h-27.02z" fill="#dd9536"/><path d="m453.06 109.29a10 10 0 0 0 -2.93-7.07l-99.42-99.42a10 10 0 0 0 -7.07-2.93h-274.42a10 10 0 0 0 -10 10v492a10 10 0 0 0 10 10h373.84a10 10 0 0 0 10-10z" fill="#f1f1f1"/><path d="m452.73 106.8a9.88 9.88 0 0 0 -2.6-4.58l-99.42-99.42a10 10 0 0 0 -7.07-2.93v94.92a12 12 0 0 0 12 12z" fill="#ccc"/><path d="m452.73 106.8h-97.08a12 12 0 0 1 -12-12v10.15c0 6.63 4.12 15 12.38 15h97v-10.66a6.46 6.46 0 0 0 -.3-2.49z" fill="#e8e8e8"/><path d="m472.11 412.17h-432.22a10 10 0 0 1 -10-10v-153.34a10 10 0 0 1 10-10h432.22a10 10 0 0 1 10 10v153.33a10 10 0 0 1 -10 10.01z" fill="#faaf3a"/><path d="m59.21 412.17h393.85v12.97h-393.85z" fill="#e0e0e0"/><g fill="#fff"><path d="m216.18 359.85a6.6 6.6 0 0 1 -2.65 5.35 9.46 9.46 0 0 1 -6.15 2.16 9.61 9.61 0 0 1 -4.51-1.1 10 10 0 0 1 -3.6-3.31l-13-19a10.31 10.31 0 0 0 -2.95-2.95 6.87 6.87 0 0 0 -3.65-.95h-6.5v17.95a9.09 9.09 0 0 1 -2.4 6.65 8.82 8.82 0 0 1 -6.61 2.46 8.47 8.47 0 0 1 -9.1-9.11v-53.58a7.68 7.68 0 0 1 8.5-8.5h25.12q12.79 0 19.26 5.55t6.45 16.06a21.17 21.17 0 0 1 -4.4 13.56 21.63 21.63 0 0 1 -12.41 7.45 13.58 13.58 0 0 1 5.75 2.2 20.83 20.83 0 0 1 4.86 5.1l6.2 8.91a9.3 9.3 0 0 1 1.79 5.1zm-21.66-35.52q2.65-1.89 2.65-6.2t-2.65-6.35q-2.66-1.95-8.76-1.95h-12.76v16.4h12.8q6.07 0 8.72-1.9z"/><path d="m293.12 358.85a7.13 7.13 0 0 1 -2.65 5.6 9 9 0 0 1 -6.06 2.31 7.65 7.65 0 0 1 -4.2-1.21 8.12 8.12 0 0 1 -3-3.6l-4.5-10.1h-32.42l-4.6 10.1a7.85 7.85 0 0 1 -7.3 4.81 9.35 9.35 0 0 1 -6.16-2.31 7.05 7.05 0 0 1 -2.75-5.6 8.62 8.62 0 0 1 .9-3.7l26.42-54.23a9.27 9.27 0 0 1 3.85-4.15 11.64 11.64 0 0 1 11.25 0 9.24 9.24 0 0 1 3.91 4.15l26.41 54.23a8.62 8.62 0 0 1 .9 3.7zm-46.62-20.85h20l-10-22.31z"/><path d="m362 359.85a6.6 6.6 0 0 1 -2.65 5.35 9.46 9.46 0 0 1 -6.15 2.16 9.6 9.6 0 0 1 -4.5-1.1 10 10 0 0 1 -3.6-3.31l-13-19a10.56 10.56 0 0 0 -3-2.95 6.9 6.9 0 0 0 -3.66-.95h-6.5v17.95a9.09 9.09 0 0 1 -2.4 6.65 8.8 8.8 0 0 1 -6.6 2.46 8.47 8.47 0 0 1 -9.11-9.11v-53.58a7.68 7.68 0 0 1 8.51-8.5h25.11q12.81 0 19.26 5.55t6.45 16.06a21.11 21.11 0 0 1 -4.4 13.56 21.6 21.6 0 0 1 -12.41 7.45 13.63 13.63 0 0 1 5.76 2.2 20.81 20.81 0 0 1 4.85 5.1l6.2 8.91a9.3 9.3 0 0 1 1.84 5.1zm-21.66-35.52q2.65-1.89 2.65-6.2t-2.65-6.35c-1.77-1.3-4.68-1.95-8.75-1.95h-12.86v16.4h12.81c4.07 0 6.98-.63 8.75-1.9z"/></g></svg>