<svg id="Artwork" height="512" viewBox="0 0 512 512" width="512" xmlns="http://www.w3.org/2000/svg"><path d="m59.21 215.34-27.01 27.09h27.01z" fill="#9a439e"/><path d="m452.73 215.34 27.02 27.09h-27.02z" fill="#9a439e"/><path d="m453.06 109.29a10 10 0 0 0 -2.93-7.07l-99.42-99.42a10 10 0 0 0 -7.07-2.93h-274.42a10 10 0 0 0 -10 10v492a10 10 0 0 0 10 10h373.84a10 10 0 0 0 10-10z" fill="#f1f1f1"/><path d="m452.73 106.8a9.88 9.88 0 0 0 -2.6-4.58l-99.42-99.42a10 10 0 0 0 -7.07-2.93v94.92a12 12 0 0 0 12 12z" fill="#ccc"/><path d="m452.73 106.8h-97.08a12 12 0 0 1 -12-12v10.15c0 6.63 4.12 15 12.38 15h97v-10.66a6.46 6.46 0 0 0 -.3-2.49z" fill="#e8e8e8"/><path d="m472.11 412.17h-432.22a10 10 0 0 1 -10-10v-153.34a10 10 0 0 1 10-10h432.22a10 10 0 0 1 10 10v153.33a10 10 0 0 1 -10 10.01z" fill="#be4fc1"/><path d="m59.21 412.17h393.85v12.97h-393.85z" fill="#e0e0e0"/><g fill="#fff"><path d="m229.54 359.85a6.63 6.63 0 0 1 -2.65 5.35 9.79 9.79 0 0 1 -10.66 1.05 9.89 9.89 0 0 1 -3.6-3.3l-13-19a10.43 10.43 0 0 0 -3-2.95 6.89 6.89 0 0 0 -3.63-1h-6.51v18a9.09 9.09 0 0 1 -2.4 6.65 8.8 8.8 0 0 1 -6.6 2.46 8.47 8.47 0 0 1 -9.1-9.11v-53.58a7.68 7.68 0 0 1 8.5-8.5h25.11q12.81 0 19.26 5.55t6.46 16.06a21.12 21.12 0 0 1 -4.41 13.56 21.6 21.6 0 0 1 -12.4 7.45 13.58 13.58 0 0 1 5.75 2.2 20.81 20.81 0 0 1 4.85 5.1l6.21 8.91a9.3 9.3 0 0 1 1.82 5.1zm-21.66-35.52c1.76-1.26 2.65-3.33 2.65-6.2s-.89-5.05-2.65-6.35-4.69-1.95-8.76-1.95h-12.81v16.4h12.81q6.11 0 8.76-1.9z"/><path d="m255.6 364.5a8.65 8.65 0 0 1 -2.55-6.55v-47.12h-14.11c-2.93 0-5.12-.62-6.55-1.85s-2.15-3.12-2.15-5.66.71-4.4 2.15-5.6 3.62-1.8 6.55-1.8h46.83q4.39 0 6.55 1.8t2.15 5.6c0 2.54-.72 4.42-2.15 5.66s-3.62 1.85-6.55 1.85h-14.11v47.17a8.65 8.65 0 0 1 -2.55 6.55 10.5 10.5 0 0 1 -13.51 0z"/><path d="m302.87 364.55a8.89 8.89 0 0 1 -2.5-6.6v-53.53a7.68 7.68 0 0 1 8.51-8.5h33.61q4.51 0 6.61 1.75t2.1 5.55q0 3.7-2.15 5.41c-1.44 1.13-3.62 1.7-6.56 1.7h-24v13h22c2.94 0 5.12.6 6.56 1.8s2.15 3 2.15 5.51-.72 4.27-2.15 5.4-3.62 1.7-6.56 1.7h-22v20.26a9 9 0 0 1 -2.49 6.6 8.83 8.83 0 0 1 -6.55 2.46 8.93 8.93 0 0 1 -6.58-2.51z"/></g></svg>