<svg id="Artwork" height="512" viewBox="0 0 512 512" width="512" xmlns="http://www.w3.org/2000/svg"><path d="m59.21 215.34-27.01 27.09h27.01z" fill="#c95623"/><path d="m452.73 215.34 27.02 27.09h-27.02z" fill="#c95623"/><path d="m453.06 109.29a10 10 0 0 0 -2.93-7.07l-99.42-99.42a10 10 0 0 0 -7.07-2.93h-274.42a10 10 0 0 0 -10 10v492a10 10 0 0 0 10 10h373.84a10 10 0 0 0 10-10z" fill="#f1f1f1"/><path d="m452.73 106.8a9.88 9.88 0 0 0 -2.6-4.58l-99.42-99.42a10 10 0 0 0 -7.07-2.93v94.92a12 12 0 0 0 12 12z" fill="#ccc"/><path d="m452.73 106.8h-97.08a12 12 0 0 1 -12-12v10.15c0 6.63 4.12 15 12.38 15h97v-10.66a6.46 6.46 0 0 0 -.3-2.49z" fill="#e8e8e8"/><path d="m472.11 412.17h-432.22a10 10 0 0 1 -10-10v-153.34a10 10 0 0 1 10-10h432.22a10 10 0 0 1 10 10v153.33a10 10 0 0 1 -10 10.01z" fill="#ff732b"/><path d="m59.21 412.17h393.85v12.97h-393.85z" fill="#e0e0e0"/><g fill="#fff"><path d="m178.61 363a30.25 30.25 0 0 1 -12.3-12.6 44.28 44.28 0 0 1 0-38.32 30.34 30.34 0 0 1 12.3-12.61 40.87 40.87 0 0 1 40.87 2.3 7.73 7.73 0 0 1 2.45 2.6 7.64 7.64 0 0 1 .75 3.61 8.05 8.05 0 0 1 -1.75 5.25 5.31 5.31 0 0 1 -4.25 2.15 7.65 7.65 0 0 1 -2.7-.45 15.75 15.75 0 0 1 -2.8-1.45 28.49 28.49 0 0 0 -6.61-3 22.8 22.8 0 0 0 -6.4-.9q-8.91 0-13.26 5.35t-4.35 16.26q0 11 4.35 16.36t13.26 5.35a18 18 0 0 0 5.8-1q2.81-1 7.21-2.95a33.43 33.43 0 0 1 3.1-1.5 6.42 6.42 0 0 1 2.4-.4 5.28 5.28 0 0 1 4.25 2.15 8 8 0 0 1 1.75 5.25 7.67 7.67 0 0 1 -.75 3.55 7.5 7.5 0 0 1 -2.45 2.65 40.8 40.8 0 0 1 -40.87 2.3z"/><path d="m241.64 365.6a33.81 33.81 0 0 1 -11.25-4.85 8.45 8.45 0 0 1 -2.45-2.7 7.57 7.57 0 0 1 -.75-3.6 8 8 0 0 1 1.8-5.2 5.3 5.3 0 0 1 4.2-2.2 7.79 7.79 0 0 1 2.5.4 14.78 14.78 0 0 1 3 1.5 33 33 0 0 0 8.16 3.3 38.1 38.1 0 0 0 9.15 1c3.94 0 6.92-.58 9-1.75a5.62 5.62 0 0 0 3.05-5.16q0-2.29-2.86-3.95t-10.85-3.25a63.43 63.43 0 0 1 -15.51-5q-5.59-2.91-7.85-6.85a20.39 20.39 0 0 1 1.55-21.17 25.39 25.39 0 0 1 10.41-8.12 36.52 36.52 0 0 1 15-3 48.11 48.11 0 0 1 13 1.6 32.82 32.82 0 0 1 10.4 5 8.26 8.26 0 0 1 2.56 2.75 7.68 7.68 0 0 1 .75 3.56 8.15 8.15 0 0 1 -1.75 5.2 5.19 5.19 0 0 1 -4.16 2.2 8 8 0 0 1 -2.4-.35 16.14 16.14 0 0 1 -3.1-1.55c-.33-.2-1.29-.72-2.85-1.55a22.84 22.84 0 0 0 -5.5-2 29.68 29.68 0 0 0 -6.86-.75 15.22 15.22 0 0 0 -8.2 1.95 5.87 5.87 0 0 0 -3.1 5.15 4.37 4.37 0 0 0 1.1 3.1 11 11 0 0 0 4.1 2.35 59.58 59.58 0 0 0 8.9 2.35 59.5 59.5 0 0 1 15.11 5.06 19.3 19.3 0 0 1 7.81 6.85 17.82 17.82 0 0 1 2.3 9.2 19.19 19.19 0 0 1 -3.71 11.66 23.6 23.6 0 0 1 -10.34 7.82 40.14 40.14 0 0 1 -15.46 2.76 59.77 59.77 0 0 1 -14.9-1.76z"/><path d="m308.08 365.6a33.87 33.87 0 0 1 -11.26-4.85 8.57 8.57 0 0 1 -2.45-2.7 7.57 7.57 0 0 1 -.75-3.6 8 8 0 0 1 1.8-5.2 5.3 5.3 0 0 1 4.2-2.2 7.75 7.75 0 0 1 2.5.4 14.78 14.78 0 0 1 3 1.5 33.13 33.13 0 0 0 8.16 3.3 38.1 38.1 0 0 0 9.15 1c3.94 0 6.92-.58 9-1.75a5.62 5.62 0 0 0 3.05-5.16q0-2.29-2.85-3.95t-10.86-3.25a63.43 63.43 0 0 1 -15.51-5q-5.6-2.91-7.85-6.85a19 19 0 0 1 -2.25-9.56 19.25 19.25 0 0 1 3.8-11.61 25.36 25.36 0 0 1 10.42-8.12 36.43 36.43 0 0 1 14.95-3 48.11 48.11 0 0 1 13 1.6 33 33 0 0 1 10.41 5 8.22 8.22 0 0 1 2.55 2.75 7.68 7.68 0 0 1 .75 3.56 8.15 8.15 0 0 1 -1.75 5.2 5.17 5.17 0 0 1 -4.15 2.2 8.07 8.07 0 0 1 -2.41-.35 16.43 16.43 0 0 1 -3.1-1.55c-.33-.2-1.28-.72-2.85-1.55a22.84 22.84 0 0 0 -5.5-2 29.61 29.61 0 0 0 -6.86-.75 15.24 15.24 0 0 0 -8.2 1.95 5.87 5.87 0 0 0 -3.1 5.15 4.37 4.37 0 0 0 1.1 3.1 11 11 0 0 0 4.1 2.35 59.43 59.43 0 0 0 8.91 2.35 59.41 59.41 0 0 1 15.1 5.06 19.3 19.3 0 0 1 7.81 6.85 17.82 17.82 0 0 1 2.3 9.2 19.25 19.25 0 0 1 -3.7 11.66 23.63 23.63 0 0 1 -10.36 7.8 40.14 40.14 0 0 1 -15.46 2.76 59.69 59.69 0 0 1 -14.84-1.74z"/></g></svg>