<svg id="Artwork" height="512" viewBox="0 0 512 512" width="512" xmlns="http://www.w3.org/2000/svg"><path d="m453.06 109.29a10 10 0 0 0 -2.93-7.07l-99.42-99.42a10 10 0 0 0 -7.07-2.93h-274.42a10 10 0 0 0 -10 10v492a10 10 0 0 0 10 10h373.84a10 10 0 0 0 10-10z" fill="#f1f1f1"/><path d="m452.73 106.8a9.88 9.88 0 0 0 -2.6-4.58l-99.42-99.42a10 10 0 0 0 -7.07-2.93v94.92a12 12 0 0 0 12 12z" fill="#ccc"/><path d="m452.73 106.8h-97.08a12 12 0 0 1 -12-12v10.15c0 6.63 4.12 15 12.38 15h97v-10.66a6.46 6.46 0 0 0 -.3-2.49z" fill="#e8e8e8"/><path d="m59.21 215.34-27.01 27.09h27.01z" fill="#c95623"/><path d="m452.73 215.34 27.02 27.09h-27.02z" fill="#c95623"/><path d="m472.11 412.17h-432.22a10 10 0 0 1 -10-10v-153.34a10 10 0 0 1 10-10h432.22a10 10 0 0 1 10 10v153.33a10 10 0 0 1 -10 10.01z" fill="#ff732b"/><path d="m59.21 412.17h393.85v12.97h-393.85z" fill="#e0e0e0"/><g fill="#fff"><path d="m100.23 357.73a29 29 0 0 1 -9.57-4.13 7.29 7.29 0 0 1 -2.08-2.29 6.43 6.43 0 0 1 -.64-3.06 6.8 6.8 0 0 1 1.53-4.43 4.54 4.54 0 0 1 3.53-1.82 6.88 6.88 0 0 1 2.13.34 13.66 13.66 0 0 1 2.55 1.28 28 28 0 0 0 6.93 2.81 32.92 32.92 0 0 0 7.78.85c3.35 0 5.88-.5 7.61-1.49a4.76 4.76 0 0 0 2.6-4.38q0-2-2.43-3.36c-1.61-.94-4.69-1.86-9.22-2.77a53.21 53.21 0 0 1 -13.14-4.28 15.53 15.53 0 0 1 -6.68-5.82 17.33 17.33 0 0 1 1.32-18 21.44 21.44 0 0 1 8.88-6.93 31.09 31.09 0 0 1 12.72-2.51 40.81 40.81 0 0 1 11 1.36 28 28 0 0 1 8.85 4.25 7 7 0 0 1 2.17 2.34 6.58 6.58 0 0 1 .63 3 6.88 6.88 0 0 1 -1.48 4.42 4.39 4.39 0 0 1 -3.53 1.87 6.62 6.62 0 0 1 -2-.29 13.76 13.76 0 0 1 -2.64-1.32c-.28-.17-1.09-.61-2.42-1.32a19.42 19.42 0 0 0 -4.68-1.7 24.92 24.92 0 0 0 -5.83-.64 12.91 12.91 0 0 0 -7 1.66 5 5 0 0 0 -2.64 4.38 3.73 3.73 0 0 0 .94 2.64 9.42 9.42 0 0 0 3.49 2 49.84 49.84 0 0 0 7.56 2 50.8 50.8 0 0 1 12.85 4.3 16.4 16.4 0 0 1 6.63 5.82 15.17 15.17 0 0 1 2 7.83 16.29 16.29 0 0 1 -3.15 9.9 20.1 20.1 0 0 1 -8.8 6.64 34.17 34.17 0 0 1 -13.14 2.34 51 51 0 0 1 -12.63-1.49z"/><path d="m199.6 351.65a6.79 6.79 0 0 1 -2.12 4.93 6.88 6.88 0 0 1 -5 2.13 7.93 7.93 0 0 1 -5.78-2.72l-24.24-24.84v20.07a7.56 7.56 0 0 1 -2.13 5.66 7.89 7.89 0 0 1 -5.78 2.08 7.18 7.18 0 0 1 -7.74-7.74v-45.5a7.53 7.53 0 0 1 2.08-5.57 7.69 7.69 0 0 1 5.66-2.08 7.93 7.93 0 0 1 5.78 2.08 7.44 7.44 0 0 1 2.13 5.57v18.71l23.9-24.06a6.79 6.79 0 0 1 5-2.3 6.89 6.89 0 0 1 4.94 2.08 6.65 6.65 0 0 1 2.12 4.89 7.12 7.12 0 0 1 -2.47 5.19l-17.43 17.1 18.88 19.39a6.64 6.64 0 0 1 2.2 4.93z"/><path d="m208 356.58a7.24 7.24 0 0 1 -1.87-5.36v-45.5a6.53 6.53 0 0 1 7.23-7.22h29.44a8.58 8.58 0 0 1 5.53 1.53 5.37 5.37 0 0 1 1.87 4.42q0 6.12-7.4 6.12h-21.43v11.43h19.73q7.41 0 7.4 6a5.38 5.38 0 0 1 -1.87 4.42 8.58 8.58 0 0 1 -5.53 1.58h-19.73v12.42h21.43q7.41 0 7.4 6.12a5.37 5.37 0 0 1 -1.87 4.42 8.58 8.58 0 0 1 -5.53 1.53h-29.42a7.24 7.24 0 0 1 -5.38-1.91z"/><path d="m274 356.79a7.34 7.34 0 0 1 -2.17-5.57v-40.05h-12c-2.5 0-4.35-.53-5.57-1.58a6 6 0 0 1 -1.83-4.8 5.85 5.85 0 0 1 1.83-4.76c1.22-1 3.07-1.53 5.57-1.53h39.8q3.74 0 5.57 1.53a5.85 5.85 0 0 1 1.83 4.76 6 6 0 0 1 -1.83 4.8q-1.83 1.57-5.57 1.58h-12v40.05a7.34 7.34 0 0 1 -2.17 5.57 8.93 8.93 0 0 1 -11.48 0z"/><path d="m321.34 355.47a25.72 25.72 0 0 1 -10.46-10.71 37.69 37.69 0 0 1 0-32.57 25.8 25.8 0 0 1 10.46-10.72 34.73 34.73 0 0 1 34.74 2 6.61 6.61 0 0 1 2.08 2.21 6.38 6.38 0 0 1 .64 3.06 6.87 6.87 0 0 1 -1.49 4.47 4.48 4.48 0 0 1 -3.61 1.79 6.42 6.42 0 0 1 -2.3-.38 13.29 13.29 0 0 1 -2.38-1.23 24.18 24.18 0 0 0 -5.61-2.55 19.43 19.43 0 0 0 -5.44-.77q-7.58 0-11.27 4.55t-3.7 13.81q0 9.36 3.7 13.91t11.3 4.55a15.21 15.21 0 0 0 4.93-.81c1.58-.54 3.63-1.38 6.12-2.51 1.19-.62 2.07-1.05 2.64-1.28a5.58 5.58 0 0 1 2-.34 4.49 4.49 0 0 1 3.61 1.83 6.87 6.87 0 0 1 1.49 4.47 5.82 5.82 0 0 1 -2.72 5.27 34.69 34.69 0 0 1 -34.74 2z"/><path d="m419.39 300.15a7.54 7.54 0 0 1 2.09 5.57v45.5a7.69 7.69 0 0 1 -2.09 5.62 8.44 8.44 0 0 1 -11.14 0 7.65 7.65 0 0 1 -2.08-5.66v-17h-24.49v17a7.69 7.69 0 0 1 -2.09 5.62 8.44 8.44 0 0 1 -11.14 0 7.65 7.65 0 0 1 -2.08-5.66v-45.5a7.66 7.66 0 1 1 15.31 0v16.16h24.49v-16.08a7.88 7.88 0 0 1 13.22-5.57z"/></g></svg>