<svg id="Artwork" height="512" viewBox="0 0 512 512" width="512" xmlns="http://www.w3.org/2000/svg"><path d="m59.21 215.34-27.01 27.09h27.01z" fill="#008275"/><path d="m452.73 215.34 27.02 27.09h-27.02z" fill="#008275"/><path d="m453.06 109.29a10 10 0 0 0 -2.93-7.07l-99.42-99.42a10 10 0 0 0 -7.07-2.93h-274.42a10 10 0 0 0 -10 10v492a10 10 0 0 0 10 10h373.84a10 10 0 0 0 10-10z" fill="#f1f1f1"/><path d="m452.73 106.8a9.88 9.88 0 0 0 -2.6-4.58l-99.42-99.42a10 10 0 0 0 -7.07-2.93v94.92a12 12 0 0 0 12 12z" fill="#ccc"/><path d="m452.73 106.8h-97.08a12 12 0 0 1 -12-12v10.15c0 6.63 4.12 15 12.38 15h97v-10.66a6.46 6.46 0 0 0 -.3-2.49z" fill="#e8e8e8"/><path d="m472.11 412.17h-432.22a10 10 0 0 1 -10-10v-153.34a10 10 0 0 1 10-10h432.22a10 10 0 0 1 10 10v153.33a10 10 0 0 1 -10 10.01z" fill="#00a99d"/><path d="m59.21 412.17h393.85v12.97h-393.85z" fill="#e0e0e0"/><g fill="#fff"><path d="m173.31 371.07a34 34 0 0 1 -11.26-4.85 8.78 8.78 0 0 1 -2.45-2.7 7.63 7.63 0 0 1 -.75-3.6 8 8 0 0 1 1.8-5.21 5.33 5.33 0 0 1 4.2-2.2 8.09 8.09 0 0 1 2.51.4 15.91 15.91 0 0 1 3 1.5 32.57 32.57 0 0 0 8.15 3.31 38.64 38.64 0 0 0 9.16 1c3.93 0 6.92-.59 9-1.76a5.6 5.6 0 0 0 3-5.15q0-2.3-2.85-3.95t-10.82-3.25a63.14 63.14 0 0 1 -15.51-5q-5.61-2.91-7.86-6.86a19 19 0 0 1 -2.25-9.55 19.25 19.25 0 0 1 3.8-11.61 25.35 25.35 0 0 1 10.46-8.15 36.45 36.45 0 0 1 15-2.95 48.09 48.09 0 0 1 13 1.6 32.45 32.45 0 0 1 10.41 5 8.12 8.12 0 0 1 2.55 2.75 7.67 7.67 0 0 1 .75 3.55 8.12 8.12 0 0 1 -1.75 5.21 5.2 5.2 0 0 1 -4.15 2.2 8 8 0 0 1 -2.4-.35 16.34 16.34 0 0 1 -3.11-1.56c-.33-.19-1.28-.71-2.85-1.55a23.11 23.11 0 0 0 -5.5-2 29.59 29.59 0 0 0 -6.85-.75 15.26 15.26 0 0 0 -8.21 2 5.89 5.89 0 0 0 -3.1 5.16 4.43 4.43 0 0 0 1.1 3.1 11.2 11.2 0 0 0 4.1 2.35 59.77 59.77 0 0 0 8.91 2.35 60.07 60.07 0 0 1 15.11 5.05c3.66 2 6.27 4.26 7.8 6.86a17.82 17.82 0 0 1 2.3 9.2 19.21 19.21 0 0 1 -3.7 11.66 23.63 23.63 0 0 1 -10.36 7.8 40.09 40.09 0 0 1 -15.45 2.75 59.78 59.78 0 0 1 -14.93-1.8z"/><path d="m290.42 377.92a9.74 9.74 0 0 1 1.7 5.11 6.67 6.67 0 0 1 -2.7 5.45 9.71 9.71 0 0 1 -6.21 2.15 9.19 9.19 0 0 1 -4.5-1.15 9.57 9.57 0 0 1 -3.5-3.35l-6-10.11a5.86 5.86 0 0 0 -2.7-2.45 12.63 12.63 0 0 0 -4.91-.75 37.81 37.81 0 0 1 -18.76-4.45 30.33 30.33 0 0 1 -12.25-12.61 44.74 44.74 0 0 1 0-38.32 30 30 0 0 1 12.25-12.55 42.19 42.19 0 0 1 37.52 0 29.74 29.74 0 0 1 12.21 12.55 45.2 45.2 0 0 1 0 38.27 29.61 29.61 0 0 1 -12.26 12.61 13.53 13.53 0 0 1 8 6.1zm-16.31-24.86q4.5-5.65 4.5-16.46t-4.55-16.4q-4.56-5.61-12.46-5.61t-12.5 5.56q-4.51 5.55-4.51 16.45t4.51 16.51q4.5 5.61 12.5 5.61t12.51-5.66z"/><path d="m309.93 369.72q-2.21-2.21-2.2-6.4v-53.43a8.83 8.83 0 0 1 2.45-6.55 9 9 0 0 1 6.65-2.45 9.25 9.25 0 0 1 6.8 2.45 8.74 8.74 0 0 1 2.5 6.55v47.11h23q8.7 0 8.7 7.51 0 3.8-2.15 5.6c-1.43 1.2-3.62 1.8-6.55 1.8h-32.9a8.49 8.49 0 0 1 -6.3-2.19z"/></g></svg>