<svg id="Artwork" height="512" viewBox="0 0 512 512" width="512" xmlns="http://www.w3.org/2000/svg"><path d="m453.06 109.29a10 10 0 0 0 -2.93-7.07l-99.42-99.42a10 10 0 0 0 -7.07-2.93h-274.42a10 10 0 0 0 -10 10v492a10 10 0 0 0 10 10h373.84a10 10 0 0 0 10-10z" fill="#f1f1f1"/><path d="m452.73 106.8a9.88 9.88 0 0 0 -2.6-4.58l-99.42-99.42a10 10 0 0 0 -7.07-2.93v94.92a12 12 0 0 0 12 12z" fill="#ccc"/><path d="m452.73 106.8h-97.08a12 12 0 0 1 -12-12v10.15c0 6.63 4.12 15 12.38 15h97v-10.66a6.46 6.46 0 0 0 -.3-2.49z" fill="#e8e8e8"/><path d="m59.21 215.34-27.01 27.09h27.01z" fill="#dd9536"/><path d="m452.73 215.34 27.02 27.09h-27.02z" fill="#dd9536"/><path d="m472.11 412.17h-432.22a10 10 0 0 1 -10-10v-153.34a10 10 0 0 1 10-10h432.22a10 10 0 0 1 10 10v153.33a10 10 0 0 1 -10 10.01z" fill="#faaf3a"/><path d="m59.21 412.17h393.85v12.97h-393.85z" fill="#e0e0e0"/><g fill="#fff"><path d="m169.21 365.6a33.87 33.87 0 0 1 -11.21-4.85 8.45 8.45 0 0 1 -2.45-2.7 7.57 7.57 0 0 1 -.75-3.6 8 8 0 0 1 1.8-5.2 5.3 5.3 0 0 1 4.2-2.2 7.75 7.75 0 0 1 2.5.4 14.78 14.78 0 0 1 3 1.5 33.13 33.13 0 0 0 8.16 3.3 38.1 38.1 0 0 0 9.15 1c3.94 0 6.92-.58 9-1.75a5.62 5.62 0 0 0 3-5.16q0-2.29-2.85-3.95t-10.86-3.25a63.43 63.43 0 0 1 -15.51-5q-5.59-2.91-7.85-6.85a19 19 0 0 1 -2.25-9.56 19.25 19.25 0 0 1 3.8-11.61 25.36 25.36 0 0 1 10.42-8.12 36.43 36.43 0 0 1 15-3 48.11 48.11 0 0 1 13 1.6 33 33 0 0 1 10.41 5 8.22 8.22 0 0 1 2.55 2.75 7.68 7.68 0 0 1 .75 3.56 8.15 8.15 0 0 1 -1.75 5.2 5.17 5.17 0 0 1 -4.15 2.2 8.07 8.07 0 0 1 -2.41-.35 16.14 16.14 0 0 1 -3.1-1.55c-.33-.2-1.28-.72-2.85-1.55a22.84 22.84 0 0 0 -5.5-2 29.61 29.61 0 0 0 -6.86-.75 15.24 15.24 0 0 0 -8.2 1.95 5.87 5.87 0 0 0 -3.1 5.15 4.37 4.37 0 0 0 1.1 3.1 11 11 0 0 0 4.1 2.35 59.43 59.43 0 0 0 8.91 2.35 59.55 59.55 0 0 1 15.1 5.06 19.3 19.3 0 0 1 7.81 6.85 17.82 17.82 0 0 1 2.3 9.2 19.25 19.25 0 0 1 -3.7 11.66 23.63 23.63 0 0 1 -10.36 7.8 40.14 40.14 0 0 1 -15.46 2.76 59.69 59.69 0 0 1 -14.89-1.74z"/><path d="m276.11 296.62a8.38 8.38 0 0 1 4.4-1.2 10.26 10.26 0 0 1 6.51 2.3 7.13 7.13 0 0 1 2.9 5.8 7.78 7.78 0 0 1 -.9 3.5l-26.42 54.53a9.17 9.17 0 0 1 -3.9 4.15 11.47 11.47 0 0 1 -11.2 0 9.19 9.19 0 0 1 -3.91-4.15l-26.41-54.55a7.6 7.6 0 0 1 -.8-3.5 7.09 7.09 0 0 1 3-5.75 10.59 10.59 0 0 1 6.7-2.35 8.7 8.7 0 0 1 4.46 1.2 7.86 7.86 0 0 1 3.15 3.6l19.71 42.62 19.6-42.6a7.88 7.88 0 0 1 3.11-3.6z"/><path d="m355.1 328.49a6.49 6.49 0 0 1 1.95 4.95v17.41a29.78 29.78 0 0 1 -.75 7.65 7.69 7.69 0 0 1 -2.7 4.15 17.5 17.5 0 0 1 -5.85 2.6 65.08 65.08 0 0 1 -8.66 1.56 78.88 78.88 0 0 1 -8.85.55q-11.5 0-20-4.36a30.26 30.26 0 0 1 -13-12.5q-4.5-8.16-4.5-19.36a39 39 0 0 1 4.5-19.16 30.78 30.78 0 0 1 12.81-12.56 40.88 40.88 0 0 1 19.41-4.4 44 44 0 0 1 12.55 1.65 35.21 35.21 0 0 1 10.36 5.05 7.83 7.83 0 0 1 2.45 2.6 7.64 7.64 0 0 1 .75 3.61 8.25 8.25 0 0 1 -1.7 5.25 5.08 5.08 0 0 1 -4.1 2.15 7.51 7.51 0 0 1 -2.75-.45 20.71 20.71 0 0 1 -3-1.55 33.1 33.1 0 0 0 -6.95-2.9 26.37 26.37 0 0 0 -7.05-.9q-9.51 0-14.16 5.3t-4.65 16.31q0 11.31 4.85 16.76t14.94 5.45a45.28 45.28 0 0 0 9.5-1v-13.11h-7.2a7.28 7.28 0 0 1 -5.1-1.65 6.91 6.91 0 0 1 0-9.3 7.28 7.28 0 0 1 5.1-1.66h16.51a7.29 7.29 0 0 1 5.29 1.86z"/></g></svg>