<svg id="Artwork" height="512" viewBox="0 0 512 512" width="512" xmlns="http://www.w3.org/2000/svg"><path d="m59.21 215.34-27.01 27.09h27.01z" fill="#c6406d"/><path d="m452.73 215.34 27.02 27.09h-27.02z" fill="#c6406d"/><path d="m453.06 109.29a10 10 0 0 0 -2.93-7.07l-99.42-99.42a10 10 0 0 0 -7.07-2.93h-274.42a10 10 0 0 0 -10 10v492a10 10 0 0 0 10 10h373.84a10 10 0 0 0 10-10z" fill="#f1f1f1"/><path d="m452.73 106.8a9.88 9.88 0 0 0 -2.6-4.58l-99.42-99.42a10 10 0 0 0 -7.07-2.93v94.92a12 12 0 0 0 12 12z" fill="#ccc"/><path d="m452.73 106.8h-97.08a12 12 0 0 1 -12-12v10.15c0 6.63 4.12 15 12.38 15h97v-10.66a6.46 6.46 0 0 0 -.3-2.49z" fill="#e8e8e8"/><path d="m472.11 412.17h-432.22a10 10 0 0 1 -10-10v-153.34a10 10 0 0 1 10-10h432.22a10 10 0 0 1 10 10v153.33a10 10 0 0 1 -10 10.01z" fill="#ff4d79"/><path d="m59.21 412.17h393.85v12.97h-393.85z" fill="#e0e0e0"/><g fill="#fff"><path d="m157.55 365.6a34 34 0 0 1 -11.26-4.85 8.57 8.57 0 0 1 -2.45-2.7 7.57 7.57 0 0 1 -.75-3.6 8 8 0 0 1 1.8-5.2 5.31 5.31 0 0 1 4.21-2.2 8.07 8.07 0 0 1 2.5.39 15.46 15.46 0 0 1 3 1.51 32.91 32.91 0 0 0 8.15 3.3 38.18 38.18 0 0 0 9.16 1c3.93 0 6.92-.58 9-1.75a5.6 5.6 0 0 0 3-5.16q0-2.29-2.85-3.95t-10.85-3.25a63.14 63.14 0 0 1 -15.51-5q-5.61-2.91-7.86-6.85a20.36 20.36 0 0 1 1.56-21.17 25.33 25.33 0 0 1 10.45-8.12 36.48 36.48 0 0 1 15-3 48 48 0 0 1 13 1.6 32.88 32.88 0 0 1 10.41 5 8.22 8.22 0 0 1 2.55 2.75 7.67 7.67 0 0 1 .75 3.55 8.1 8.1 0 0 1 -1.75 5.21 5.17 5.17 0 0 1 -4.15 2.2 8 8 0 0 1 -2.4-.35 15.86 15.86 0 0 1 -3.1-1.55c-.34-.2-1.29-.72-2.86-1.55a22.69 22.69 0 0 0 -5.5-2 29.59 29.59 0 0 0 -6.85-.75 15.28 15.28 0 0 0 -8.21 1.95 5.89 5.89 0 0 0 -3.1 5.15 4.42 4.42 0 0 0 1.1 3.1 11 11 0 0 0 4.11 2.35 59.24 59.24 0 0 0 8.9 2.35 59.64 59.64 0 0 1 15.11 5.06 19.2 19.2 0 0 1 7.8 6.85 17.73 17.73 0 0 1 2.3 9.2 19.19 19.19 0 0 1 -3.7 11.66 23.66 23.66 0 0 1 -10.35 7.8 40.14 40.14 0 0 1 -15.46 2.76 59.77 59.77 0 0 1 -14.9-1.74z"/><path d="m300.32 296.72a8.75 8.75 0 0 1 5-1.5 8.57 8.57 0 0 1 5.75 2.1 7.13 7.13 0 0 1 2.45 5.7 13.25 13.25 0 0 1 -.8 4l-20.11 54.43a8.13 8.13 0 0 1 -3.65 4.36 11.44 11.44 0 0 1 -5.86 1.55 11.14 11.14 0 0 1 -5.8-1.55 8.17 8.17 0 0 1 -3.6-4.36l-13-37.12-13.6 37.12a8.65 8.65 0 0 1 -3.71 4.36 10.94 10.94 0 0 1 -5.7 1.55 11.12 11.12 0 0 1 -5.8-1.55 8.08 8.08 0 0 1 -3.6-4.36l-20.29-54.45a11.43 11.43 0 0 1 -.71-3.8 7.13 7.13 0 0 1 2.66-5.85 9.47 9.47 0 0 1 6.15-2.15 9.59 9.59 0 0 1 5.15 1.45 7.93 7.93 0 0 1 3.35 4.35l13.71 39.42 14.54-39.42a8.32 8.32 0 0 1 3.25-4.3 8.74 8.74 0 0 1 4.95-1.5 8.34 8.34 0 0 1 8.11 5.9l13.6 40.22 14.31-40.32a8.38 8.38 0 0 1 3.25-4.28z"/><path d="m325.38 364.55a8.93 8.93 0 0 1 -2.5-6.6v-53.53a7.68 7.68 0 0 1 8.51-8.5h33.61q4.5 0 6.6 1.75t2.1 5.55q0 3.7-2.15 5.41t-6.55 1.7h-24v13h22c2.94 0 5.12.6 6.56 1.8s2.15 3 2.15 5.51-.72 4.27-2.15 5.4-3.62 1.7-6.56 1.7h-22v20.26a9 9 0 0 1 -2.45 6.65 8.83 8.83 0 0 1 -6.55 2.46 8.93 8.93 0 0 1 -6.62-2.56z"/></g></svg>