<svg id="Artwork" height="512" viewBox="0 0 512 512" width="512" xmlns="http://www.w3.org/2000/svg"><path d="m59.21 215.34-27.01 27.09h27.01z" fill="#dd9536"/><path d="m452.73 215.34 27.02 27.09h-27.02z" fill="#dd9536"/><path d="m453.06 109.29a10 10 0 0 0 -2.93-7.07l-99.42-99.42a10 10 0 0 0 -7.07-2.93h-274.42a10 10 0 0 0 -10 10v492a10 10 0 0 0 10 10h373.84a10 10 0 0 0 10-10z" fill="#f1f1f1"/><path d="m452.73 106.8a9.88 9.88 0 0 0 -2.6-4.58l-99.42-99.42a10 10 0 0 0 -7.07-2.93v94.92a12 12 0 0 0 12 12z" fill="#ccc"/><path d="m452.73 106.8h-97.08a12 12 0 0 1 -12-12v10.15c0 6.63 4.12 15 12.38 15h97v-10.66a6.46 6.46 0 0 0 -.3-2.49z" fill="#e8e8e8"/><path d="m472.11 412.17h-432.22a10 10 0 0 1 -10-10v-153.34a10 10 0 0 1 10-10h432.22a10 10 0 0 1 10 10v153.33a10 10 0 0 1 -10 10.01z" fill="#faaf3a"/><path d="m59.21 412.17h393.85v12.97h-393.85z" fill="#e0e0e0"/><g fill="#fff"><path d="m178 365.6a34 34 0 0 1 -11.26-4.85 8.57 8.57 0 0 1 -2.45-2.7 7.57 7.57 0 0 1 -.75-3.6 8 8 0 0 1 1.8-5.2 5.34 5.34 0 0 1 4.21-2.2 8.07 8.07 0 0 1 2.5.39 15.46 15.46 0 0 1 3 1.51 32.91 32.91 0 0 0 8.15 3.3 38.18 38.18 0 0 0 9.16 1c3.93 0 6.92-.58 8.95-1.75a5.6 5.6 0 0 0 3.05-5.16q0-2.29-2.85-3.95t-10.85-3.25a63.14 63.14 0 0 1 -15.51-5q-5.61-2.91-7.85-6.85a18.94 18.94 0 0 1 -2.26-9.56 19.19 19.19 0 0 1 3.81-11.61 25.33 25.33 0 0 1 10.46-8.12 36.48 36.48 0 0 1 15-3 48.16 48.16 0 0 1 13 1.6 32.93 32.93 0 0 1 10.4 5 8.22 8.22 0 0 1 2.55 2.75 7.67 7.67 0 0 1 .75 3.55 8.1 8.1 0 0 1 -1.75 5.21 5.17 5.17 0 0 1 -4.15 2.2 8 8 0 0 1 -2.4-.35 15.86 15.86 0 0 1 -3.1-1.55c-.34-.2-1.29-.72-2.85-1.55a22.93 22.93 0 0 0 -5.51-2 29.53 29.53 0 0 0 -6.85-.75 15.22 15.22 0 0 0 -8.2 1.95 5.88 5.88 0 0 0 -3.11 5.15 4.42 4.42 0 0 0 1.1 3.1 11 11 0 0 0 4.11 2.35 59.24 59.24 0 0 0 8.9 2.35 59.64 59.64 0 0 1 15.11 5.06 19.2 19.2 0 0 1 7.8 6.85 17.73 17.73 0 0 1 2.3 9.2 19.19 19.19 0 0 1 -3.7 11.66 23.66 23.66 0 0 1 -10.35 7.8 40.14 40.14 0 0 1 -15.46 2.76 59.77 59.77 0 0 1 -14.9-1.74z"/><path d="m280.61 295.32a8.4 8.4 0 0 1 6 2.55 7.93 7.93 0 0 1 2.65 5.85 8.46 8.46 0 0 1 -2.2 5.51l-21 24.31v24.46q0 4.41-2.55 6.75a9.27 9.27 0 0 1 -6.55 2.36 9.58 9.58 0 0 1 -6.7-2.36c-1.74-1.56-2.6-3.81-2.6-6.75v-24.46l-20.82-24.31a8.36 8.36 0 0 1 -2.3-5.61 7.83 7.83 0 0 1 2.6-5.8 8.31 8.31 0 0 1 5.91-2.5 7.86 7.86 0 0 1 6.1 3l17.71 21 17.71-21a7.86 7.86 0 0 1 6.04-3z"/><path d="m305.47 365.6a33.9 33.9 0 0 1 -11.25-4.85 8.45 8.45 0 0 1 -2.45-2.7 7.57 7.57 0 0 1 -.75-3.6 8 8 0 0 1 1.8-5.2 5.3 5.3 0 0 1 4.2-2.2 8 8 0 0 1 2.5.39 15.46 15.46 0 0 1 3 1.51 33.13 33.13 0 0 0 8.16 3.3 38.1 38.1 0 0 0 9.15 1c3.94 0 6.92-.58 9-1.75a5.62 5.62 0 0 0 3-5.16q0-2.29-2.85-3.95t-10.86-3.25a63.43 63.43 0 0 1 -15.51-5q-5.6-2.91-7.85-6.85a20.39 20.39 0 0 1 1.55-21.17 25.36 25.36 0 0 1 10.47-8.12 36.43 36.43 0 0 1 15-3 48.11 48.11 0 0 1 13 1.6 33 33 0 0 1 10.41 5 8.22 8.22 0 0 1 2.55 2.75 7.67 7.67 0 0 1 .75 3.55 8.15 8.15 0 0 1 -1.75 5.21 5.19 5.19 0 0 1 -4.16 2.2 8 8 0 0 1 -2.4-.35 16.14 16.14 0 0 1 -3.1-1.55c-.33-.2-1.28-.72-2.85-1.55a22.84 22.84 0 0 0 -5.5-2 29.61 29.61 0 0 0 -6.86-.75 15.24 15.24 0 0 0 -8.2 1.95 5.87 5.87 0 0 0 -3.1 5.15 4.37 4.37 0 0 0 1.1 3.1 11 11 0 0 0 4.1 2.35 59.58 59.58 0 0 0 8.9 2.35 59.5 59.5 0 0 1 15.11 5.06 19.3 19.3 0 0 1 7.81 6.85 17.82 17.82 0 0 1 2.3 9.2 19.25 19.25 0 0 1 -3.7 11.66 23.63 23.63 0 0 1 -10.36 7.8 40.14 40.14 0 0 1 -15.46 2.76 59.77 59.77 0 0 1 -14.9-1.74z"/></g></svg>