<svg id="Artwork" height="512" viewBox="0 0 512 512" width="512" xmlns="http://www.w3.org/2000/svg"><path d="m59.21 215.34-27.01 27.09h27.01z" fill="#c95623"/><path d="m452.73 215.34 27.02 27.09h-27.02z" fill="#c95623"/><path d="m453.06 109.29a10 10 0 0 0 -2.93-7.07l-99.42-99.42a10 10 0 0 0 -7.07-2.93h-274.42a10 10 0 0 0 -10 10v492a10 10 0 0 0 10 10h373.84a10 10 0 0 0 10-10z" fill="#f1f1f1"/><path d="m452.73 106.8a9.88 9.88 0 0 0 -2.6-4.58l-99.42-99.42a10 10 0 0 0 -7.07-2.93v94.92a12 12 0 0 0 12 12z" fill="#ccc"/><path d="m452.73 106.8h-97.08a12 12 0 0 1 -12-12v10.15c0 6.63 4.12 15 12.38 15h97v-10.66a6.46 6.46 0 0 0 -.3-2.49z" fill="#e8e8e8"/><path d="m472.11 412.17h-432.22a10 10 0 0 1 -10-10v-153.34a10 10 0 0 1 10-10h432.22a10 10 0 0 1 10 10v153.33a10 10 0 0 1 -10 10.01z" fill="#ff732b"/><path d="m59.21 412.17h393.85v12.97h-393.85z" fill="#e0e0e0"/><g fill="#fff"><path d="m181.31 367.13a8.66 8.66 0 0 1 -2.55-6.55v-47.13h-14.11c-2.93 0-5.12-.61-6.55-1.85s-2.1-3.11-2.1-5.6.72-4.4 2.15-5.6 3.62-1.81 6.55-1.81h46.83c2.93 0 5.12.61 6.55 1.81s2.15 3.06 2.15 5.6-.71 4.42-2.15 5.65-3.62 1.85-6.55 1.85h-14.16v47.13a8.66 8.66 0 0 1 -2.55 6.55 10.54 10.54 0 0 1 -13.51 0z"/><path d="m285.32 361.48a7.14 7.14 0 0 1 -2.66 5.6 8.92 8.92 0 0 1 -6.05 2.3 7.7 7.7 0 0 1 -4.2-1.2 8.06 8.06 0 0 1 -3-3.6l-4.51-10.11h-32.41l-4.6 10.11a8 8 0 0 1 -3.06 3.6 7.94 7.94 0 0 1 -4.25 1.2 9.3 9.3 0 0 1 -6.15-2.3 7 7 0 0 1 -2.75-5.6 8.59 8.59 0 0 1 .9-3.7l26.42-54.23a9.27 9.27 0 0 1 3.85-4.15 11.58 11.58 0 0 1 11.26 0 9.22 9.22 0 0 1 3.9 4.15l26.41 54.23a8.61 8.61 0 0 1 .9 3.7zm-46.63-20.81h20l-10-22.31z"/><path d="m354.15 362.48a6.65 6.65 0 0 1 -2.65 5.35 9.84 9.84 0 0 1 -10.66 1.05 9.89 9.89 0 0 1 -3.6-3.3l-13-19a10.18 10.18 0 0 0 -3-2.95 6.87 6.87 0 0 0 -3.65-.95h-6.5v17.91a9.09 9.09 0 0 1 -2.4 6.65 8.81 8.81 0 0 1 -6.61 2.45 8.46 8.46 0 0 1 -9.1-9.1v-53.54a7.69 7.69 0 0 1 8.5-8.51h25.12q12.8 0 19.26 5.56t6.45 16.06a21.16 21.16 0 0 1 -4.4 13.55 21.59 21.59 0 0 1 -12.41 7.46 13.45 13.45 0 0 1 5.75 2.2 20.47 20.47 0 0 1 4.86 5.1l6.2 8.91a9.3 9.3 0 0 1 1.84 5.1zm-21.66-35.48c1.76-1.27 2.65-3.33 2.65-6.2s-.89-5.06-2.65-6.36-4.69-1.95-8.76-1.95h-12.8v16.41h12.8q6.11-.04 8.76-1.9z"/></g></svg>