<svg id="Artwork" height="512" viewBox="0 0 512 512" width="512" xmlns="http://www.w3.org/2000/svg"><path d="m453.06 109.29a10 10 0 0 0 -2.93-7.07l-99.42-99.42a10 10 0 0 0 -7.07-2.93h-274.42a10 10 0 0 0 -10 10v492a10 10 0 0 0 10 10h373.84a10 10 0 0 0 10-10z" fill="#f1f1f1"/><path d="m452.73 106.8a9.88 9.88 0 0 0 -2.6-4.58l-99.42-99.42a10 10 0 0 0 -7.07-2.93v94.92a12 12 0 0 0 12 12z" fill="#ccc"/><path d="m452.73 106.8h-97.08a12 12 0 0 1 -12-12v10.15c0 6.63 4.12 15 12.38 15h97v-10.66a6.46 6.46 0 0 0 -.3-2.49z" fill="#e8e8e8"/><path d="m59.21 215.34-27.01 27.09h27.01z" fill="#088faf"/><path d="m452.73 215.34 27.02 27.09h-27.02z" fill="#088faf"/><path d="m472.11 412.17h-432.22a10 10 0 0 1 -10-10v-153.34a10 10 0 0 1 10-10h432.22a10 10 0 0 1 10 10v153.33a10 10 0 0 1 -10 10.01z" fill="#29abe1"/><path d="m59.21 412.17h393.85v12.97h-393.85z" fill="#e0e0e0"/><g fill="#fff"><path d="m176.71 364.5a8.65 8.65 0 0 1 -2.55-6.55v-47.12h-14.11c-2.93 0-5.12-.62-6.55-1.85s-2.15-3.12-2.15-5.66.71-4.4 2.15-5.6 3.62-1.8 6.55-1.8h46.83q4.4 0 6.55 1.8t2.15 5.6c0 2.54-.72 4.42-2.15 5.66s-3.62 1.85-6.55 1.85h-14.11v47.17a8.65 8.65 0 0 1 -2.55 6.55 10.5 10.5 0 0 1 -13.51 0z"/><path d="m223.93 364.6a9 9 0 0 1 -2.45-6.65v-53.53a8.88 8.88 0 0 1 2.45-6.55 9 9 0 0 1 6.66-2.45 9.33 9.33 0 0 1 6.8 2.45 8.76 8.76 0 0 1 2.5 6.55v53.58a8.87 8.87 0 0 1 -2.5 6.65 9.29 9.29 0 0 1 -6.8 2.46 9 9 0 0 1 -6.66-2.51z"/><path d="m255.2 364.55a8.89 8.89 0 0 1 -2.5-6.6v-53.53a7.68 7.68 0 0 1 8.5-8.5h33.62q4.5 0 6.6 1.75t2.1 5.55c0 2.47-.71 4.27-2.15 5.41s-3.62 1.7-6.55 1.7h-24v13h22c2.93 0 5.12.6 6.55 1.8s2.15 3 2.15 5.51-.71 4.27-2.15 5.4-3.62 1.7-6.55 1.7h-22v20.26a9 9 0 0 1 -2.45 6.65 10 10 0 0 1 -13.16-.05z"/><path d="m313 364.55a8.89 8.89 0 0 1 -2.5-6.6v-53.53a7.68 7.68 0 0 1 8.5-8.5h33.62q4.5 0 6.6 1.75t2.1 5.55c0 2.47-.71 4.27-2.15 5.41s-3.62 1.7-6.55 1.7h-24v13h22c2.93 0 5.12.6 6.55 1.8s2.15 3 2.15 5.51-.72 4.27-2.15 5.4-3.62 1.7-6.55 1.7h-22v20.26a9 9 0 0 1 -2.46 6.65 8.82 8.82 0 0 1 -6.55 2.46 8.91 8.91 0 0 1 -6.61-2.56z"/></g></svg>