<svg id="Artwork" height="512" viewBox="0 0 512 512" width="512" xmlns="http://www.w3.org/2000/svg"><path d="m59.21 215.34-27.01 27.09h27.01z" fill="#088faf"/><path d="m452.73 215.34 27.02 27.09h-27.02z" fill="#088faf"/><path d="m453.06 109.29a10 10 0 0 0 -2.93-7.07l-99.42-99.42a10 10 0 0 0 -7.07-2.93h-274.42a10 10 0 0 0 -10 10v492a10 10 0 0 0 10 10h373.84a10 10 0 0 0 10-10z" fill="#f1f1f1"/><path d="m452.73 106.8a9.88 9.88 0 0 0 -2.6-4.58l-99.42-99.42a10 10 0 0 0 -7.07-2.93v94.92a12 12 0 0 0 12 12z" fill="#ccc"/><path d="m452.73 106.8h-97.08a12 12 0 0 1 -12-12v10.15c0 6.63 4.12 15 12.38 15h97v-10.66a6.46 6.46 0 0 0 -.3-2.49z" fill="#e8e8e8"/><path d="m472.11 412.17h-432.22a10 10 0 0 1 -10-10v-153.34a10 10 0 0 1 10-10h432.22a10 10 0 0 1 10 10v153.33a10 10 0 0 1 -10 10.01z" fill="#29abe1"/><path d="m59.21 412.17h393.85v12.97h-393.85z" fill="#e0e0e0"/><g fill="#fff"><path d="m184.21 364.5a8.65 8.65 0 0 1 -2.55-6.55v-47.12h-14.1c-2.94 0-5.12-.62-6.56-1.85s-2.15-3.12-2.15-5.66.72-4.4 2.15-5.6 3.62-1.8 6.56-1.8h46.82c2.93 0 5.12.6 6.55 1.8s2.15 3.07 2.15 5.6-.71 4.42-2.15 5.66-3.62 1.85-6.55 1.85h-14.11v47.17a8.65 8.65 0 0 1 -2.55 6.55 10.5 10.5 0 0 1 -13.51 0z"/><path d="m288.92 358.65a8 8 0 0 1 -2.65 6 8.37 8.37 0 0 1 -6 2.56 7.84 7.84 0 0 1 -6.1-3l-17.17-20.67-17.51 20.61a7.75 7.75 0 0 1 -6 3 8.31 8.31 0 0 1 -6-2.61 8.06 8.06 0 0 1 -.55-11.4l19.21-22.21-18.7-21.71a8.31 8.31 0 0 1 -2.21-5.41 8 8 0 0 1 2.65-5.95 8.51 8.51 0 0 1 6.06-2.55 7.86 7.86 0 0 1 6.1 3l16.91 20 16.81-20a7.3 7.3 0 0 1 5.9-3 8.51 8.51 0 0 1 6.06 2.55 8 8 0 0 1 2.65 5.95 8.26 8.26 0 0 1 -2.1 5.41l-18.71 21.71 19.1 22.21a8.15 8.15 0 0 1 2.25 5.51z"/><path d="m316.08 364.5a8.65 8.65 0 0 1 -2.55-6.55v-47.12h-14.11c-2.93 0-5.12-.62-6.55-1.85s-2.15-3.12-2.15-5.66.71-4.4 2.15-5.6 3.62-1.8 6.55-1.8h46.83q4.39 0 6.55 1.8t2.15 5.6c0 2.54-.72 4.42-2.15 5.66s-3.62 1.85-6.55 1.85h-14.11v47.17a8.65 8.65 0 0 1 -2.55 6.55 10.5 10.5 0 0 1 -13.51 0z"/></g></svg>