<svg width="39" height="39" viewBox="0 0 39 39" fill="none" xmlns="http://www.w3.org/2000/svg">
<g id="file 1">
<g id="Group" opacity="0.3">
<path id="Vector" d="M7.86094 0.114258C6.48223 0.418945 5.19492 1.45488 4.5627 2.78027C4.08282 3.78574 4.10567 2.78027 4.12852 19.7285L4.15137 35.1533L4.31895 35.6484C4.82168 37.1033 5.91856 38.2154 7.40391 38.7562L7.95996 38.9619H19.5H31.04L31.5961 38.7562C33.0814 38.2154 34.1783 37.1033 34.6811 35.6484L34.8486 35.1533L34.8715 21.9223L34.8867 8.69121L34.643 8.40176C33.1195 6.64219 27.4295 0.304688 27.2543 0.167576L27.0182 0L17.6795 0.00761795C10.1004 0.00761795 8.24942 0.030468 7.86094 0.114258ZM25.9746 5.30918C25.9746 8.69883 25.9898 9.04922 26.1117 9.29297C26.1803 9.43769 26.325 9.59766 26.4316 9.65098C26.5764 9.72715 27.4447 9.75 29.9584 9.75H33.2871V22.1051C33.2871 35.5189 33.3023 34.9629 32.8682 35.7398C32.4797 36.433 31.8018 36.9967 31.0477 37.2328C30.6897 37.3547 29.6842 37.3623 19.5 37.3623C9.2168 37.3623 8.31035 37.3547 7.94473 37.2328C7.06114 36.951 6.27657 36.2121 5.91856 35.3285L5.75098 34.9248L5.72813 19.7666C5.71289 8.66836 5.72813 4.48652 5.78907 4.15137C5.91094 3.53437 6.23848 2.925 6.68028 2.50605C7.12969 2.07949 7.36582 1.92715 7.87617 1.75195C8.2418 1.61484 8.75215 1.60723 17.1234 1.60723L25.9746 1.59961V5.30918ZM30.0117 5.59863L32.3121 8.18848L30.0422 8.21133C28.7854 8.21894 27.7266 8.21133 27.6732 8.18848C27.5514 8.14277 27.5285 2.94024 27.6428 2.98594C27.6885 2.99355 28.7549 4.17422 30.0117 5.59863Z" fill="black"/>
<path id="Vector_2" d="M9.46054 8.24941C9.0873 8.4627 8.93495 8.98066 9.133 9.36152C9.33867 9.74238 9.39199 9.75 13.3682 9.75C16.5217 9.75 17.1006 9.73477 17.291 9.63574C17.5652 9.49863 17.6871 9.27773 17.6871 8.9502C17.6871 8.62266 17.5652 8.40176 17.291 8.26465C17.1006 8.16562 16.5217 8.15039 13.3529 8.15039C10.5193 8.15801 9.59765 8.18086 9.46054 8.24941Z" fill="black"/>
<path id="Vector_3" d="M9.47577 13.6043C8.98827 13.8404 8.89687 14.465 9.28534 14.8611L9.50624 15.082H19.2258C26.325 15.082 28.991 15.0592 29.1281 14.9982C29.3185 14.9068 29.5547 14.5184 29.5547 14.2822C29.5547 14.0385 29.3109 13.6957 29.0596 13.5891C28.8387 13.4977 27.3305 13.4824 19.2562 13.4824C10.8316 13.4824 9.68144 13.4977 9.47577 13.6043Z" fill="black"/>
<path id="Vector_4" d="M9.33868 17.6795C9.12539 17.8471 8.9959 18.2127 9.04922 18.4869C9.09493 18.7307 9.40723 19.0125 9.68145 19.0734C9.81856 19.0963 14.168 19.1191 19.3629 19.1191C29.6918 19.1191 29.1891 19.142 29.4328 18.6697C29.6385 18.2813 29.5623 17.9309 29.2195 17.6566C29.0672 17.5348 28.435 17.5195 19.302 17.5195C9.55957 17.5195 9.54434 17.5195 9.33868 17.6795Z" fill="black"/>
<path id="Vector_5" d="M9.62812 21.4576C9.53671 21.4728 9.36913 21.5871 9.25488 21.709C8.85117 22.1355 9.0416 22.7906 9.63574 22.9886C9.86425 23.0648 11.9285 23.0801 19.4543 23.0648C28.4121 23.042 28.9986 23.0344 29.1814 22.9049C29.7451 22.524 29.6232 21.6633 28.9682 21.4881C28.6939 21.4119 10.0166 21.3814 9.62812 21.4576Z" fill="black"/>
<path id="Vector_6" d="M9.47577 25.4871C8.98827 25.7232 8.89687 26.3479 9.28534 26.7439L9.50624 26.9648H19.2258C26.325 26.9648 28.991 26.942 29.1281 26.8811C29.3185 26.7896 29.5547 26.4012 29.5547 26.165C29.5547 25.9213 29.3109 25.5785 29.0596 25.4719C28.8387 25.3805 27.3305 25.3652 19.2562 25.3652C10.8316 25.3652 9.68144 25.3805 9.47577 25.4871Z" fill="black"/>
<path id="Vector_7" d="M9.39199 29.4023C8.90449 29.6994 8.94258 30.4763 9.46054 30.7429C9.76523 30.9029 16.9711 30.9029 17.2758 30.7429C17.6566 30.5449 17.8014 30.0498 17.5881 29.6537C17.3748 29.25 17.3672 29.25 13.3529 29.25C9.7957 29.25 9.62812 29.2576 9.39199 29.4023Z" fill="black"/>
</g>
</g>
</svg>
