<svg id="Artwork" height="512" viewBox="0 0 512 512" width="512" xmlns="http://www.w3.org/2000/svg"><path d="m59.21 215.34-27.01 27.09h27.01z" fill="#c6406d"/><path d="m452.73 215.34 27.02 27.09h-27.02z" fill="#c6406d"/><path d="m453.06 109.29a10 10 0 0 0 -2.93-7.07l-99.42-99.42a10 10 0 0 0 -7.07-2.93h-274.42a10 10 0 0 0 -10 10v492a10 10 0 0 0 10 10h373.84a10 10 0 0 0 10-10z" fill="#f1f1f1"/><path d="m452.73 106.8a9.88 9.88 0 0 0 -2.6-4.58l-99.42-99.42a10 10 0 0 0 -7.07-2.93v94.92a12 12 0 0 0 12 12z" fill="#ccc"/><path d="m452.73 106.8h-97.08a12 12 0 0 1 -12-12v10.15c0 6.63 4.12 15 12.38 15h97v-10.66a6.46 6.46 0 0 0 -.3-2.49z" fill="#e8e8e8"/><path d="m472.11 412.17h-432.22a10 10 0 0 1 -10-10v-153.34a10 10 0 0 1 10-10h432.22a10 10 0 0 1 10 10v153.33a10 10 0 0 1 -10 10.01z" fill="#ff4d79"/><path d="m59.21 412.17h393.85v12.97h-393.85z" fill="#e0e0e0"/><g fill="#fff"><path d="m206.32 302.09a8.44 8.44 0 0 1 4.41-1.2 10.15 10.15 0 0 1 6.5 2.3 7.11 7.11 0 0 1 2.9 5.8 7.81 7.81 0 0 1 -.9 3.5l-26.41 54.51a9.22 9.22 0 0 1 -3.9 4.15 11.56 11.56 0 0 1 -11.21 0 9.11 9.11 0 0 1 -3.9-4.15l-26.41-54.51a7.61 7.61 0 0 1 -.81-3.5 7.06 7.06 0 0 1 3-5.75 10.57 10.57 0 0 1 6.7-2.35 8.66 8.66 0 0 1 4.45 1.2 7.75 7.75 0 0 1 3.15 3.6l19.71 42.62 19.61-42.62a7.94 7.94 0 0 1 3.11-3.6z"/><path d="m239.59 368.37a30.33 30.33 0 0 1 -12.25-12.61 44.74 44.74 0 0 1 0-38.32 30 30 0 0 1 12.25-12.55 42.19 42.19 0 0 1 37.52 0 29.8 29.8 0 0 1 12.21 12.55 41 41 0 0 1 4.25 19.16 40.57 40.57 0 0 1 -4.3 19.16 30.41 30.41 0 0 1 -12.27 12.61 41.56 41.56 0 0 1 -37.42 0zm31.27-15.31q4.5-5.65 4.5-16.46t-4.55-16.4q-4.56-5.61-12.46-5.61t-12.5 5.56q-4.51 5.55-4.51 16.45t4.51 16.51q4.5 5.61 12.5 5.61t12.51-5.66z"/><path d="m361.3 341.66a17.88 17.88 0 0 1 3.3 10.95 17.21 17.21 0 0 1 -3.05 10.16 19.67 19.67 0 0 1 -8.7 6.75 33.75 33.75 0 0 1 -13.26 2.4h-26.59a7.69 7.69 0 0 1 -8.51-8.5v-53.53a7.69 7.69 0 0 1 8.51-8.5h25.61q11.12 0 17.66 4.95a15.86 15.86 0 0 1 6.55 13.36 16.1 16.1 0 0 1 -11 15.6 18 18 0 0 1 9.48 6.36zm-38.92-12.56h13.11q5.2 0 7.6-1.6a5.7 5.7 0 0 0 2.41-5.1 6.19 6.19 0 0 0 -2.41-5.41q-2.4-1.69-7.6-1.7h-13.11zm22.77 27.16c1.56-1.16 2.35-3.08 2.35-5.75s-.79-4.58-2.35-5.75-4.15-1.76-7.86-1.76h-14.91v15h14.91q5.5 0 7.86-1.74z"/></g></svg>