<svg id="Artwork" height="512" viewBox="0 0 512 512" width="512" xmlns="http://www.w3.org/2000/svg"><path d="m59.21 215.34-27.01 27.09h27.01z" fill="#008275"/><path d="m452.73 215.34 27.02 27.09h-27.02z" fill="#008275"/><path d="m453.06 109.29a10 10 0 0 0 -2.93-7.07l-99.42-99.42a10 10 0 0 0 -7.07-2.93h-274.42a10 10 0 0 0 -10 10v492a10 10 0 0 0 10 10h373.84a10 10 0 0 0 10-10z" fill="#f1f1f1"/><path d="m452.73 106.8a9.88 9.88 0 0 0 -2.6-4.58l-99.42-99.42a10 10 0 0 0 -7.07-2.93v94.92a12 12 0 0 0 12 12z" fill="#ccc"/><path d="m452.73 106.8h-97.08a12 12 0 0 1 -12-12v10.15c0 6.63 4.12 15 12.38 15h97v-10.66a6.46 6.46 0 0 0 -.3-2.49z" fill="#e8e8e8"/><path d="m472.11 412.17h-432.22a10 10 0 0 1 -10-10v-153.34a10 10 0 0 1 10-10h432.22a10 10 0 0 1 10 10v153.33a10 10 0 0 1 -10 10.01z" fill="#00a99d"/><path d="m59.21 412.17h393.85v12.97h-393.85z" fill="#e0e0e0"/><g fill="#fff"><path d="m228.79 296.72a8.74 8.74 0 0 1 5-1.5 8.55 8.55 0 0 1 5.75 2.1 7.13 7.13 0 0 1 2.45 5.7 12.94 12.94 0 0 1 -.8 4l-20.19 54.43a8.09 8.09 0 0 1 -3.65 4.36 11.43 11.43 0 0 1 -5.85 1.55 11.18 11.18 0 0 1 -5.81-1.55 8.17 8.17 0 0 1 -3.6-4.36l-13-37.12-13.61 37.12a8.68 8.68 0 0 1 -3.7 4.36 11 11 0 0 1 -5.71 1.55 11.14 11.14 0 0 1 -5.8-1.55 8.13 8.13 0 0 1 -3.6-4.36l-20.18-54.45a11.41 11.41 0 0 1 -.7-3.8 7.13 7.13 0 0 1 2.65-5.85 9.51 9.51 0 0 1 6.15-2.15 9.62 9.62 0 0 1 5.16 1.45 8 8 0 0 1 3.35 4.35l13.7 39.42 14.51-39.42a8.38 8.38 0 0 1 3.25-4.3 8.75 8.75 0 0 1 5-1.5 8.33 8.33 0 0 1 8.1 5.9l13.61 40.22 14.26-40.32a8.39 8.39 0 0 1 3.26-4.28z"/><path d="m312.58 358.85a7.16 7.16 0 0 1 -2.65 5.6 9 9 0 0 1 -6.06 2.31 7.65 7.65 0 0 1 -4.2-1.21 8.06 8.06 0 0 1 -3-3.6l-4.5-10.1h-32.42l-4.6 10.1a8 8 0 0 1 -3.05 3.6 7.89 7.89 0 0 1 -4.25 1.21 9.35 9.35 0 0 1 -6.16-2.31 7.05 7.05 0 0 1 -2.75-5.6 8.62 8.62 0 0 1 .9-3.7l26.42-54.23a9.27 9.27 0 0 1 3.85-4.15 11.64 11.64 0 0 1 11.25 0 9.16 9.16 0 0 1 3.9 4.15l26.42 54.23a8.62 8.62 0 0 1 .9 3.7zm-46.58-20.85h20l-10-22.31z"/><path d="m366.81 296.62a8.38 8.38 0 0 1 4.4-1.2 10.21 10.21 0 0 1 6.5 2.3 7.1 7.1 0 0 1 2.9 5.8 7.78 7.78 0 0 1 -.9 3.5l-26.41 54.53a9.22 9.22 0 0 1 -3.9 4.15 11.49 11.49 0 0 1 -11.21 0 9.22 9.22 0 0 1 -3.9-4.15l-26.41-54.55a7.61 7.61 0 0 1 -.81-3.5 7.1 7.1 0 0 1 3-5.75 10.57 10.57 0 0 1 6.7-2.35 8.66 8.66 0 0 1 4.45 1.2 7.75 7.75 0 0 1 3.15 3.6l19.71 42.62 19.61-42.62a7.9 7.9 0 0 1 3.12-3.58z"/></g></svg>