<svg id="Artwork" height="512" viewBox="0 0 512 512" width="512" xmlns="http://www.w3.org/2000/svg"><path d="m453.06 109.29a10 10 0 0 0 -2.93-7.07l-99.42-99.42a10 10 0 0 0 -7.07-2.93h-274.42a10 10 0 0 0 -10 10v492a10 10 0 0 0 10 10h373.84a10 10 0 0 0 10-10z" fill="#f1f1f1"/><path d="m452.73 106.8a9.88 9.88 0 0 0 -2.6-4.58l-99.42-99.42a10 10 0 0 0 -7.07-2.93v94.92a12 12 0 0 0 12 12z" fill="#ccc"/><path d="m452.73 106.8h-97.08a12 12 0 0 1 -12-12v10.15c0 6.63 4.12 15 12.38 15h97v-10.66a6.46 6.46 0 0 0 -.3-2.49z" fill="#e8e8e8"/><path d="m59.21 215.34-27.01 27.09h27.01z" fill="#9a439e"/><path d="m452.73 215.34 27.02 27.09h-27.02z" fill="#9a439e"/><path d="m472.11 412.17h-432.22a10 10 0 0 1 -10-10v-153.34a10 10 0 0 1 10-10h432.22a10 10 0 0 1 10 10v153.33a10 10 0 0 1 -10 10.01z" fill="#be4fc1"/><path d="m59.21 412.17h393.85v12.97h-393.85z" fill="#e0e0e0"/><g fill="#fff"><path d="m198.32 296.72a8.74 8.74 0 0 1 5-1.5 8.58 8.58 0 0 1 5.76 2.1 7.13 7.13 0 0 1 2.45 5.7 13.25 13.25 0 0 1 -.8 4l-20.11 54.43a8.13 8.13 0 0 1 -3.65 4.36 11.44 11.44 0 0 1 -5.86 1.55 11.14 11.14 0 0 1 -5.8-1.55 8.08 8.08 0 0 1 -3.6-4.36l-13-37.12-13.71 37.12a8.58 8.58 0 0 1 -3.7 4.36 10.94 10.94 0 0 1 -5.7 1.55 11.12 11.12 0 0 1 -5.8-1.55 8.14 8.14 0 0 1 -3.61-4.36l-20.19-54.45a11.67 11.67 0 0 1 -.7-3.8 7.13 7.13 0 0 1 2.66-5.85 9.47 9.47 0 0 1 6.15-2.15 9.59 9.59 0 0 1 5.15 1.45 7.93 7.93 0 0 1 3.35 4.35l13.71 39.42 14.53-39.42a8.37 8.37 0 0 1 3.25-4.3 8.74 8.74 0 0 1 5-1.5 8.36 8.36 0 0 1 8.11 5.9l13.6 40.22 14.26-40.32a8.42 8.42 0 0 1 3.25-4.28z"/><path d="m223.08 364.25a8.49 8.49 0 0 1 -2.2-6.3v-53.53a7.68 7.68 0 0 1 8.51-8.5h34.61q4.31 0 6.51 1.8a6.36 6.36 0 0 1 2.2 5.2q0 7.2-8.71 7.21h-25.21v13.4h23.21q8.72 0 8.71 7.11a6.35 6.35 0 0 1 -2.2 5.2q-2.2 1.8-6.51 1.8h-23.21v14.61h25.21q8.72 0 8.71 7.2a6.35 6.35 0 0 1 -2.2 5.2c-1.47 1.2-3.64 1.81-6.51 1.81h-34.61a8.54 8.54 0 0 1 -6.31-2.21z"/><path d="m337.44 336.19a17.89 17.89 0 0 1 3.3 11 17.27 17.27 0 0 1 -3.05 10.15 19.72 19.72 0 0 1 -8.7 6.75 33.57 33.57 0 0 1 -13.26 2.41h-26.61a7.69 7.69 0 0 1 -8.51-8.51v-53.57a7.68 7.68 0 0 1 8.51-8.5h25.61q11.1 0 17.66 4.95a15.87 15.87 0 0 1 6.55 13.36 16.27 16.27 0 0 1 -2.9 9.55 16.54 16.54 0 0 1 -8.1 6.06 17.89 17.89 0 0 1 9.5 6.35zm-38.92-12.56h13.11c3.46 0 6-.53 7.6-1.6a5.67 5.67 0 0 0 2.4-5.1q0-3.71-2.4-5.4c-1.6-1.14-4.14-1.7-7.6-1.7h-13.11zm22.76 27.17q2.36-1.76 2.35-5.76t-2.35-5.75c-1.57-1.16-4.18-1.75-7.85-1.75h-14.91v15h14.91c3.67.01 6.28-.54 7.85-1.74z"/><path d="m352.6 364.6a9 9 0 0 1 -2.45-6.65v-53.53a7.68 7.68 0 0 1 8.5-8.5h25.61q11.72 0 18.21 5.95t6.53 16.56q0 10.5-6.56 16.51t-18.16 6h-15.7v17a8.87 8.87 0 0 1 -2.51 6.65 9.26 9.26 0 0 1 -6.8 2.46 9 9 0 0 1 -6.67-2.45zm29.16-37.46c3.4 0 5.92-.71 7.56-2.11s2.45-3.56 2.45-6.5q0-8.7-10-8.7h-13.2v17.31z"/></g></svg>