<svg id="Artwork" height="512" viewBox="0 0 512 512" width="512" xmlns="http://www.w3.org/2000/svg"><path d="m453.06 109.29a10 10 0 0 0 -2.93-7.07l-99.42-99.42a10 10 0 0 0 -7.07-2.93h-274.42a10 10 0 0 0 -10 10v492a10 10 0 0 0 10 10h373.84a10 10 0 0 0 10-10z" fill="#f1f1f1"/><path d="m452.73 106.8a9.88 9.88 0 0 0 -2.6-4.58l-99.42-99.42a10 10 0 0 0 -7.07-2.93v94.92a12 12 0 0 0 12 12z" fill="#ccc"/><path d="m452.73 106.8h-97.08a12 12 0 0 1 -12-12v10.15c0 6.63 4.12 15 12.38 15h97v-10.66a6.46 6.46 0 0 0 -.3-2.49z" fill="#e8e8e8"/><path d="m59.21 215.34-27.01 27.09h27.01z" fill="#c6406d"/><path d="m452.73 215.34 27.02 27.09h-27.02z" fill="#c6406d"/><path d="m472.11 412.17h-432.22a10 10 0 0 1 -10-10v-153.34a10 10 0 0 1 10-10h432.22a10 10 0 0 1 10 10v153.33a10 10 0 0 1 -10 10.01z" fill="#ff4d79"/><path d="m59.21 412.17h393.85v12.97h-393.85z" fill="#e0e0e0"/><g fill="#fff"><path d="m184.51 297.87a8.85 8.85 0 0 1 2.46 6.55v53.58a9 9 0 0 1 -2.46 6.6 8.73 8.73 0 0 1 -6.55 2.51 8.83 8.83 0 0 1 -6.55-2.46 9 9 0 0 1 -2.41-6.65v-20h-28.86v20a9 9 0 0 1 -2.45 6.6 8.75 8.75 0 0 1 -6.55 2.51 8.86 8.86 0 0 1 -6.56-2.46 9 9 0 0 1 -2.45-6.65v-53.58a9 9 0 1 1 18 0v18.91h28.87v-18.91a9.27 9.27 0 0 1 15.55-6.55z"/><path d="m218.23 364.5a8.65 8.65 0 0 1 -2.55-6.55v-47.12h-14.11c-2.93 0-5.12-.62-6.55-1.85s-2.15-3.12-2.15-5.66.71-4.4 2.15-5.6 3.62-1.8 6.55-1.8h46.83q4.4 0 6.55 1.8t2.15 5.6c0 2.54-.72 4.42-2.15 5.66s-3.62 1.85-6.55 1.85h-14.11v47.17a8.65 8.65 0 0 1 -2.55 6.55 10.5 10.5 0 0 1 -13.51 0z"/><path d="m331.84 297.92a9 9 0 0 1 2.4 6.5v54.43a8.11 8.11 0 0 1 -2.2 6 8.66 8.66 0 0 1 -11.56 0 8 8 0 0 1 -2.25-6v-29.41l-11.41 21a12.86 12.86 0 0 1 -3.6 4.55 8.17 8.17 0 0 1 -9 0 12.86 12.86 0 0 1 -3.6-4.55l-11.31-20.44v28.81a8 8 0 0 1 -2.25 5.95 8.66 8.66 0 0 1 -11.61.05 8 8 0 0 1 -2.25-6v-54.39a8.92 8.92 0 0 1 2.45-6.5 8.84 8.84 0 0 1 11.16-.95 12.16 12.16 0 0 1 3.7 4.45l18.41 34.58 18.31-34.62q3.11-6 8.4-6a8.21 8.21 0 0 1 6.21 2.54z"/><path d="m349.45 364.25c-1.47-1.46-2.21-3.6-2.21-6.4v-53.43a8.85 8.85 0 0 1 2.46-6.55 9 9 0 0 1 6.65-2.45 9.29 9.29 0 0 1 6.8 2.45 8.76 8.76 0 0 1 2.5 6.55v47.13h23q8.7 0 8.7 7.5c0 2.54-.72 4.4-2.15 5.6s-3.62 1.81-6.55 1.81h-32.9a8.5 8.5 0 0 1 -6.3-2.21z"/></g></svg>