<svg id="Artwork" height="512" viewBox="0 0 512 512" width="512" xmlns="http://www.w3.org/2000/svg"><path d="m453.06 109.29a10 10 0 0 0 -2.93-7.07l-99.42-99.42a10 10 0 0 0 -7.07-2.93h-274.42a10 10 0 0 0 -10 10v492a10 10 0 0 0 10 10h373.84a10 10 0 0 0 10-10z" fill="#f1f1f1"/><path d="m452.73 106.8a9.88 9.88 0 0 0 -2.6-4.58l-99.42-99.42a10 10 0 0 0 -7.07-2.93v94.92a12 12 0 0 0 12 12z" fill="#ccc"/><path d="m452.73 106.8h-97.08a12 12 0 0 1 -12-12v10.15c0 6.63 4.12 15 12.38 15h97v-10.66a6.46 6.46 0 0 0 -.3-2.49z" fill="#e8e8e8"/><path d="m59.21 215.34-27.01 27.09h27.01z" fill="#008275"/><path d="m452.73 215.34 27.02 27.09h-27.02z" fill="#008275"/><path d="m472.11 412.17h-432.22a10 10 0 0 1 -10-10v-153.34a10 10 0 0 1 10-10h432.22a10 10 0 0 1 10 10v153.33a10 10 0 0 1 -10 10.01z" fill="#00a99d"/><path d="m59.21 412.17h393.85v12.97h-393.85z" fill="#e0e0e0"/><g fill="#fff"><path d="m227.49 358.65a8 8 0 0 1 -2.66 6 8.34 8.34 0 0 1 -6 2.56 7.84 7.84 0 0 1 -6.1-3l-17.21-20.61-17.51 20.61a7.75 7.75 0 0 1 -6 3 8.31 8.31 0 0 1 -6-2.61 8.06 8.06 0 0 1 -.55-11.4l19.21-22.21-18.71-21.71a8.35 8.35 0 0 1 -2.2-5.41 8 8 0 0 1 2.65-5.95 8.51 8.51 0 0 1 6.06-2.55 7.86 7.86 0 0 1 6.1 3l16.91 20 16.81-20a7.3 7.3 0 0 1 5.9-3 8.47 8.47 0 0 1 6.05 2.55 8 8 0 0 1 2.65 5.95 8.21 8.21 0 0 1 -2.1 5.41l-18.7 21.71 19.1 22.21a8.15 8.15 0 0 1 2.3 5.45z"/><path d="m238.39 364.25c-1.47-1.46-2.2-3.6-2.2-6.4v-53.43a8.88 8.88 0 0 1 2.45-6.55 9 9 0 0 1 6.65-2.45 9.33 9.33 0 0 1 6.81 2.45 8.79 8.79 0 0 1 2.5 6.55v47.13h23q8.7 0 8.71 7.5c0 2.54-.72 4.4-2.16 5.6s-3.61 1.81-6.55 1.81h-32.91a8.53 8.53 0 0 1 -6.3-2.21z"/><path d="m304.27 365.6a33.81 33.81 0 0 1 -11.27-4.85 8.45 8.45 0 0 1 -2.45-2.7 7.57 7.57 0 0 1 -.75-3.6 8 8 0 0 1 1.8-5.2 5.3 5.3 0 0 1 4.2-2.2 7.75 7.75 0 0 1 2.5.4 14.78 14.78 0 0 1 3 1.5 33 33 0 0 0 8.16 3.3 38.1 38.1 0 0 0 9.15 1c3.94 0 6.92-.58 9-1.75a5.62 5.62 0 0 0 3.05-5.16q0-2.29-2.85-3.95t-10.86-3.25a63.43 63.43 0 0 1 -15.51-5q-5.6-2.91-7.85-6.85a20.39 20.39 0 0 1 1.55-21.17 25.39 25.39 0 0 1 10.43-8.12 36.48 36.48 0 0 1 15-3 48.11 48.11 0 0 1 13 1.6 32.82 32.82 0 0 1 10.4 5 8.15 8.15 0 0 1 2.56 2.75 7.68 7.68 0 0 1 .75 3.56 8.15 8.15 0 0 1 -1.75 5.2 5.19 5.19 0 0 1 -4.16 2.2 8 8 0 0 1 -2.4-.35 16.14 16.14 0 0 1 -3.1-1.55c-.33-.2-1.29-.72-2.85-1.55a22.84 22.84 0 0 0 -5.5-2 29.61 29.61 0 0 0 -6.86-.75 15.22 15.22 0 0 0 -8.2 1.95 5.87 5.87 0 0 0 -3.1 5.15 4.37 4.37 0 0 0 1.1 3.1 11 11 0 0 0 4.1 2.35 59.58 59.58 0 0 0 8.9 2.35 59.5 59.5 0 0 1 15.11 5.06 19.3 19.3 0 0 1 7.81 6.85 17.82 17.82 0 0 1 2.3 9.2 19.19 19.19 0 0 1 -3.71 11.66 23.6 23.6 0 0 1 -10.35 7.8 40.14 40.14 0 0 1 -15.46 2.76 59.77 59.77 0 0 1 -14.89-1.74z"/></g></svg>