<svg id="Artwork" height="512" viewBox="0 0 512 512" width="512" xmlns="http://www.w3.org/2000/svg"><path d="m453.06 109.29a10 10 0 0 0 -2.93-7.07l-99.42-99.42a10 10 0 0 0 -7.07-2.93h-274.42a10 10 0 0 0 -10 10v492a10 10 0 0 0 10 10h373.84a10 10 0 0 0 10-10z" fill="#f1f1f1"/><path d="m452.73 106.8a9.88 9.88 0 0 0 -2.6-4.58l-99.42-99.42a10 10 0 0 0 -7.07-2.93v94.92a12 12 0 0 0 12 12z" fill="#ccc"/><path d="m452.73 106.8h-97.08a12 12 0 0 1 -12-12v10.15c0 6.63 4.12 15 12.38 15h97v-10.66a6.46 6.46 0 0 0 -.3-2.49z" fill="#e8e8e8"/><path d="m59.21 215.34-27.01 27.09h27.01z" fill="#dd9536"/><path d="m452.73 215.34 27.02 27.09h-27.02z" fill="#dd9536"/><path d="m472.11 412.17h-432.22a10 10 0 0 1 -10-10v-153.34a10 10 0 0 1 10-10h432.22a10 10 0 0 1 10 10v153.33a10 10 0 0 1 -10 10.01z" fill="#faaf3a"/><path d="m59.21 412.17h393.85v12.97h-393.85z" fill="#e0e0e0"/><g fill="#fff"><path d="m234.54 353.75q2.15 1.69 2.15 5.4t-2.1 5.55q-2.1 1.76-6.6 1.76h-39.99a7.82 7.82 0 0 1 -5.85-2.21 7.56 7.56 0 0 1 -2.15-5.5 11.06 11.06 0 0 1 2.3-6.5l30.82-41.92h-24.25c-3 0-5.22-.59-6.66-1.75a6.53 6.53 0 0 1 -2.15-5.36q0-3.8 2.15-5.55c1.44-1.17 3.65-1.75 6.66-1.75h38.42a7.79 7.79 0 0 1 5.75 2.15 7.41 7.41 0 0 1 2.15 5.45 11.24 11.24 0 0 1 -2.3 6.61l-30.82 41.92h25.93q4.39 0 6.54 1.7z"/><path d="m247.14 364.6a9 9 0 0 1 -2.45-6.65v-53.53a8.88 8.88 0 0 1 2.45-6.55 9 9 0 0 1 6.66-2.45 9.31 9.31 0 0 1 6.8 2.45 8.76 8.76 0 0 1 2.5 6.55v53.58a8.87 8.87 0 0 1 -2.5 6.65 9.27 9.27 0 0 1 -6.8 2.46 9 9 0 0 1 -6.66-2.51z"/><path d="m278.36 364.6a9 9 0 0 1 -2.45-6.65v-53.53a7.68 7.68 0 0 1 8.5-8.5h25.59q11.7 0 18.21 5.95t6.5 16.56q0 10.5-6.55 16.51t-18.16 6h-15.68v17a8.91 8.91 0 0 1 -2.5 6.65 9.3 9.3 0 0 1 -6.81 2.46 9 9 0 0 1 -6.65-2.45zm29.17-37.46c3.4 0 5.91-.71 7.55-2.11s2.45-3.56 2.45-6.5q0-8.7-10-8.7h-13.21v17.31z"/></g></svg>