<svg xmlns="http://www.w3.org/2000/svg" viewBox="0 0 511.269 511.269" enable-background="new 0 0 511.269 511.269"><path d="M140.367 465.067c-23.467-26.667-46.933-54.4-61.867-87.467-14.933-35.2-19.2-75.733-11.733-114.133s24.533-74.667 49.067-105.6c-2.133 26.667 7.467 54.4 25.6 74.667-10.667-51.2 6.4-106.667 40.533-147.2s81.067-67.201 130.133-85.334c-24.533 25.6-27.733 66.133-18.133 100.267 9.6 34.133 29.867 64 48 94.933 18.133 30.933 35.2 62.933 36.267 98.133 9.6-18.133 20.267-36.267 26.667-56.533 6.4-20.267 9.6-41.6 4.267-61.867 19.2 23.467 29.867 46.933 35.2 76.8 5.333 29.867 4.267 60.8 1.067 90.667-4.267 33.067-12.8 67.2-30.933 94.933-21.333 33.067-55.467 56.533-92.8 69.333-66.135 11.734-131.202 2.134-181.335-41.599z" fill="#F3705A"/><path d="M221.434 504.533c87.466 34.134 173.866-69.333 125.866-149.333l-1.067-2.133c4.267 43.733-6.4 75.733-26.667 93.867 10.667-25.6 3.2-55.467-9.6-81.067-12.8-24.533-30.933-46.933-44.8-70.4-13.867-24.533-24.533-52.267-18.133-80-25.6 19.2-43.733 48-51.2 78.933-7.467 30.933-3.2 65.067 10.667 93.867-16-11.733-27.733-30.933-28.8-51.2-17.067 20.267-27.733 46.933-26.667 73.6.001 41.6 33.067 78.933 70.401 93.866z" fill="#FFD15C"/></svg>